<svg width="40" height="40" viewBox="0 0 40 40" fill="none" xmlns="http://www.w3.org/2000/svg">
<path d="M12.3673 35.0005H27.6329C28.0786 34.9969 28.5047 34.8167 28.8178 34.4994C29.1309 34.1822 29.3055 33.7538 29.3033 33.308V19.4951C29.3033 19.221 29.1944 18.958 29.0006 18.7642C28.8067 18.5703 28.5438 18.4614 28.2696 18.4614H11.7305C11.4564 18.4614 11.1934 18.5703 10.9996 18.7642C10.8057 18.958 10.6968 19.221 10.6968 19.4951V33.308C10.6946 33.7538 10.8692 34.1822 11.1823 34.4994C11.4954 34.8167 11.9215 34.9969 12.3673 35.0005V35.0005Z" fill="#3B414D"/>
<path d="M10.6554 14.911C10.583 15.1187 10.5614 15.3407 10.5923 15.5584C10.6233 15.7761 10.7059 15.9833 10.8332 16.1626C10.9606 16.3419 11.129 16.4881 11.3244 16.589C11.5198 16.69 11.7365 16.7427 11.9564 16.7427H28.0393C28.2591 16.7424 28.4757 16.6896 28.6709 16.5886C28.8661 16.4876 29.0343 16.3413 29.1615 16.162C29.2887 15.9828 29.3712 15.7757 29.4021 15.5581C29.433 15.3404 29.4113 15.1186 29.339 14.911C28.5332 12.5975 26.8612 10.6869 24.675 9.5813C24.5987 9.5429 24.5395 9.47731 24.5092 9.39747C24.4788 9.31762 24.4795 9.22931 24.511 9.14991L25.3834 6.90886C25.4541 6.7393 25.4901 6.55733 25.4894 6.37365C25.4888 6.18996 25.4514 6.00826 25.3795 5.83923C25.3076 5.6702 25.2026 5.51725 25.0707 5.38937C24.9389 5.26149 24.7828 5.16125 24.6116 5.09455C24.4405 5.02786 24.2577 4.99604 24.0741 5.00099C23.8905 5.00593 23.7097 5.04753 23.5424 5.12334C23.3751 5.19914 23.2246 5.30763 23.0998 5.44242C22.975 5.57722 22.8784 5.73559 22.8157 5.90825L21.8509 8.37257C21.8225 8.44501 21.7704 8.50569 21.7031 8.54473C21.6357 8.58377 21.5572 8.59888 21.4802 8.58758C20.9915 8.51469 20.4982 8.47738 20.0041 8.47594C19.5064 8.47802 19.0094 8.51533 18.5169 8.58758C18.4397 8.59904 18.361 8.58385 18.2936 8.54451C18.2262 8.50517 18.1742 8.44404 18.1462 8.37119L17.2035 5.90687C17.0722 5.56491 16.8105 5.28908 16.4759 5.14007C16.1413 4.99106 15.7613 4.98107 15.4193 5.1123C15.0773 5.24353 14.8015 5.50523 14.6525 5.83982C14.5035 6.17441 14.4935 6.5545 14.6247 6.89646L15.493 9.13888C15.5238 9.2185 15.5239 9.30671 15.4934 9.38641C15.4628 9.46611 15.4038 9.53163 15.3277 9.57028C13.131 10.67 11.4534 12.5877 10.6554 14.911ZM23.101 11.9188C23.3055 11.9188 23.5053 11.9795 23.6753 12.093C23.8453 12.2066 23.9778 12.3681 24.056 12.5569C24.1343 12.7458 24.1547 12.9537 24.1149 13.1542C24.075 13.3547 23.9765 13.5389 23.832 13.6835C23.6874 13.828 23.5032 13.9265 23.3027 13.9664C23.1022 14.0062 22.8943 13.9858 22.7055 13.9075C22.5166 13.8293 22.3551 13.6968 22.2415 13.5268C22.128 13.3568 22.0673 13.157 22.0673 12.9525C22.0668 12.8164 22.0931 12.6816 22.1448 12.5557C22.1965 12.4298 22.2726 12.3153 22.3686 12.2189C22.4647 12.1225 22.5788 12.046 22.7045 11.9938C22.8302 11.9416 22.9649 11.9147 23.101 11.9147V11.9188ZM16.8989 11.9188C17.1033 11.9188 17.3032 11.9795 17.4732 12.093C17.6431 12.2066 17.7756 12.3681 17.8539 12.5569C17.9321 12.7458 17.9526 12.9537 17.9127 13.1542C17.8728 13.3547 17.7744 13.5389 17.6298 13.6835C17.4852 13.828 17.301 13.9265 17.1005 13.9664C16.9 14.0062 16.6922 13.9858 16.5033 13.9075C16.3144 13.8293 16.153 13.6968 16.0394 13.5268C15.9258 13.3568 15.8652 13.157 15.8652 12.9525C15.8646 12.8164 15.891 12.6816 15.9427 12.5557C15.9944 12.4298 16.0704 12.3153 16.1665 12.2189C16.2625 12.1225 16.3766 12.046 16.5023 11.9938C16.628 11.9416 16.7628 11.9147 16.8989 11.9147V11.9188Z" fill="#3B414D"/>
<path d="M33.7825 29.832V20.1842C33.7825 19.8186 33.6373 19.4681 33.3789 19.2096C33.1204 18.9511 32.7698 18.8059 32.4043 18.8059C32.0388 18.8059 31.6882 18.9511 31.4297 19.2096C31.1712 19.4681 31.026 19.8186 31.026 20.1842V29.832C31.026 30.1975 31.1712 30.5481 31.4297 30.8065C31.6882 31.065 32.0388 31.2102 32.4043 31.2102C32.7698 31.2102 33.1204 31.065 33.3789 30.8065C33.6373 30.5481 33.7825 30.1975 33.7825 29.832Z" fill="#3B414D"/>
<path d="M7.59571 18.8059C7.23017 18.8059 6.87961 18.9511 6.62114 19.2096C6.36266 19.4681 6.21745 19.8186 6.21745 20.1842V29.832C6.21745 30.1975 6.36266 30.5481 6.62114 30.8065C6.87961 31.065 7.23017 31.2102 7.59571 31.2102C7.96125 31.2102 8.31181 31.065 8.57029 30.8065C8.82876 30.5481 8.97397 30.1975 8.97397 29.832V20.1842C8.97397 19.8186 8.82876 19.4681 8.57029 19.2096C8.31181 18.9511 7.96125 18.8059 7.59571 18.8059V18.8059Z" fill="#3B414D"/>
</svg>
