<svg width="40" height="40" viewBox="0 0 40 40" fill="none" xmlns="http://www.w3.org/2000/svg">
<path d="M15.7812 15.313C16.5579 15.313 17.1875 14.6834 17.1875 13.9067C17.1875 13.1301 16.5579 12.5005 15.7812 12.5005C15.0046 12.5005 14.375 13.1301 14.375 13.9067C14.375 14.6834 15.0046 15.313 15.7812 15.313Z" fill="#3B414D"/>
<path d="M24.2188 15.313C24.9954 15.313 25.625 14.6834 25.625 13.9067C25.625 13.1301 24.9954 12.5005 24.2188 12.5005C23.4421 12.5005 22.8125 13.1301 22.8125 13.9067C22.8125 14.6834 23.4421 15.313 24.2188 15.313Z" fill="#3B414D"/>
<path d="M11.5625 35.0005C10.0112 35.0005 8.75 33.7392 8.75 32.188V20.1655C7.65125 20.5567 6.875 21.613 6.875 22.813V30.313C6.875 30.8305 6.455 31.2505 5.9375 31.2505C5.42 31.2505 5 30.8292 5 30.313V22.813C5 20.5642 6.585 18.6592 8.75 18.2217V18.1217C8.75 14.7042 10.2563 11.5505 12.9 9.40049L10.8012 6.48549C10.655 6.28174 10.5975 6.03424 10.6375 5.78674C10.6775 5.53924 10.8112 5.32299 11.015 5.17674C11.175 5.06174 11.3638 5.00049 11.5625 5.00049C11.8637 5.00049 12.1475 5.14674 12.3238 5.39049L14.4488 8.34174C16.1388 7.37799 18.0488 6.87174 20 6.87174C21.9512 6.87174 23.8612 7.37924 25.5512 8.34174L27.6763 5.39049C27.8525 5.14674 28.1375 5.00049 28.4375 5.00049C28.635 5.00049 28.8237 5.06174 28.985 5.17674C29.4037 5.47799 29.5 6.06549 29.1987 6.48549L27.1 9.40049C29.7438 11.5505 31.25 14.7042 31.25 18.1217V18.2205C33.415 18.6592 35 20.563 35 22.8117V30.3117C35 30.8292 34.58 31.2492 34.0625 31.2492C33.545 31.2492 33.125 30.8292 33.125 30.3117V22.8117C33.125 21.6117 32.3488 20.5555 31.25 20.1642V32.1867C31.25 33.738 29.9888 34.9992 28.4375 34.9992H11.5625V35.0005ZM10.625 32.188C10.625 32.7055 11.045 33.1255 11.5625 33.1255H28.4375C28.955 33.1255 29.375 32.7055 29.375 32.188V20.0005H10.625V32.188ZM29.375 18.1217C29.375 12.9517 25.1688 8.74674 20 8.74674C14.8312 8.74674 10.625 12.953 10.625 18.1217H29.375Z" fill="#3B414D"/>
</svg>
