<svg width="1366" height="540" viewBox="0 0 1366 540" fill="none" xmlns="http://www.w3.org/2000/svg">
<g clip-path="url(#clip0_1923_16029)">
<path d="M629.525 408.202C476.983 422.23 417.186 428.33 306.136 422.84L305.001 422.784C230.765 419.115 192.887 417.243 120.644 396.003C75.4788 382.724 6.69267 358.962 -2 310V453.338V543H73.661H453.186H909.593H1289.12H1366V375.498L1289.12 369.399C1213.46 362.079 1060.92 348.66 909.593 362.079C757.051 375.498 782.068 394.173 629.525 408.202Z" fill="#F4F6F8"/>
<path d="M1183.45 349.309L1128.38 347.306C1127.2 347.766 1126.19 348.565 1125.48 349.6C1124.76 350.635 1124.37 351.859 1124.36 353.116C1124.02 359.287 1127.69 360.899 1127.69 360.899L1182.53 365.988L1183.45 349.309Z" fill="white"/>
<path d="M1182.53 366.459C1182.66 366.458 1182.77 366.416 1182.87 366.338C1182.97 366.247 1183.03 366.122 1183.04 365.988L1183.93 349.339C1183.94 349.273 1183.93 349.207 1183.9 349.146C1183.88 349.084 1183.85 349.027 1183.8 348.978C1183.71 348.879 1183.58 348.818 1183.45 348.808L1128.38 346.805H1128.2C1126.93 347.296 1125.84 348.153 1125.06 349.265C1124.27 350.378 1123.84 351.697 1123.81 353.056C1123.47 359.507 1127.28 361.26 1127.44 361.33C1127.49 361.339 1127.55 361.339 1127.6 361.33L1182.53 366.459ZM1182.91 349.8L1182.06 365.417L1127.79 360.408C1127.32 360.168 1124.55 358.485 1124.78 353.146C1124.79 351.999 1125.14 350.882 1125.78 349.933C1126.43 348.985 1127.34 348.248 1128.41 347.816L1182.91 349.8Z" fill="#4E5666"/>
<path d="M1139.44 361.47C1141.08 361.47 1142.73 361.47 1144.36 361.47C1149.7 361.461 1155.02 361.739 1160.32 362.302C1165.35 362.953 1171.59 364.175 1175.58 367.491C1177.42 369.27 1178.72 371.53 1179.34 374.012C1179.5 374.593 1180.48 380.754 1179.69 380.784C1182.13 380.683 1183.63 383.368 1184.36 385.682C1187.71 396.14 1187.25 406.157 1183.66 416.385C1182.79 418.869 1181.75 419.911 1179.22 420.051C1177.02 420.312 1174.84 420.789 1172.74 421.474C1166.84 422.936 1160.68 422.926 1154.65 422.906C1150.56 422.975 1146.48 422.808 1142.42 422.406C1134.89 421.504 1126.02 419.671 1120.31 414.291C1114.81 409.072 1116.83 401.7 1116.86 395.078C1116.86 386.013 1117.15 378.97 1122.21 370.937C1124.9 366.669 1128.62 363.303 1133.63 362.091C1135.54 361.674 1137.49 361.466 1139.44 361.47Z" fill="#4E5666"/>
<path d="M1156.57 423.467C1161.98 423.467 1167.52 423.337 1172.86 422.005L1174.65 421.524C1176.14 421.047 1177.68 420.737 1179.24 420.603C1182.25 420.432 1183.26 419 1184.13 416.596C1187.87 405.937 1188.15 395.79 1184.85 385.542C1183.84 382.537 1182.3 380.683 1180.44 380.343C1180.71 378.46 1179.83 373.932 1179.82 373.892C1179.43 372.509 1178.26 369.093 1175.9 367.12C1171.77 363.684 1165.45 362.482 1160.39 361.811C1155.94 361.311 1151.47 361.053 1146.99 361.04L1144.34 360.979H1143.87C1142.41 360.979 1140.86 360.909 1139.4 360.979C1137.41 360.994 1135.43 361.223 1133.49 361.661C1128.79 362.803 1124.84 365.848 1121.76 370.736C1116.74 378.66 1116.38 385.542 1116.34 395.138C1116.34 396.501 1116.23 397.933 1116.14 399.316C1115.78 404.775 1115.41 410.415 1119.94 414.712C1125.97 420.432 1135.6 422.155 1142.31 422.957C1146.39 423.366 1150.49 423.536 1154.59 423.467H1156.57ZM1179.81 381.325C1182.17 381.325 1183.45 384.5 1183.89 385.882C1187.09 395.9 1186.91 405.817 1183.19 416.265C1182.33 418.699 1181.4 419.481 1179.17 419.601C1177.53 419.756 1175.92 420.092 1174.35 420.603C1173.78 420.763 1173.2 420.923 1172.6 421.073C1166.73 422.536 1160.54 422.516 1154.6 422.506C1150.53 422.565 1146.47 422.395 1142.43 421.995C1135.86 421.214 1126.47 419.541 1120.64 413.981C1116.45 409.974 1116.8 404.595 1117.14 399.366C1117.23 397.973 1117.33 396.531 1117.33 395.138C1117.38 385.712 1117.76 378.95 1122.62 371.247C1125.54 366.599 1129.28 363.694 1133.67 362.622C1135.54 362.195 1137.46 361.974 1139.38 361.961C1140.85 361.961 1142.4 361.961 1143.8 362.011H1144.34L1146.97 362.071C1151.41 362.081 1155.85 362.335 1160.26 362.833C1164.8 363.434 1171.32 364.606 1175.26 367.921C1177.41 369.704 1178.49 372.93 1178.86 374.192C1179.08 374.964 1179.7 379.531 1179.44 380.393C1179.36 380.439 1179.3 380.504 1179.26 380.581C1179.21 380.658 1179.19 380.745 1179.19 380.834C1179.19 380.9 1179.2 380.966 1179.23 381.027C1179.25 381.089 1179.29 381.144 1179.34 381.189C1179.39 381.234 1179.45 381.268 1179.51 381.29C1179.58 381.312 1179.64 381.32 1179.71 381.315L1179.81 381.325Z" fill="#4E5666"/>
<path d="M1171.3 348.658C1165.16 347.329 1158.91 346.495 1152.64 346.164C1148.73 345.964 1138.94 345.463 1135.55 347.546C1131.8 349.83 1134.87 357.764 1134.88 361.881C1134.88 367.711 1138.36 369.164 1143.68 370.737C1147.53 371.85 1151.54 372.238 1155.53 371.878C1158.76 371.578 1165.82 369.805 1166.59 366.028C1166.67 365.126 1166.59 364.216 1166.34 363.344C1165.78 360.539 1167.39 351.483 1171.3 348.658Z" fill="#4E5666"/>
<path d="M1152.66 372.499C1153.66 372.499 1154.6 372.499 1155.55 372.369C1158.26 372.129 1166.18 370.446 1167.05 366.128C1167.17 365.292 1167.12 364.438 1166.89 363.624L1166.82 363.253C1166.3 360.619 1167.89 351.884 1171.49 349.139C1171.58 349.106 1171.65 349.042 1171.7 348.959C1171.78 348.868 1171.82 348.753 1171.82 348.633C1171.82 348.514 1171.78 348.398 1171.7 348.308C1171.65 348.254 1171.58 348.214 1171.51 348.19C1171.44 348.165 1171.36 348.158 1171.29 348.167L1170.39 347.987C1164.57 346.724 1158.66 345.946 1152.71 345.663C1148.56 345.453 1138.86 344.952 1135.31 347.116C1132.36 348.919 1133.16 353.537 1133.86 357.614C1134.15 359.021 1134.33 360.447 1134.4 361.881C1134.4 368.032 1138.19 369.634 1143.55 371.217C1146.51 372.069 1149.58 372.501 1152.66 372.499ZM1170.18 348.959C1166.68 352.475 1165.3 360.639 1165.83 363.424L1165.91 363.814C1166.1 364.502 1166.16 365.22 1166.07 365.928C1165.38 369.334 1158.49 371.097 1155.46 371.367C1151.54 371.722 1147.58 371.345 1143.8 370.256C1138.55 368.693 1135.35 367.361 1135.35 361.871C1135.28 360.38 1135.1 358.896 1134.81 357.433C1134.16 353.667 1133.43 349.419 1135.81 347.957C1139.1 345.953 1148.88 346.464 1152.63 346.655C1158.52 346.938 1164.38 347.709 1170.14 348.959H1170.18Z" fill="#4E5666"/>
<path d="M1182.56 365.95C1179.46 365.784 1177.16 361.923 1177.41 357.327C1177.65 352.731 1180.36 349.139 1183.45 349.305C1186.55 349.471 1188.85 353.332 1188.61 357.928C1188.36 362.524 1185.65 366.116 1182.56 365.95Z" fill="white"/>
<path d="M1182.77 366.469C1183.62 366.427 1184.45 366.185 1185.2 365.762C1185.94 365.339 1186.58 364.747 1187.05 364.035C1188.32 362.26 1189.03 360.152 1189.11 357.974C1189.37 353.106 1186.85 348.959 1183.48 348.828C1182.58 348.816 1181.69 349.032 1180.9 349.456C1180.11 349.881 1179.44 350.499 1178.96 351.253C1177.71 353.038 1177.01 355.148 1176.95 357.323C1176.69 362.181 1179.21 366.289 1182.57 366.469H1182.77ZM1183.25 349.81H1183.43C1186.23 349.96 1188.33 353.597 1188.1 357.914C1188.04 359.896 1187.39 361.816 1186.24 363.434C1185.85 364.044 1185.31 364.546 1184.67 364.896C1184.03 365.246 1183.31 365.432 1182.58 365.437C1179.77 365.287 1177.67 361.661 1177.9 357.343C1177.96 355.361 1178.61 353.442 1179.76 351.824C1180.14 351.239 1180.66 350.752 1181.26 350.402C1181.87 350.052 1182.55 349.849 1183.25 349.81Z" fill="#4E5666"/>
<path d="M1172.88 388.186C1173 388.186 1173.12 388.144 1173.21 388.068C1173.3 387.991 1173.37 387.884 1173.39 387.766C1174.39 382.316 1177.41 381.505 1177.54 381.475C1177.67 381.439 1177.79 381.353 1177.86 381.235C1177.93 381.117 1177.95 380.976 1177.91 380.844C1177.9 380.779 1177.87 380.718 1177.83 380.664C1177.79 380.61 1177.74 380.565 1177.68 380.53C1177.63 380.496 1177.56 380.473 1177.5 380.463C1177.43 380.453 1177.36 380.457 1177.3 380.473C1177.14 380.473 1173.53 381.425 1172.36 387.575C1172.35 387.642 1172.35 387.71 1172.37 387.776C1172.38 387.843 1172.41 387.906 1172.44 387.962C1172.48 388.018 1172.53 388.065 1172.59 388.102C1172.65 388.139 1172.71 388.164 1172.78 388.176L1172.88 388.186Z" fill="white"/>
<path d="M1162.82 386.654C1162.92 386.653 1163.02 386.622 1163.1 386.565C1163.19 386.508 1163.25 386.427 1163.29 386.333C1163.29 386.243 1166.79 377.638 1159.09 371.968C1154.16 368.332 1144.44 367.961 1137.51 369.143C1133.26 369.875 1130.26 371.147 1129.28 372.569C1127.57 375.334 1126.56 378.468 1126.32 381.705C1126.32 381.841 1126.37 381.973 1126.46 382.073C1126.55 382.174 1126.68 382.236 1126.82 382.246C1126.89 382.252 1126.95 382.243 1127.02 382.221C1127.08 382.199 1127.14 382.164 1127.19 382.118C1127.25 382.072 1127.29 382.016 1127.31 381.953C1127.34 381.891 1127.36 381.824 1127.36 381.755C1127.6 378.71 1128.56 375.764 1130.14 373.15C1130.94 371.968 1133.83 370.826 1137.68 370.145C1144.41 368.993 1153.76 369.324 1158.47 372.78C1165.51 377.979 1162.36 385.802 1162.33 385.922C1162.28 386.049 1162.28 386.19 1162.34 386.315C1162.39 386.44 1162.49 386.54 1162.62 386.594C1162.68 386.629 1162.75 386.65 1162.82 386.654Z" fill="white"/>
<path d="M1039.02 353.036C1039.02 353.036 1032.19 383.609 1025.03 383.388C1017.88 383.168 1002.8 354.038 1002.8 354.038L1011.3 349.47L1020.35 357.413L1027.28 341.486L1039.02 353.036Z" fill="white"/>
<path d="M1025.11 383.889C1028.3 383.889 1031.68 378.7 1035.16 368.452C1037.74 360.899 1039.47 353.226 1039.49 353.146C1039.51 353.062 1039.51 352.975 1039.48 352.893C1039.46 352.81 1039.41 352.736 1039.35 352.675L1027.6 341.125C1027.54 341.07 1027.47 341.03 1027.39 341.007C1027.31 340.985 1027.23 340.98 1027.15 340.995C1027.07 341.01 1027 341.044 1026.93 341.095C1026.87 341.145 1026.82 341.211 1026.79 341.285L1020.13 356.582L1011.61 349.099C1011.54 349.03 1011.44 348.986 1011.34 348.973C1011.24 348.961 1011.13 348.98 1011.04 349.028L1002.54 353.596C1002.48 353.627 1002.43 353.668 1002.39 353.719C1002.35 353.769 1002.32 353.827 1002.3 353.89C1002.28 353.952 1002.27 354.018 1002.28 354.083C1002.29 354.148 1002.31 354.21 1002.34 354.268C1002.95 355.47 1017.63 383.658 1025 383.889H1025.11ZM1038.47 353.196C1036.54 361.74 1030.57 382.887 1025.11 382.887H1025.05C1019.52 382.707 1007.83 362.562 1003.47 354.247L1011.23 350.08L1020.01 357.784C1020.06 357.838 1020.14 357.876 1020.21 357.895C1020.29 357.915 1020.37 357.914 1020.45 357.894C1020.53 357.876 1020.6 357.84 1020.66 357.79C1020.72 357.739 1020.77 357.676 1020.8 357.603L1027.43 342.357L1038.47 353.196Z" fill="#4E5666"/>
<path d="M1099.25 341.115C1099.25 341.115 1115.69 374.172 1114.01 383.238C1112.34 392.304 1083.04 377.007 1083.04 377.007L1080.02 369.474L1088.2 363.774L1085.81 345.523L1099.25 341.115Z" fill="white"/>
<path d="M1109.24 386.593C1110.35 386.637 1111.45 386.432 1112.47 385.992C1112.99 385.746 1113.45 385.375 1113.8 384.91C1114.16 384.445 1114.39 383.902 1114.48 383.328C1116.17 374.212 1100.35 342.257 1099.67 340.894C1099.62 340.785 1099.53 340.699 1099.41 340.651C1099.3 340.604 1099.18 340.597 1099.06 340.634L1085.64 345.021C1085.53 345.058 1085.44 345.132 1085.38 345.231C1085.32 345.33 1085.29 345.448 1085.31 345.562L1087.65 363.513L1079.72 369.033C1079.63 369.097 1079.56 369.19 1079.53 369.297C1079.5 369.405 1079.5 369.52 1079.54 369.624L1082.56 377.167C1082.6 377.276 1082.68 377.366 1082.79 377.417C1083.6 377.848 1100.45 386.593 1109.24 386.593ZM1098.99 341.726C1100.83 345.462 1115.07 374.883 1113.51 383.147C1113.45 383.569 1113.28 383.967 1113.02 384.307C1112.76 384.646 1112.42 384.916 1112.03 385.091C1106 388.036 1085.48 377.678 1083.42 376.616L1080.66 369.604L1088.51 364.135C1088.58 364.082 1088.64 364.01 1088.68 363.928C1088.71 363.845 1088.73 363.754 1088.72 363.664L1086.39 345.823L1098.99 341.726Z" fill="#4E5666"/>
<path d="M1088.22 354.969L1104.77 344.561C1098.14 333.201 1094.38 322.803 1089.79 320.439C1083.85 316.342 1062.89 319.107 1050.29 319.738C1046.64 319.213 1042.92 319.844 1039.65 321.541C1026.5 328.233 1021.02 349.209 1021.02 349.209L1035.27 355.971C1035.27 355.971 1034.54 359.978 1029.49 381.765C1029.49 381.765 1064.04 391.783 1092.09 401.8C1092.08 401.81 1088.21 358.745 1088.22 354.969Z" fill="#C4EAF5"/>
<path d="M1059.87 384.961C1060 384.961 1060.13 384.911 1060.22 384.821C1060.32 384.732 1060.37 384.609 1060.38 384.48L1062.1 328.233C1062.1 328.167 1062.09 328.101 1062.06 328.04C1062.04 327.978 1062.01 327.921 1061.96 327.873C1061.92 327.824 1061.86 327.785 1061.8 327.758C1061.74 327.73 1061.68 327.714 1061.61 327.712C1061.48 327.712 1061.36 327.762 1061.26 327.851C1061.17 327.941 1061.12 328.063 1061.11 328.193L1059.39 384.45C1059.39 384.516 1059.4 384.581 1059.43 384.642C1059.45 384.704 1059.49 384.76 1059.53 384.807C1059.58 384.855 1059.63 384.893 1059.69 384.919C1059.75 384.945 1059.82 384.96 1059.88 384.961H1059.87Z" fill="#4E5666"/>
<path d="M1085.51 293.573C1085.51 293.573 1088.65 287.022 1087.45 282.864C1086.26 278.707 1070.72 270.844 1065.22 271.425C1059.72 272.006 1051.88 285.689 1051.88 285.689C1051.88 285.689 1078.94 286.34 1085.51 293.573Z" fill="white"/>
<path d="M1085.51 294.094H1085.59C1085.68 294.082 1085.75 294.05 1085.82 294.001C1085.89 293.952 1085.95 293.888 1085.98 293.813C1086.12 293.533 1089.18 287.031 1087.94 282.734C1086.71 278.437 1070.98 270.252 1065.16 270.904C1059.34 271.555 1051.79 284.858 1051.47 285.429C1051.43 285.507 1051.41 285.595 1051.41 285.684C1051.41 285.774 1051.43 285.862 1051.47 285.94C1051.52 286.018 1051.58 286.083 1051.66 286.129C1051.74 286.175 1051.82 286.199 1051.91 286.2C1052.18 286.2 1078.78 286.941 1085.13 293.923C1085.18 293.976 1085.24 294.019 1085.3 294.048C1085.37 294.078 1085.44 294.093 1085.51 294.094ZM1065.88 271.905C1071.71 271.905 1085.87 279.248 1086.99 283.005C1087.9 286.17 1086.13 290.928 1085.38 292.671C1078.64 286.511 1057.51 285.369 1052.86 285.198C1054.56 282.363 1060.9 272.416 1065.32 271.935C1065.51 271.916 1065.7 271.906 1065.88 271.905Z" fill="#4E5666"/>
<path d="M1061.79 305.957C1049.23 299.268 1042.01 288.303 1045.68 281.467C1049.34 274.63 1062.49 274.51 1075.06 281.199C1087.62 287.888 1094.83 298.852 1091.17 305.689C1087.51 312.526 1074.35 312.645 1061.79 305.957Z" fill="#4E5666"/>
<path d="M1054.39 287.212C1054.61 286.851 1054.84 286.5 1055.09 286.15C1057.9 282.223 1065.37 283.515 1069.29 284.647C1073.01 285.571 1076.43 287.426 1079.22 290.037C1081.37 292.22 1083.37 295.767 1082.97 298.952C1082.57 302.138 1080.56 305.864 1078.95 308.549C1078.07 310.21 1076.78 311.626 1075.21 312.666C1073.55 313.494 1071.71 313.916 1069.85 313.898C1065.88 314.108 1061.75 313.728 1058.3 311.774C1054.84 309.821 1051.6 305.674 1051.33 301.476C1051.02 296.638 1051.79 291.449 1054.39 287.212Z" fill="white"/>
<path d="M1067.96 314.499C1068.59 314.499 1069.22 314.499 1069.88 314.499C1071.82 314.498 1073.73 314.042 1075.45 313.167C1077.1 312.079 1078.45 310.599 1079.38 308.86C1081.79 304.853 1083.17 301.587 1083.49 299.073C1083.93 295.537 1081.66 291.83 1079.59 289.726C1076.74 287.039 1073.24 285.134 1069.43 284.197C1066.8 283.446 1057.95 281.322 1054.67 285.9C1054.41 286.255 1054.17 286.623 1053.95 287.002C1050.93 292.01 1050.56 297.68 1050.82 301.597C1051.08 305.514 1054.05 310.052 1058.04 312.306C1061.1 313.892 1064.52 314.648 1067.96 314.499ZM1061.93 284.017C1064.39 284.076 1066.83 284.457 1069.18 285.149C1072.82 286.032 1076.16 287.844 1078.88 290.408C1080.89 292.491 1082.9 295.927 1082.49 298.892C1082.2 301.266 1080.86 304.422 1078.52 308.279C1077.68 309.866 1076.45 311.221 1074.96 312.225C1073.37 313.011 1071.63 313.419 1069.85 313.417C1065.15 313.678 1061.47 312.997 1058.58 311.414C1054.88 309.31 1052.13 305.253 1051.88 301.527C1051.64 297.8 1051.96 292.281 1054.9 287.503C1055.11 287.152 1055.34 286.811 1055.58 286.501C1056.85 284.578 1059.36 284.017 1061.93 284.017Z" fill="#4E5666"/>
<path d="M1056.42 313.688L1055.25 323.254C1055.25 323.254 1057.87 329.265 1064.16 328.123C1066.01 327.752 1067.76 326.973 1069.28 325.843C1070.79 324.713 1072.04 323.261 1072.92 321.591L1073.7 304.131C1073.7 304.131 1069.21 301.457 1071.05 291.56C1065.86 293.487 1060.26 293.988 1054.81 293.012C1054.81 293.012 1051.46 303.681 1051.98 308.519C1052.49 313.357 1056.42 313.688 1056.42 313.688Z" fill="white"/>
<path d="M1062.57 328.794C1063.13 328.792 1063.7 328.738 1064.26 328.633C1066.2 328.255 1068.02 327.445 1069.61 326.264C1071.19 325.083 1072.48 323.561 1073.39 321.811C1073.4 321.749 1073.4 321.684 1073.39 321.621L1074.17 304.151C1074.17 304.057 1074.15 303.963 1074.11 303.88C1074.06 303.797 1074 303.728 1073.91 303.68C1073.91 303.68 1069.77 301.016 1071.51 291.659C1071.53 291.566 1071.52 291.47 1071.49 291.382C1071.45 291.294 1071.4 291.216 1071.32 291.159C1071.25 291.099 1071.16 291.06 1071.07 291.048C1070.98 291.035 1070.88 291.049 1070.8 291.088C1065.72 292.957 1060.23 293.444 1054.9 292.501C1054.77 292.476 1054.64 292.5 1054.54 292.567C1054.43 292.633 1054.35 292.739 1054.32 292.861C1054.18 293.302 1050.94 303.69 1051.46 308.569C1051.9 312.666 1054.67 313.798 1055.84 314.098L1054.74 323.194C1054.71 323.279 1054.71 323.369 1054.74 323.454C1054.8 323.514 1057.15 328.794 1062.57 328.794ZM1072.41 321.461C1071.55 323.03 1070.36 324.393 1068.92 325.456C1067.48 326.518 1065.82 327.254 1064.06 327.612C1058.73 328.613 1056.19 323.975 1055.78 323.164L1056.91 313.748C1056.92 313.608 1056.89 313.468 1056.8 313.357C1056.71 313.25 1056.58 313.183 1056.44 313.167C1056.3 313.167 1052.94 312.786 1052.48 308.458C1052.04 304.331 1054.49 295.636 1055.15 293.603C1060.25 294.425 1065.47 293.998 1070.37 292.361C1069.1 300.535 1072.2 303.64 1073.15 304.381L1072.41 321.461Z" fill="#4E5666"/>
<path d="M1070.08 303.65C1070.33 302.809 1070.85 302.071 1071.55 301.546C1072.23 301.088 1072.99 300.749 1073.78 300.545C1074.21 300.385 1074.66 300.326 1075.11 300.374C1075.42 300.44 1075.71 300.562 1075.97 300.735C1076.63 301.093 1077.14 301.677 1077.39 302.378C1077.54 302.96 1077.54 303.569 1077.39 304.151C1077.29 304.792 1077.09 305.416 1076.82 306.004C1076.54 306.589 1076.14 307.112 1075.65 307.542C1075.16 307.973 1074.59 308.302 1073.97 308.511C1073.36 308.72 1072.7 308.804 1072.05 308.759C1071.4 308.714 1070.77 308.54 1070.19 308.248" fill="white"/>
<path d="M1072.4 309.31C1072.99 309.309 1073.58 309.21 1074.14 309.019C1074.82 308.788 1075.45 308.425 1075.99 307.951C1076.53 307.476 1076.97 306.9 1077.29 306.255C1077.58 305.615 1077.78 304.942 1077.9 304.251C1078.06 303.592 1078.06 302.906 1077.9 302.248C1077.6 301.431 1077.02 300.748 1076.26 300.324C1075.94 300.113 1075.58 299.967 1075.2 299.894C1074.68 299.834 1074.15 299.899 1073.65 300.084C1072.8 300.295 1071.99 300.654 1071.26 301.146C1070.46 301.733 1069.88 302.563 1069.59 303.51C1069.57 303.574 1069.57 303.642 1069.57 303.709C1069.58 303.776 1069.6 303.842 1069.63 303.901C1069.66 303.961 1069.7 304.014 1069.76 304.057C1069.81 304.099 1069.87 304.131 1069.93 304.151C1070 304.171 1070.07 304.177 1070.14 304.171C1070.2 304.164 1070.27 304.143 1070.33 304.111C1070.39 304.078 1070.44 304.034 1070.49 303.98C1070.53 303.927 1070.56 303.866 1070.58 303.8C1070.8 303.071 1071.26 302.432 1071.87 301.977C1072.51 301.565 1073.21 301.258 1073.94 301.066C1074.28 300.927 1074.64 300.862 1075 300.875C1075.24 300.926 1075.48 301.024 1075.68 301.166C1076.23 301.464 1076.65 301.942 1076.88 302.518C1077 303.018 1077 303.541 1076.88 304.041C1076.78 304.639 1076.61 305.222 1076.36 305.774C1076.1 306.295 1075.74 306.761 1075.3 307.144C1074.87 307.527 1074.36 307.82 1073.8 308.006C1073.25 308.192 1072.67 308.268 1072.09 308.229C1071.51 308.189 1070.94 308.036 1070.42 307.777C1070.36 307.747 1070.29 307.729 1070.22 307.724C1070.15 307.719 1070.09 307.728 1070.02 307.749C1069.96 307.771 1069.9 307.804 1069.85 307.849C1069.8 307.893 1069.75 307.947 1069.72 308.008C1069.69 308.068 1069.68 308.134 1069.67 308.201C1069.67 308.269 1069.67 308.337 1069.7 308.401C1069.72 308.465 1069.75 308.524 1069.8 308.576C1069.84 308.627 1069.89 308.669 1069.95 308.699C1070.71 309.09 1071.55 309.3 1072.4 309.31Z" fill="#4E5666"/>
<path d="M1056.06 318.446C1057.2 318.634 1058.36 318.574 1059.48 318.272C1060.59 317.969 1061.63 317.431 1062.52 316.693C1065.38 314.198 1065.22 312.686 1065.22 312.686C1065.22 312.686 1060.69 314.9 1056.66 313.898L1056.06 318.446Z" fill="#4E5666"/>
<path d="M1057.34 319.057C1059.36 319.076 1061.32 318.364 1062.85 317.053C1065.86 314.459 1065.73 312.776 1065.71 312.586C1065.71 312.507 1065.68 312.43 1065.64 312.364C1065.59 312.297 1065.53 312.243 1065.46 312.205C1065.39 312.168 1065.31 312.149 1065.23 312.149C1065.15 312.149 1065.07 312.168 1065 312.205C1065 312.205 1060.59 314.309 1056.78 313.357C1056.71 313.339 1056.64 313.336 1056.57 313.348C1056.5 313.36 1056.43 313.387 1056.38 313.427C1056.32 313.468 1056.27 313.52 1056.23 313.58C1056.2 313.64 1056.17 313.708 1056.17 313.778L1055.56 318.376C1055.55 318.49 1055.58 318.605 1055.64 318.702C1055.7 318.798 1055.8 318.871 1055.9 318.907C1056.38 319.003 1056.86 319.053 1057.34 319.057ZM1064.5 313.507C1063.93 314.597 1063.15 315.556 1062.19 316.322C1061.42 316.96 1060.53 317.44 1059.57 317.732C1058.62 318.024 1057.61 318.124 1056.62 318.025L1057.08 314.449C1059.59 314.789 1062.15 314.464 1064.5 313.507Z" fill="#4E5666"/>
<path d="M1061.39 298.761C1061.39 298.761 1057.74 303.319 1058.45 304.221C1059.15 305.122 1061.35 304.752 1061.35 304.752" fill="white"/>
<path d="M1060.35 305.333C1060.71 305.33 1061.07 305.303 1061.43 305.253C1061.57 305.232 1061.68 305.159 1061.76 305.05C1061.84 304.941 1061.88 304.805 1061.85 304.672C1061.83 304.539 1061.76 304.42 1061.65 304.341C1061.54 304.262 1061.4 304.23 1061.27 304.251C1060.64 304.351 1059.26 304.412 1058.84 303.911C1058.73 303.46 1060.1 301.176 1061.79 299.062C1061.83 299.01 1061.86 298.951 1061.88 298.887C1061.9 298.824 1061.91 298.757 1061.9 298.692C1061.89 298.626 1061.87 298.563 1061.84 298.505C1061.8 298.447 1061.76 298.397 1061.71 298.356C1061.66 298.315 1061.6 298.285 1061.53 298.267C1061.47 298.25 1061.4 298.244 1061.34 298.252C1061.27 298.26 1061.21 298.281 1061.15 298.313C1061.09 298.346 1061.04 298.389 1061 298.441C1059.22 300.655 1057.27 303.52 1058.05 304.522C1058.35 304.815 1058.71 305.04 1059.11 305.18C1059.5 305.32 1059.93 305.372 1060.35 305.333Z" fill="#4E5666"/>
<path d="M1059.28 308.168C1059.28 308.168 1062.79 309.641 1064.07 306.235L1059.28 308.168Z" fill="white"/>
<path d="M1060.59 307.212C1061.37 307.018 1062.18 307.084 1062.91 307.398C1063.64 307.713 1064.25 308.259 1064.64 308.953C1064.67 309.007 1064.7 309.068 1064.71 309.133C1064.72 309.197 1064.72 309.263 1064.71 309.327C1064.7 309.392 1064.67 309.453 1064.63 309.507C1064.59 309.56 1064.55 309.606 1064.49 309.642C1064.43 309.678 1064.37 309.704 1064.31 309.717C1064.24 309.73 1064.18 309.73 1064.11 309.717C1064.04 309.703 1063.98 309.677 1063.93 309.64C1063.87 309.603 1063.83 309.555 1063.79 309.499C1063.6 309.162 1063.34 308.868 1063.03 308.637C1062.72 308.405 1062.37 308.241 1061.99 308.155C1061.08 308.053 1060.17 308.274 1059.41 308.779C1059.36 308.817 1059.3 308.845 1059.23 308.86C1059.17 308.876 1059.1 308.878 1059.04 308.868C1058.97 308.857 1058.91 308.834 1058.85 308.799C1058.8 308.765 1058.75 308.719 1058.71 308.666C1058.67 308.613 1058.65 308.552 1058.63 308.488C1058.62 308.424 1058.61 308.357 1058.62 308.292C1058.63 308.227 1058.66 308.164 1058.69 308.108C1058.73 308.052 1058.77 308.003 1058.83 307.964C1059.36 307.61 1059.96 307.355 1060.59 307.212Z" fill="#4E5666"/>
<path d="M1065.41 300.152C1064.97 300.112 1064.65 299.575 1064.71 298.953C1064.77 298.33 1065.17 297.857 1065.61 297.897C1066.05 297.937 1066.37 298.474 1066.31 299.096C1066.25 299.719 1065.85 300.192 1065.41 300.152Z" fill="#4E5666"/>
<path d="M1057.51 299.449C1057.07 299.409 1056.76 298.873 1056.82 298.25C1056.87 297.627 1057.28 297.155 1057.72 297.194C1058.16 297.234 1058.47 297.771 1058.42 298.394C1058.36 299.016 1057.96 299.489 1057.51 299.449Z" fill="#4E5666"/>
<path d="M1039.07 397.482C1039.2 397.477 1039.33 397.421 1039.42 397.325C1039.51 397.23 1039.56 397.103 1039.55 396.971C1039.55 396.891 1039.31 388.737 1039.55 385.041C1039.56 384.91 1039.52 384.78 1039.43 384.681C1039.34 384.582 1039.22 384.52 1039.09 384.51C1038.96 384.507 1038.83 384.554 1038.73 384.641C1038.63 384.728 1038.57 384.85 1038.56 384.981C1038.32 388.717 1038.56 396.921 1038.56 397.002C1038.56 397.133 1038.62 397.256 1038.72 397.346C1038.81 397.436 1038.94 397.485 1039.07 397.482Z" fill="white"/>
<path d="M1033.62 364.105C1033.74 364.108 1033.85 364.071 1033.94 364.002C1034.03 363.933 1034.09 363.834 1034.12 363.724L1041.08 333.722C1041.1 333.658 1041.1 333.591 1041.09 333.526C1041.08 333.461 1041.05 333.398 1041.02 333.342C1040.98 333.286 1040.93 333.238 1040.88 333.2C1040.83 333.162 1040.76 333.135 1040.7 333.121C1040.57 333.094 1040.44 333.117 1040.32 333.186C1040.21 333.255 1040.13 333.364 1040.1 333.492L1033.13 363.494C1033.12 363.558 1033.11 363.625 1033.13 363.69C1033.14 363.755 1033.16 363.818 1033.2 363.874C1033.23 363.929 1033.28 363.978 1033.33 364.016C1033.39 364.054 1033.45 364.08 1033.51 364.095L1033.62 364.105Z" fill="#4E5666"/>
<path d="M1088.64 362.071H1088.7C1088.83 362.056 1088.95 361.99 1089.03 361.887C1089.12 361.783 1089.15 361.652 1089.14 361.52L1085.44 328.924C1085.43 328.791 1085.36 328.669 1085.26 328.586C1085.15 328.502 1085.02 328.464 1084.88 328.478C1084.75 328.493 1084.63 328.56 1084.54 328.664C1084.46 328.768 1084.42 328.901 1084.44 329.034L1088.13 361.6C1088.14 361.727 1088.2 361.846 1088.29 361.933C1088.39 362.02 1088.51 362.069 1088.64 362.071Z" fill="#4E5666"/>
<path d="M1075.81 317.765C1075.81 317.765 1087.77 317.765 1091.02 320.269V323.755C1091.02 323.755 1079.48 320.139 1075.81 321.05V317.765Z" fill="#4E5666"/>
<path d="M1091.02 324.256C1091.12 324.257 1091.23 324.221 1091.31 324.156C1091.37 324.11 1091.43 324.05 1091.46 323.98C1091.5 323.91 1091.51 323.833 1091.51 323.755V320.269C1091.51 320.194 1091.49 320.12 1091.46 320.052C1091.43 319.985 1091.38 319.925 1091.32 319.878C1087.98 317.294 1076.31 317.264 1075.81 317.264C1075.68 317.264 1075.55 317.316 1075.46 317.41C1075.36 317.504 1075.31 317.632 1075.31 317.765V321.05C1075.31 321.127 1075.33 321.203 1075.36 321.272C1075.39 321.342 1075.44 321.403 1075.5 321.451C1075.56 321.495 1075.63 321.526 1075.71 321.542C1075.78 321.557 1075.86 321.557 1075.93 321.541C1079.42 320.66 1090.75 324.196 1090.87 324.236L1091.02 324.256ZM1090.52 320.529V323.084C1088.13 322.373 1080 320.079 1076.31 320.459V318.265C1078.54 318.305 1087.58 318.566 1090.52 320.529Z" fill="#4E5666"/>
<path d="M1052.22 318.286L1052.89 320.76C1052.89 320.76 1041.56 321.611 1037.11 324.506L1036.23 321.391C1036.23 321.391 1045.06 317.184 1052.22 318.286Z" fill="#4E5666"/>
<path d="M1037.11 325.007C1037.21 325.005 1037.3 324.978 1037.38 324.927C1041.67 322.132 1052.81 321.271 1052.93 321.261C1053 321.254 1053.07 321.232 1053.14 321.195C1053.2 321.159 1053.26 321.11 1053.3 321.05C1053.34 320.989 1053.37 320.92 1053.38 320.848C1053.39 320.775 1053.39 320.701 1053.37 320.63L1052.7 318.155C1052.67 318.062 1052.62 317.978 1052.55 317.912C1052.48 317.847 1052.39 317.802 1052.3 317.785C1045.06 316.673 1036.38 320.79 1036.02 320.94C1035.91 320.992 1035.82 321.079 1035.77 321.187C1035.72 321.295 1035.71 321.417 1035.74 321.531L1036.63 324.647C1036.65 324.722 1036.69 324.791 1036.74 324.848C1036.79 324.906 1036.86 324.95 1036.93 324.977C1036.99 324.997 1037.05 325.007 1037.11 325.007ZM1052.25 320.319C1049.92 320.53 1041.61 321.421 1037.41 323.745L1036.83 321.672C1038.56 320.91 1045.79 317.945 1051.82 318.726L1052.25 320.319Z" fill="#4E5666"/>
<path d="M913.375 428.697C913.888 428.697 914.38 428.697 914.913 428.697C918.139 428.546 921.948 427.314 922.742 424.209C923.104 424.619 923.486 425.01 923.868 425.401L1022.74 344.11C1023.16 343.765 1023.42 343.267 1023.48 342.727C1023.53 342.187 1023.36 341.649 1023.02 341.23C1022.67 340.812 1022.17 340.548 1021.63 340.496C1021.09 340.444 1020.55 340.609 1020.13 340.955L913.375 428.697Z" fill="white"/>
<path d="M913.798 429.198H914.934C918.059 429.047 921.657 427.905 922.974 425.191L923.546 425.792C923.641 425.873 923.763 425.918 923.888 425.918C924.014 425.918 924.135 425.873 924.23 425.792L1023.15 344.521C1023.67 344.086 1024 343.466 1024.06 342.793C1024.13 342.12 1023.92 341.449 1023.49 340.925C1023.28 340.668 1023.02 340.455 1022.73 340.299C1022.43 340.142 1022.11 340.045 1021.78 340.013C1021.1 339.951 1020.42 340.156 1019.9 340.584L913.094 428.326C913.019 428.393 912.965 428.481 912.939 428.579C912.914 428.677 912.918 428.78 912.951 428.876C912.985 428.971 913.046 429.054 913.127 429.115C913.207 429.176 913.305 429.212 913.406 429.218L913.798 429.198ZM922.742 423.688H922.632C922.542 423.708 922.46 423.752 922.394 423.816C922.329 423.879 922.282 423.96 922.26 424.049C921.496 426.864 917.959 428.056 914.893 428.166H914.793L1020.5 341.346C1020.66 341.213 1020.84 341.114 1021.04 341.054C1021.23 340.993 1021.44 340.973 1021.64 340.995C1021.84 341.015 1022.03 341.075 1022.2 341.169C1022.38 341.264 1022.53 341.392 1022.65 341.546C1022.78 341.701 1022.88 341.881 1022.94 342.075C1023 342.269 1023.02 342.472 1023.01 342.675C1022.99 342.877 1022.93 343.074 1022.83 343.253C1022.74 343.432 1022.61 343.591 1022.45 343.72L923.888 424.7C923.613 424.426 923.352 424.145 923.104 423.858C923.058 423.808 923.002 423.766 922.94 423.737C922.878 423.708 922.811 423.691 922.742 423.688Z" fill="#4E5666"/>
<path d="M1001.72 348.358C1002.34 348.137 1003.02 348.068 1003.68 348.157C1004.14 348.268 1004.58 348.461 1004.97 348.728C1005.97 349.344 1006.84 350.143 1007.53 351.082C1006.96 351.269 1006.44 351.596 1006.03 352.034C1006.71 352.801 1007.1 353.782 1007.12 354.806C1007.15 355.83 1006.82 356.831 1006.18 357.634C1005.34 358.499 1004.3 359.157 1003.16 359.557C1002.32 359.97 1001.4 360.222 1000.46 360.298C999.562 360.293 998.682 360.049 997.912 359.591C997.141 359.133 996.508 358.478 996.077 357.694C993.334 352.966 997.344 349.63 1001.72 348.358Z" fill="white"/>
<path d="M1000.33 360.799H1000.49C1001.49 360.719 1002.47 360.454 1003.37 360.018C1004.58 359.593 1005.67 358.893 1006.56 357.974C1007.23 357.146 1007.6 356.123 1007.63 355.061C1007.66 353.999 1007.34 352.957 1006.72 352.094C1007.02 351.867 1007.36 351.691 1007.72 351.573C1007.8 351.548 1007.87 351.506 1007.92 351.45C1007.98 351.395 1008.02 351.327 1008.05 351.253C1008.07 351.176 1008.07 351.096 1008.06 351.018C1008.04 350.94 1008.01 350.866 1007.97 350.802C1007.23 349.815 1006.32 348.975 1005.27 348.327C1004.82 348.026 1004.32 347.809 1003.8 347.686C1003.06 347.577 1002.31 347.649 1001.6 347.897C998.328 348.898 995.946 350.631 995.082 352.795C994.751 353.638 994.626 354.547 994.717 355.447C994.807 356.348 995.112 357.214 995.604 357.974C996.077 358.814 996.761 359.517 997.589 360.012C998.418 360.508 999.362 360.779 1000.33 360.799ZM1006.73 350.882C1006.33 351.088 1005.97 351.359 1005.66 351.683C1005.58 351.776 1005.53 351.9 1005.53 352.029C1005.53 352.158 1005.58 352.281 1005.66 352.374C1006.26 353.051 1006.61 353.916 1006.63 354.818C1006.66 355.721 1006.37 356.604 1005.81 357.313C1005.01 358.11 1004.05 358.719 1002.99 359.096C1002.2 359.481 1001.34 359.719 1000.46 359.797C999.654 359.781 998.868 359.556 998.179 359.143C997.489 358.73 996.92 358.144 996.529 357.443C996.108 356.819 995.84 356.105 995.746 355.359C995.652 354.613 995.734 353.855 995.986 353.146C996.73 351.303 998.931 349.69 1001.87 348.838C1002.41 348.639 1003 348.574 1003.58 348.648C1003.99 348.751 1004.37 348.921 1004.72 349.149C1005.47 349.627 1006.15 350.211 1006.73 350.882Z" fill="#4E5666"/>
<path d="M1167.53 429.228L1187.8 430.64L1246.31 459.68L1210.99 478.403L1167.53 442.08V429.228Z" fill="white"/>
<path d="M1210.98 478.913C1211.06 478.914 1211.14 478.893 1211.22 478.853L1246.54 460.151C1246.63 460.108 1246.69 460.043 1246.74 459.964C1246.79 459.884 1246.82 459.793 1246.81 459.7C1246.81 459.608 1246.79 459.517 1246.74 459.439C1246.69 459.361 1246.62 459.299 1246.53 459.259L1188.02 430.209C1187.96 430.177 1187.9 430.16 1187.83 430.159L1167.56 428.747C1167.49 428.743 1167.42 428.752 1167.36 428.775C1167.3 428.797 1167.24 428.832 1167.19 428.877C1167.14 428.921 1167.09 428.977 1167.07 429.039C1167.04 429.102 1167.03 429.169 1167.03 429.238V442.12C1167.03 442.192 1167.04 442.263 1167.07 442.329C1167.1 442.395 1167.14 442.453 1167.2 442.5L1210.67 478.793C1210.76 478.865 1210.87 478.907 1210.98 478.913ZM1245.22 459.7L1211.05 477.811L1168.03 441.839V429.758L1187.67 431.101L1245.22 459.7Z" fill="#4E5666"/>
<path d="M957.857 336.207C957.857 336.207 1025.81 373.271 1070.78 382.346C1134.73 395.269 1204.44 391.262 1204.44 391.262L1186.06 423.207C1156.26 428.71 1126.07 431.865 1095.77 432.643C1062.14 433.425 1014.37 432.713 1014.37 432.713C1014.37 432.713 976.801 411.316 963.384 375.615C949.967 339.913 957.857 336.207 957.857 336.207Z" fill="white"/>
<path d="M1057.54 433.515C1070.28 433.515 1083.97 433.425 1095.84 433.144C1126.17 432.34 1156.38 429.182 1186.21 423.698C1186.28 423.683 1186.35 423.653 1186.41 423.609C1186.46 423.566 1186.51 423.511 1186.54 423.448L1204.94 391.512C1204.98 391.434 1205 391.346 1205 391.257C1205 391.167 1204.98 391.079 1204.94 391.001C1204.89 390.921 1204.82 390.856 1204.74 390.814C1204.66 390.771 1204.57 390.753 1204.47 390.761C1203.78 390.761 1134.04 394.618 1070.89 381.856C1026.51 372.84 958.781 336.137 958.108 335.776C958.036 335.741 957.957 335.723 957.877 335.723C957.797 335.723 957.718 335.741 957.645 335.776C957.314 335.946 949.605 340.174 962.982 375.845C976.308 411.267 1013.81 432.944 1014.24 433.164C1014.31 433.203 1014.39 433.224 1014.48 433.224C1014.7 433.224 1034.57 433.515 1057.54 433.515ZM1185.79 422.756C1156.08 428.182 1126 431.306 1095.81 432.103C1063.43 432.854 1017.42 432.223 1014.57 432.183C1012.31 430.85 976.751 409.574 963.917 375.445C952.208 344.321 956.882 337.739 957.887 336.768C962.761 339.392 1027.62 374.092 1070.67 382.797C1129.96 394.818 1195.11 392.174 1203.59 391.813L1185.79 422.756Z" fill="#4E5666"/>
<path d="M940.188 341.115C938.005 342.901 936.303 345.201 935.237 347.807C934.17 350.413 933.771 353.243 934.078 356.041C934.078 356.041 947.776 385.782 960.319 403.443C974.027 422.766 983.645 428.376 988.79 430.49C991.897 431.764 995.195 432.516 998.549 432.714C998.549 432.714 943.545 370.085 940.188 341.115Z" fill="white"/>
<path d="M998.55 433.214C998.645 433.214 998.739 433.188 998.82 433.139C998.902 433.089 998.968 433.018 999.012 432.934C999.051 432.844 999.064 432.744 999.05 432.647C999.036 432.55 998.995 432.458 998.932 432.383C998.379 431.762 943.988 369.544 940.692 341.055C940.683 340.967 940.651 340.883 940.598 340.813C940.544 340.742 940.473 340.687 940.39 340.654C940.311 340.62 940.224 340.606 940.138 340.615C940.051 340.624 939.969 340.655 939.898 340.705C937.655 342.553 935.905 344.924 934.802 347.608C933.699 350.292 933.278 353.206 933.576 356.091C933.583 356.147 933.6 356.202 933.627 356.251C933.757 356.552 947.476 386.233 959.907 403.734C970.158 418.178 979.817 427.334 988.6 430.951C991.763 432.255 995.123 433.021 998.54 433.214H998.55ZM939.818 342.057C941.606 354.198 951.878 373.03 970.229 398.044C982.289 414.492 994.228 428.456 997.364 432.103C994.482 431.801 991.657 431.096 988.972 430.009C980.369 426.463 970.882 417.427 960.711 403.132C948.651 386.103 935.345 357.584 934.581 355.891C934.326 353.343 934.666 350.771 935.575 348.377C936.483 345.982 937.935 343.829 939.818 342.087V342.057Z" fill="#4E5666"/>
<path d="M951.666 331.929L957.856 336.167C957.856 336.167 966.379 366.218 974.178 380.673C989.835 409.794 1014.43 432.673 1014.43 432.673L1010.41 434.456C1010.41 434.456 975.504 403.743 963.444 382.346C951.384 360.949 951.666 331.929 951.666 331.929Z" fill="white"/>
<path d="M1010.41 434.997C1010.48 435.011 1010.54 435.011 1010.61 434.997L1014.63 433.214C1014.71 433.183 1014.77 433.132 1014.82 433.067C1014.88 433.002 1014.91 432.925 1014.92 432.844C1014.94 432.762 1014.93 432.678 1014.9 432.599C1014.88 432.521 1014.83 432.45 1014.77 432.393C1014.53 432.162 990.058 409.223 974.621 380.513C966.943 366.228 958.42 336.437 958.34 336.116C958.311 336.001 958.239 335.901 958.139 335.836L951.958 331.599C951.878 331.555 951.788 331.532 951.697 331.532C951.605 331.532 951.515 331.555 951.435 331.599C951.356 331.642 951.289 331.706 951.241 331.783C951.193 331.86 951.167 331.949 951.164 332.039C951.164 332.33 951.003 361.39 963.013 382.657C975.023 403.924 1009.73 434.637 1010.07 434.947C1010.17 435.001 1010.29 435.018 1010.41 434.997ZM1013.54 432.563L1010.53 433.915C1007.41 431.141 975.284 402.251 963.918 382.096C953.264 363.223 952.29 338.1 952.209 332.931L957.415 336.517C958.129 339.001 966.299 367.14 973.726 380.944C987.957 407.41 1009.82 428.987 1013.54 432.563Z" fill="#4E5666"/>
<path d="M1010.41 434.496C1010.41 434.496 988.419 414.462 973.284 386.133C960.118 361.5 951.666 331.969 951.666 331.969L934.078 333.752C934.078 333.752 944.812 370.606 963.002 396.46C981.193 422.315 998.177 433.945 998.177 433.945L1010.41 434.496Z" fill="white"/>
<path d="M1010.41 434.997C1010.51 434.996 1010.61 434.964 1010.69 434.907C1010.77 434.849 1010.84 434.768 1010.87 434.674C1010.91 434.58 1010.91 434.477 1010.89 434.38C1010.87 434.282 1010.81 434.193 1010.74 434.126C1010.52 433.935 988.63 413.801 973.726 385.902C960.741 361.6 952.239 332.129 952.148 331.809C952.118 331.695 952.047 331.596 951.949 331.53C951.851 331.463 951.733 331.434 951.616 331.448L934.028 333.231C933.954 333.236 933.883 333.258 933.82 333.297C933.757 333.335 933.704 333.388 933.666 333.452C933.623 333.51 933.594 333.577 933.582 333.649C933.57 333.72 933.574 333.793 933.596 333.862C933.706 334.233 944.56 371.097 962.59 396.721C980.62 422.345 997.765 434.206 997.936 434.326C998.014 434.378 998.104 434.409 998.197 434.416L1010.38 434.967L1010.41 434.997ZM951.304 332.51C952.369 336.146 960.63 363.564 972.841 386.373C986.027 411.066 1004.65 429.658 1009.08 433.935L998.388 433.444C996.861 432.373 980.55 420.542 963.404 396.17C946.711 372.439 936.189 338.981 934.732 334.193L951.304 332.51Z" fill="#4E5666"/>
<path d="M1151.87 399.546C1167.37 399.636 1182.86 398.947 1198.29 397.482C1198.42 397.467 1198.55 397.401 1198.63 397.298C1198.71 397.194 1198.75 397.063 1198.74 396.931C1198.73 396.865 1198.71 396.801 1198.68 396.742C1198.65 396.684 1198.61 396.632 1198.56 396.591C1198.5 396.549 1198.44 396.519 1198.38 396.502C1198.32 396.485 1198.25 396.481 1198.18 396.491C1197.85 396.491 1164.11 400.247 1119.16 397.582C1077.69 395.138 1017.93 386.563 968.711 359.867C968.653 359.826 968.588 359.798 968.518 359.785C968.449 359.771 968.377 359.772 968.308 359.788C968.239 359.803 968.174 359.833 968.118 359.876C968.061 359.918 968.014 359.972 967.98 360.034C967.946 360.096 967.925 360.164 967.92 360.234C967.914 360.304 967.923 360.375 967.946 360.442C967.97 360.508 968.007 360.569 968.056 360.62C968.104 360.672 968.163 360.712 968.229 360.739C1017.61 387.575 1077.54 396.13 1119.12 398.584C1130.95 399.285 1142 399.546 1151.87 399.546Z" fill="#D0D3D9"/>
<path d="M1130.14 410.485C1150.39 410.553 1170.62 409.57 1190.76 407.54C1190.82 407.532 1190.89 407.511 1190.94 407.479C1191 407.446 1191.05 407.403 1191.09 407.351C1191.13 407.299 1191.16 407.239 1191.18 407.175C1191.2 407.111 1191.21 407.045 1191.2 406.979C1191.19 406.913 1191.17 406.85 1191.14 406.792C1191.1 406.734 1191.06 406.683 1191.01 406.642C1190.96 406.601 1190.9 406.571 1190.83 406.553C1190.77 406.535 1190.7 406.53 1190.63 406.538C1166.57 408.935 1142.39 409.882 1118.21 409.373C1080.44 408.642 1026.36 403.934 983.233 385.642C983.173 385.616 983.108 385.602 983.043 385.6C982.977 385.599 982.912 385.611 982.851 385.635C982.791 385.66 982.735 385.696 982.689 385.742C982.642 385.788 982.605 385.842 982.58 385.902C982.553 385.963 982.539 386.028 982.537 386.094C982.536 386.16 982.548 386.226 982.572 386.287C982.597 386.349 982.633 386.405 982.679 386.452C982.725 386.5 982.78 386.537 982.841 386.564C1026.12 404.915 1080.33 409.603 1118.2 410.375C1122.29 410.455 1126.25 410.485 1130.14 410.485Z" fill="#D0D3D9"/>
<path d="M1100.12 422.536C1129 422.595 1157.83 420.493 1186.38 416.245C1186.45 416.234 1186.51 416.21 1186.57 416.175C1186.62 416.14 1186.67 416.094 1186.71 416.04C1186.75 415.986 1186.78 415.925 1186.79 415.861C1186.81 415.796 1186.81 415.729 1186.8 415.664C1186.79 415.599 1186.76 415.537 1186.73 415.481C1186.7 415.425 1186.65 415.377 1186.6 415.338C1186.54 415.3 1186.48 415.273 1186.42 415.258C1186.35 415.244 1186.29 415.242 1186.22 415.253C1185.22 415.424 1085.83 431.962 1000.05 410.696C999.983 410.679 999.916 410.675 999.851 410.684C999.785 410.693 999.722 410.715 999.665 410.749C999.608 410.782 999.559 410.827 999.519 410.88C999.479 410.932 999.45 410.992 999.434 411.056C999.417 411.121 999.414 411.188 999.424 411.254C999.434 411.319 999.457 411.383 999.491 411.439C999.526 411.496 999.571 411.546 999.625 411.585C999.679 411.624 999.741 411.652 999.806 411.667C1033.44 419.992 1069.12 422.536 1100.12 422.536Z" fill="#D0D3D9"/>
<path d="M942.25 368.432C942.325 368.433 942.4 368.416 942.468 368.383C942.536 368.35 942.595 368.302 942.642 368.242L944.903 365.427C944.944 365.376 944.975 365.317 944.994 365.254C945.013 365.19 945.019 365.124 945.012 365.058C945.005 364.993 944.985 364.929 944.953 364.871C944.922 364.813 944.879 364.762 944.827 364.721C944.776 364.679 944.717 364.649 944.653 364.63C944.59 364.611 944.523 364.605 944.458 364.612C944.392 364.619 944.328 364.639 944.27 364.671C944.212 364.702 944.16 364.745 944.119 364.796L941.858 367.621C941.775 367.725 941.738 367.857 941.753 367.988C941.768 368.119 941.835 368.239 941.938 368.322C942.027 368.392 942.136 368.431 942.25 368.432Z" fill="#D0D3D9"/>
<path d="M954.601 392.594C954.673 392.593 954.744 392.578 954.81 392.549C954.875 392.519 954.934 392.477 954.983 392.424L956.993 390.17C957.04 390.124 957.077 390.069 957.102 390.009C957.128 389.949 957.141 389.884 957.141 389.819C957.141 389.754 957.128 389.689 957.102 389.629C957.077 389.569 957.04 389.514 956.993 389.468C956.946 389.422 956.891 389.384 956.829 389.359C956.768 389.333 956.702 389.32 956.636 389.32C956.57 389.32 956.504 389.333 956.443 389.359C956.382 389.384 956.326 389.422 956.279 389.468L954.269 391.732C954.222 391.778 954.185 391.833 954.16 391.893C954.135 391.953 954.121 392.018 954.121 392.083C954.121 392.148 954.135 392.213 954.16 392.273C954.185 392.333 954.222 392.388 954.269 392.434C954.311 392.482 954.361 392.521 954.418 392.548C954.475 392.576 954.538 392.591 954.601 392.594Z" fill="#D0D3D9"/>
<path d="M970.359 412.488C971.033 412.496 971.706 412.442 972.369 412.328C972.434 412.315 972.496 412.289 972.55 412.252C972.605 412.215 972.652 412.168 972.688 412.113C972.725 412.058 972.75 411.997 972.762 411.932C972.775 411.868 972.775 411.801 972.761 411.737C972.751 411.672 972.727 411.61 972.691 411.555C972.656 411.5 972.609 411.453 972.555 411.416C972.5 411.379 972.438 411.354 972.374 411.342C972.309 411.33 972.243 411.332 972.178 411.346C970.986 411.53 969.773 411.53 968.58 411.346C968.515 411.336 968.447 411.338 968.382 411.354C968.317 411.369 968.256 411.397 968.202 411.436C968.147 411.475 968.102 411.525 968.067 411.581C968.032 411.638 968.008 411.701 967.998 411.767C967.987 411.833 967.99 411.9 968.005 411.965C968.021 412.029 968.049 412.091 968.088 412.145C968.127 412.199 968.177 412.244 968.234 412.279C968.29 412.314 968.354 412.337 968.42 412.348C969.061 412.447 969.71 412.494 970.359 412.488Z" fill="#D0D3D9"/>
<path d="M1204.49 391.262H1209.56L1190.87 423.027L1186.11 423.207L1204.49 391.262Z" fill="white"/>
<path d="M1186.11 423.707L1190.87 423.527C1190.95 423.524 1191.03 423.5 1191.1 423.456C1191.18 423.412 1191.24 423.35 1191.28 423.277L1209.97 391.512C1210.01 391.436 1210.04 391.349 1210.04 391.261C1210.04 391.173 1210.01 391.087 1209.97 391.011C1209.93 390.935 1209.86 390.872 1209.79 390.828C1209.71 390.784 1209.63 390.761 1209.54 390.76H1204.51C1204.43 390.761 1204.34 390.784 1204.26 390.828C1204.19 390.872 1204.13 390.935 1204.08 391.011L1185.69 422.956C1185.64 423.031 1185.62 423.118 1185.62 423.207C1185.62 423.295 1185.64 423.382 1185.69 423.457C1185.73 423.531 1185.79 423.593 1185.87 423.637C1185.94 423.681 1186.03 423.705 1186.11 423.707ZM1190.57 422.535L1187 422.666L1204.78 391.762H1208.66L1190.57 422.535Z" fill="#4E5666"/>
<path d="M1041.1 347.613L1041.11 347.605C1041.72 346.656 1042.99 346.383 1043.94 346.994L1200.84 447.78C1201.79 448.391 1202.07 449.656 1201.46 450.605L1201.45 450.613C1200.84 451.562 1199.57 451.835 1198.62 451.224L1041.72 350.438C1040.77 349.827 1040.49 348.562 1041.1 347.613Z" fill="white"/>
<path d="M1199.7 452.057C1199.88 452.057 1200.06 452.036 1200.24 451.997C1200.91 451.853 1201.49 451.453 1201.86 450.885C1202.04 450.602 1202.17 450.287 1202.22 449.957C1202.28 449.627 1202.28 449.289 1202.2 448.961C1202.13 448.633 1202 448.323 1201.81 448.047C1201.62 447.772 1201.37 447.538 1201.09 447.359L1044.21 346.574C1043.93 346.392 1043.61 346.268 1043.28 346.207C1042.95 346.147 1042.61 346.153 1042.29 346.224C1041.79 346.332 1041.34 346.583 1040.99 346.946C1040.64 347.309 1040.41 347.767 1040.32 348.263C1040.23 348.758 1040.28 349.27 1040.49 349.732C1040.69 350.195 1041.02 350.588 1041.44 350.862L1198.32 451.646C1198.73 451.914 1199.21 452.056 1199.7 452.057ZM1042.84 347.165C1043.14 347.168 1043.43 347.255 1043.67 347.416L1200.54 448.2C1200.72 448.312 1200.87 448.459 1200.99 448.631C1201.11 448.803 1201.19 448.998 1201.23 449.202C1201.31 449.606 1201.23 450.028 1201.01 450.374C1200.9 450.544 1200.75 450.691 1200.59 450.807C1200.42 450.922 1200.23 451.004 1200.03 451.047C1199.83 451.089 1199.63 451.093 1199.43 451.056C1199.23 451.02 1199.04 450.945 1198.87 450.835L1041.99 350.05C1041.81 349.937 1041.66 349.79 1041.54 349.618C1041.43 349.446 1041.34 349.253 1041.3 349.049C1041.26 348.85 1041.26 348.645 1041.3 348.446C1041.33 348.246 1041.41 348.056 1041.52 347.887C1041.63 347.71 1041.78 347.559 1041.95 347.444C1042.13 347.328 1042.32 347.25 1042.53 347.215C1042.63 347.186 1042.73 347.169 1042.84 347.165Z" fill="#4E5666"/>
<path d="M1102.68 369.123C1102.68 369.123 1081.21 361.249 1077.34 360.107C1073.47 358.965 1064.77 358.104 1062.81 360.999C1060.85 363.894 1061.55 368.011 1062.81 369.013C1064.06 370.015 1070.85 374.953 1072.11 372.879C1073.13 370.914 1073.98 368.871 1074.66 366.769L1078.35 369.143L1098.54 382.115" fill="white"/>
<path d="M1098.54 382.577C1098.65 382.579 1098.75 382.545 1098.84 382.481C1098.93 382.417 1098.99 382.326 1099.03 382.222C1099.06 382.118 1099.06 382.006 1099.02 381.904C1098.98 381.801 1098.91 381.714 1098.82 381.655L1074.93 366.309C1074.86 366.276 1074.78 366.26 1074.71 366.26C1074.63 366.26 1074.56 366.276 1074.49 366.309C1074.41 366.333 1074.35 366.374 1074.3 366.428C1074.24 366.482 1074.2 366.547 1074.18 366.619C1073.51 368.686 1072.67 370.696 1071.68 372.629C1071.64 372.699 1071.59 372.758 1071.52 372.802C1071.45 372.845 1071.37 372.872 1071.29 372.88C1069.5 373.17 1064.74 369.965 1063.13 368.633C1062.07 367.751 1061.45 363.874 1063.23 361.28C1065.01 358.685 1073.36 359.417 1077.19 360.589C1081.02 361.761 1102.32 369.604 1102.51 369.604C1102.63 369.649 1102.77 369.643 1102.89 369.587C1103.01 369.53 1103.1 369.429 1103.15 369.304C1103.17 369.242 1103.18 369.176 1103.18 369.11C1103.18 369.044 1103.16 368.979 1103.14 368.919C1103.11 368.859 1103.07 368.806 1103.02 368.762C1102.97 368.717 1102.91 368.684 1102.85 368.663C1102.64 368.582 1081.33 360.769 1077.48 359.587C1074.12 358.585 1064.67 357.363 1062.41 360.679C1060.33 363.684 1060.98 368.102 1062.5 369.364C1062.56 369.364 1068.8 374.302 1071.47 373.822C1071.7 373.788 1071.91 373.706 1072.1 373.582C1072.29 373.457 1072.45 373.293 1072.57 373.1C1073.51 371.305 1074.3 369.435 1074.94 367.511L1098.28 382.537C1098.36 382.57 1098.45 382.584 1098.54 382.577Z" fill="#4E5666"/>
<path d="M1025.7 443.252C1031.73 443.252 1039.1 441.756 1047.81 438.764C1054.97 436.249 1061.93 433.198 1068.63 429.638C1070.73 430.72 1084.96 437.832 1094.76 437.161C1098.98 436.871 1111.49 431.391 1114.74 427.525C1125.74 433.256 1137.73 436.849 1150.08 438.113C1150.15 438.12 1150.22 438.113 1150.28 438.094C1150.34 438.075 1150.4 438.044 1150.45 438.002C1150.5 437.96 1150.54 437.908 1150.57 437.85C1150.6 437.791 1150.62 437.728 1150.63 437.662C1150.64 437.531 1150.6 437.399 1150.52 437.296C1150.44 437.193 1150.32 437.126 1150.18 437.111C1137.81 435.866 1125.79 432.258 1114.78 426.483C1114.67 426.427 1114.54 426.413 1114.43 426.442C1114.31 426.472 1114.2 426.543 1114.13 426.643C1111.74 430.029 1099.13 435.889 1094.64 436.2C1084.59 436.901 1069 428.757 1068.84 428.667C1068.76 428.63 1068.68 428.61 1068.6 428.61C1068.51 428.61 1068.43 428.63 1068.36 428.667C1061.63 432.254 1054.65 435.325 1047.45 437.852C1037.03 441.449 1022.85 444.684 1014.41 439.646C1014.35 439.61 1014.29 439.585 1014.22 439.575C1014.16 439.564 1014.09 439.566 1014.02 439.582C1013.96 439.598 1013.9 439.627 1013.85 439.667C1013.79 439.707 1013.75 439.758 1013.71 439.816C1013.68 439.872 1013.66 439.935 1013.65 440C1013.64 440.066 1013.64 440.133 1013.66 440.197C1013.67 440.261 1013.7 440.322 1013.74 440.375C1013.78 440.428 1013.83 440.473 1013.89 440.507C1017.5 442.468 1021.59 443.416 1025.7 443.252Z" fill="#D0D3D9"/>
<path d="M968.922 435.839C968.988 435.851 969.056 435.849 969.122 435.835C969.187 435.821 969.249 435.794 969.304 435.756C969.359 435.718 969.406 435.669 969.442 435.613C969.479 435.557 969.503 435.494 969.515 435.428C969.527 435.362 969.526 435.295 969.512 435.23C969.497 435.164 969.47 435.102 969.432 435.048C969.394 434.993 969.345 434.946 969.289 434.91C969.232 434.874 969.169 434.849 969.103 434.837L956.41 429.929C955.377 429.32 954.18 429.047 952.984 429.147C951.788 429.248 950.653 429.717 949.737 430.49L949.255 430.79C938.36 437.381 928.15 428.957 924.23 425.03C923.848 424.649 923.476 424.259 923.125 423.858C923.064 423.791 922.986 423.741 922.9 423.713C922.813 423.685 922.721 423.68 922.632 423.698C922.543 423.717 922.46 423.762 922.395 423.825C922.329 423.889 922.282 423.97 922.26 424.058C921.496 426.873 917.959 428.065 914.894 428.176C914.391 428.176 913.889 428.176 913.386 428.176C907.149 428.078 901.129 425.882 896.301 421.945C896.198 421.877 896.074 421.849 895.952 421.866C895.83 421.884 895.718 421.945 895.639 422.039C895.559 422.133 895.517 422.253 895.521 422.376C895.524 422.499 895.573 422.617 895.658 422.706C900.638 426.829 906.892 429.115 913.366 429.177C913.889 429.177 914.371 429.177 914.934 429.177C918.059 429.027 921.657 427.885 922.974 425.17L923.547 425.771C932.139 434.436 941.717 436.59 949.817 431.682L950.31 431.381C951.095 430.696 952.08 430.28 953.12 430.193C954.16 430.107 955.2 430.355 956.089 430.9L968.782 435.839C968.828 435.847 968.876 435.847 968.922 435.839Z" fill="#D0D3D9"/>
<path d="M1021.42 456.775C1024.84 456.778 1028.24 456.412 1031.57 455.683C1031.64 455.669 1031.7 455.641 1031.76 455.603C1031.81 455.564 1031.86 455.515 1031.9 455.458C1031.93 455.402 1031.96 455.338 1031.97 455.272C1031.98 455.206 1031.98 455.138 1031.97 455.072C1031.95 455.006 1031.92 454.944 1031.88 454.889C1031.85 454.833 1031.8 454.786 1031.74 454.75C1031.68 454.714 1031.62 454.689 1031.55 454.677C1031.49 454.665 1031.42 454.667 1031.35 454.681C1025.07 456.032 1018.57 456.105 1012.26 454.895C1005.94 453.685 999.935 451.217 994.6 447.639C993.917 447.058 993.055 446.729 992.157 446.708C991.401 446.829 990.699 447.179 990.147 447.709L990.037 447.799C985.012 451.806 977.816 453.018 967.927 451.516C963.233 450.797 958.605 449.701 954.088 448.24C953.961 448.199 953.824 448.21 953.705 448.27C953.586 448.33 953.496 448.435 953.455 448.561C953.414 448.687 953.424 448.824 953.485 448.943C953.545 449.061 953.65 449.151 953.777 449.192C958.346 450.668 963.028 451.773 967.776 452.498C977.967 454.06 985.454 452.768 990.67 448.581L990.791 448.491C991.187 448.085 991.694 447.803 992.248 447.679C992.909 447.733 993.536 447.997 994.037 448.43C1002.12 453.875 1011.66 456.781 1021.42 456.775Z" fill="#D0D3D9"/>
<path d="M1102.84 458.338C1106.15 458.337 1109.45 458.048 1112.71 457.476C1118.74 456.415 1122.92 454.391 1125.55 451.306C1134.59 456.404 1145.07 458.35 1155.34 456.835C1155.41 456.827 1155.47 456.805 1155.53 456.771C1155.58 456.738 1155.63 456.693 1155.67 456.64C1155.71 456.586 1155.74 456.526 1155.76 456.461C1155.77 456.397 1155.77 456.33 1155.76 456.264C1155.75 456.199 1155.73 456.137 1155.69 456.08C1155.66 456.024 1155.62 455.975 1155.56 455.935C1155.51 455.896 1155.45 455.868 1155.38 455.852C1155.32 455.837 1155.25 455.834 1155.19 455.844C1145 457.35 1134.6 455.369 1125.68 450.224C1125.58 450.164 1125.46 450.143 1125.34 450.165C1125.22 450.187 1125.11 450.251 1125.04 450.344C1122.59 453.419 1118.5 455.433 1112.54 456.485C1103.59 458.063 1094.39 457.441 1085.73 454.672C1085.67 454.65 1085.6 454.641 1085.54 454.645C1085.47 454.65 1085.41 454.667 1085.35 454.697C1085.29 454.727 1085.24 454.769 1085.19 454.82C1085.15 454.87 1085.12 454.929 1085.1 454.992C1085.06 455.118 1085.07 455.256 1085.13 455.374C1085.19 455.492 1085.29 455.582 1085.42 455.623C1091.05 457.424 1096.93 458.34 1102.84 458.338Z" fill="#D0D3D9"/>
<path d="M1060.79 460.07C1062.14 460.071 1063.49 459.936 1064.81 459.67C1064.94 459.641 1065.05 459.562 1065.13 459.449C1065.2 459.337 1065.23 459.2 1065.2 459.069C1065.17 458.94 1065.09 458.828 1064.98 458.757C1064.87 458.686 1064.74 458.661 1064.61 458.688C1061.46 459.285 1058.21 459.123 1055.14 458.215C1052.06 457.308 1049.25 455.68 1046.94 453.469C1046.89 453.421 1046.84 453.383 1046.78 453.357C1046.72 453.331 1046.65 453.317 1046.59 453.317C1046.52 453.317 1046.46 453.331 1046.4 453.357C1046.34 453.383 1046.28 453.421 1046.24 453.469C1046.19 453.515 1046.15 453.571 1046.13 453.632C1046.1 453.693 1046.09 453.758 1046.09 453.825C1046.09 453.891 1046.1 453.956 1046.13 454.017C1046.15 454.078 1046.19 454.134 1046.24 454.18C1050.13 457.962 1055.35 460.076 1060.79 460.07Z" fill="#D0D3D9"/>
<path d="M1226.92 428.866C1227.59 428.867 1228.26 428.827 1228.93 428.746C1228.99 428.739 1229.06 428.718 1229.11 428.686C1229.17 428.654 1229.22 428.61 1229.26 428.558C1229.31 428.506 1229.34 428.446 1229.35 428.382C1229.37 428.318 1229.38 428.251 1229.37 428.185C1229.36 428.12 1229.34 428.056 1229.31 427.999C1229.27 427.941 1229.23 427.891 1229.18 427.85C1229.13 427.81 1229.07 427.781 1229 427.765C1228.94 427.748 1228.87 427.745 1228.81 427.754C1226.43 428.018 1224.04 427.77 1221.77 427.029C1219.5 426.287 1217.42 425.069 1215.67 423.457C1215.26 422.98 1214.71 422.654 1214.09 422.535C1213.45 422.532 1212.82 422.752 1212.32 423.157C1210.03 424.62 1207.46 425.606 1204.78 426.055C1202.09 426.504 1199.34 426.408 1196.7 425.771C1196.63 425.754 1196.56 425.751 1196.5 425.76C1196.43 425.769 1196.37 425.791 1196.31 425.824C1196.26 425.858 1196.21 425.902 1196.17 425.955C1196.13 426.008 1196.1 426.068 1196.08 426.132C1196.05 426.262 1196.07 426.399 1196.14 426.513C1196.21 426.627 1196.32 426.71 1196.45 426.743C1199.23 427.413 1202.12 427.516 1204.94 427.046C1207.75 426.576 1210.45 425.543 1212.86 424.008C1213.18 423.739 1213.57 423.572 1213.99 423.527C1214.38 423.639 1214.73 423.858 1215 424.158C1218.24 427.162 1222.49 428.842 1226.92 428.866Z" fill="#D0D3D9"/>
<path d="M992.288 468.706C994.657 468.712 997.019 468.437 999.323 467.884C999.453 467.851 999.564 467.768 999.634 467.654C999.703 467.54 999.725 467.403 999.695 467.273C999.679 467.21 999.652 467.15 999.613 467.097C999.574 467.045 999.525 467 999.469 466.967C999.413 466.933 999.351 466.911 999.286 466.902C999.221 466.892 999.155 466.896 999.092 466.913C995.21 467.823 991.184 467.947 987.253 467.278C983.322 466.608 979.566 465.159 976.208 463.016C976.123 462.96 976.024 462.931 975.922 462.933C975.821 462.935 975.723 462.967 975.64 463.026C975.557 463.084 975.494 463.166 975.459 463.261C975.424 463.356 975.419 463.459 975.444 463.557C975.474 463.655 975.48 463.76 975.461 463.861C975.442 463.962 975.398 464.057 975.333 464.138C974.718 464.716 973.907 465.041 973.062 465.049C966.651 465.477 960.211 465.093 953.897 463.907C953.832 463.894 953.765 463.895 953.7 463.908C953.636 463.921 953.574 463.947 953.52 463.985C953.466 464.022 953.419 464.07 953.384 464.125C953.348 464.181 953.325 464.243 953.314 464.308C953.299 464.372 953.298 464.438 953.31 464.503C953.322 464.567 953.347 464.629 953.384 464.683C953.421 464.737 953.468 464.784 953.523 464.819C953.579 464.855 953.641 464.878 953.706 464.889C960.103 466.091 966.627 466.482 973.122 466.051C973.688 466.041 974.245 465.918 974.763 465.691C975.28 465.464 975.748 465.137 976.137 464.729C976.228 464.596 976.305 464.455 976.368 464.308C981.175 467.189 986.679 468.71 992.288 468.706Z" fill="#D0D3D9"/>
<path d="M1209.56 472.412C1209.64 472.415 1209.71 472.398 1209.78 472.362L1238.81 458.288C1238.87 458.26 1238.93 458.22 1238.97 458.171C1239.02 458.122 1239.05 458.064 1239.07 458.001C1239.1 457.939 1239.1 457.872 1239.1 457.806C1239.09 457.74 1239.08 457.675 1239.05 457.617C1239.02 457.557 1238.98 457.503 1238.93 457.459C1238.88 457.414 1238.83 457.38 1238.76 457.359C1238.7 457.337 1238.64 457.328 1238.57 457.333C1238.5 457.338 1238.44 457.356 1238.38 457.386L1209.33 471.41C1209.27 471.439 1209.22 471.48 1209.17 471.529C1209.13 471.578 1209.09 471.636 1209.07 471.698C1209.05 471.76 1209.04 471.826 1209.05 471.892C1209.05 471.958 1209.07 472.022 1209.1 472.082C1209.13 472.178 1209.19 472.263 1209.27 472.322C1209.36 472.381 1209.46 472.413 1209.56 472.412Z" fill="#D0D3D9"/>
<path d="M1188.76 471.24C1189.47 471.24 1190.17 471.24 1190.89 471.24C1191.02 471.24 1191.15 471.187 1191.24 471.093C1191.34 471 1191.39 470.872 1191.39 470.739C1191.39 470.606 1191.34 470.479 1191.24 470.385C1191.15 470.291 1191.02 470.238 1190.89 470.238C1181.75 470.556 1172.67 468.738 1164.36 464.929C1163.61 464.51 1162.77 464.254 1161.91 464.178C1161.29 464.203 1160.68 464.318 1160.09 464.519C1152.18 466.859 1143.79 467.094 1135.75 465.2C1135.69 465.183 1135.62 465.18 1135.55 465.19C1135.49 465.2 1135.42 465.222 1135.37 465.257C1135.31 465.291 1135.26 465.337 1135.22 465.391C1135.18 465.445 1135.15 465.506 1135.14 465.57C1135.11 465.699 1135.13 465.833 1135.2 465.945C1135.27 466.057 1135.38 466.138 1135.51 466.171C1143.69 468.105 1152.24 467.874 1160.3 465.5C1160.82 465.32 1161.35 465.212 1161.89 465.18C1162.6 465.251 1163.28 465.463 1163.9 465.801C1171.7 469.379 1180.17 471.234 1188.76 471.24Z" fill="#D0D3D9"/>
<circle r="30" transform="matrix(-1 0 0 1 1232 169)" fill="#F4F6F8"/>
<circle r="30" transform="matrix(-1 0 0 1 1152 169)" fill="#F4F6F8"/>
<circle r="38" transform="matrix(-1 0 0 1 1193 161)" fill="#F4F6F8"/>
<circle r="23.2895" transform="matrix(-1 0 0 1 1016.71 115.711)" fill="#F4F6F8"/>
<circle r="23.2895" transform="matrix(-1 0 0 1 954.605 115.711)" fill="#F4F6F8"/>
<circle r="29.5" transform="matrix(-1 0 0 1 986.435 109.5)" fill="#F4F6F8"/>
</g>
<defs>
<clipPath id="clip0_1923_16029">
<rect width="1366" height="540" fill="white" transform="matrix(-1 0 0 1 1366 0)"/>
</clipPath>
</defs>
</svg>
