<svg width="297" height="51" viewBox="0 0 297 51" fill="none" xmlns="http://www.w3.org/2000/svg">
<path d="M207.819 14.45V22.967H217.832V25.653H207.819V36.125H204.521V11.764H219.532V14.45H207.819Z" fill="white"/>
<path d="M225.861 11.084V36.125H222.835V11.084H225.861Z" fill="white"/>
<path d="M244.929 18.904V36.125H243.127C242.697 36.125 242.425 35.9153 242.311 35.496L242.073 33.643C241.325 34.4703 240.487 35.139 239.557 35.649C238.628 36.1477 237.563 36.397 236.361 36.397C235.421 36.397 234.588 36.244 233.862 35.938C233.148 35.6207 232.548 35.1787 232.06 34.612C231.573 34.0453 231.205 33.3597 230.955 32.555C230.717 31.7503 230.598 30.8607 230.598 29.886V18.904H233.624V29.886C233.624 31.1893 233.919 32.198 234.508 32.912C235.109 33.626 236.021 33.983 237.245 33.983C238.141 33.983 238.974 33.7733 239.744 33.354C240.526 32.9233 241.246 32.334 241.903 31.586V18.904H244.929Z" fill="white"/>
<path d="M263.871 36.125H260.964C260.715 36.125 260.516 36.0627 260.369 35.938C260.233 35.802 260.12 35.6547 260.029 35.496L255.694 28.747C255.649 28.9057 255.598 29.0643 255.541 29.223C255.496 29.3703 255.428 29.5063 255.337 29.631L251.325 35.496C251.212 35.6547 251.087 35.802 250.951 35.938C250.826 36.0627 250.651 36.125 250.424 36.125H247.721L253.756 27.285L247.959 18.904H250.866C251.115 18.904 251.297 18.9437 251.41 19.023C251.523 19.1023 251.625 19.2157 251.716 19.363L255.949 25.823C256.04 25.4943 256.181 25.177 256.374 24.871L260.08 19.431C260.182 19.2723 260.29 19.1477 260.403 19.057C260.528 18.955 260.675 18.904 260.845 18.904H263.633L257.836 27.132L263.871 36.125Z" fill="white"/>
<path d="M273.156 18.632C274.414 18.632 275.547 18.8417 276.556 19.261C277.565 19.6803 278.426 20.2753 279.14 21.046C279.854 21.8167 280.398 22.7517 280.772 23.851C281.157 24.939 281.35 26.1573 281.35 27.506C281.35 28.866 281.157 30.09 280.772 31.178C280.398 32.266 279.854 33.1953 279.14 33.966C278.426 34.7367 277.565 35.3317 276.556 35.751C275.547 36.159 274.414 36.363 273.156 36.363C271.887 36.363 270.742 36.159 269.722 35.751C268.713 35.3317 267.852 34.7367 267.138 33.966C266.424 33.1953 265.874 32.266 265.489 31.178C265.115 30.09 264.928 28.866 264.928 27.506C264.928 26.1573 265.115 24.939 265.489 23.851C265.874 22.7517 266.424 21.8167 267.138 21.046C267.852 20.2753 268.713 19.6803 269.722 19.261C270.742 18.8417 271.887 18.632 273.156 18.632ZM273.156 34C274.856 34 276.125 33.4333 276.964 32.3C277.803 31.1553 278.222 29.563 278.222 27.523C278.222 25.4717 277.803 23.8737 276.964 22.729C276.125 21.5843 274.856 21.012 273.156 21.012C272.295 21.012 271.541 21.1593 270.895 21.454C270.26 21.7487 269.728 22.1737 269.297 22.729C268.878 23.2843 268.56 23.97 268.345 24.786C268.141 25.5907 268.039 26.503 268.039 27.523C268.039 29.563 268.458 31.1553 269.297 32.3C270.147 33.4333 271.433 34 273.156 34Z" fill="white"/>
<path d="M295.218 21.743C295.082 21.9923 294.872 22.117 294.589 22.117C294.419 22.117 294.226 22.0547 294.011 21.93C293.796 21.8053 293.529 21.6693 293.212 21.522C292.906 21.3633 292.538 21.2217 292.107 21.097C291.676 20.961 291.166 20.893 290.577 20.893C290.067 20.893 289.608 20.961 289.2 21.097C288.792 21.2217 288.441 21.3973 288.146 21.624C287.863 21.8507 287.642 22.117 287.483 22.423C287.336 22.7177 287.262 23.0407 287.262 23.392C287.262 23.834 287.387 24.2023 287.636 24.497C287.897 24.7917 288.237 25.0467 288.656 25.262C289.075 25.4773 289.551 25.67 290.084 25.84C290.617 25.9987 291.161 26.1743 291.716 26.367C292.283 26.5483 292.832 26.7523 293.365 26.979C293.898 27.2057 294.374 27.489 294.793 27.829C295.212 28.169 295.547 28.5883 295.796 29.087C296.057 29.5743 296.187 30.1637 296.187 30.855C296.187 31.6483 296.045 32.385 295.762 33.065C295.479 33.7337 295.059 34.3173 294.504 34.816C293.949 35.3033 293.269 35.6887 292.464 35.972C291.659 36.2553 290.73 36.397 289.676 36.397C288.475 36.397 287.387 36.2043 286.412 35.819C285.437 35.4223 284.61 34.918 283.93 34.306L284.644 33.15C284.735 33.0027 284.842 32.8893 284.967 32.81C285.092 32.7307 285.25 32.691 285.443 32.691C285.647 32.691 285.862 32.7703 286.089 32.929C286.316 33.0877 286.588 33.2633 286.905 33.456C287.234 33.6487 287.63 33.8243 288.095 33.983C288.56 34.1417 289.138 34.221 289.829 34.221C290.418 34.221 290.934 34.1473 291.376 34C291.818 33.8413 292.186 33.6317 292.481 33.371C292.776 33.1103 292.991 32.81 293.127 32.47C293.274 32.13 293.348 31.7673 293.348 31.382C293.348 30.906 293.218 30.515 292.957 30.209C292.708 29.8917 292.373 29.6253 291.954 29.41C291.535 29.1833 291.053 28.9907 290.509 28.832C289.976 28.662 289.427 28.4863 288.86 28.305C288.305 28.1237 287.755 27.9197 287.211 27.693C286.678 27.455 286.202 27.1603 285.783 26.809C285.364 26.4577 285.024 26.027 284.763 25.517C284.514 24.9957 284.389 24.3667 284.389 23.63C284.389 22.9727 284.525 22.3437 284.797 21.743C285.069 21.131 285.466 20.5983 285.987 20.145C286.508 19.6803 287.149 19.312 287.908 19.04C288.667 18.768 289.534 18.632 290.509 18.632C291.642 18.632 292.657 18.8133 293.552 19.176C294.459 19.5273 295.241 20.0147 295.898 20.638L295.218 21.743Z" fill="white"/>
<g clip-path="url(#clip0)">
<path d="M54.1781 11.0713C53.8742 10.8879 53.5279 10.7856 53.1727 10.7742C52.8176 10.7628 52.4654 10.8427 52.1503 11.0062C52.0659 11.0499 51.9846 11.0995 51.9072 11.1546L51.895 11.1668C51.7183 11.2941 51.553 11.4363 51.4008 11.5919C50.1878 12.7938 48.2334 14.7827 47.0265 15.9887C46.9407 16.0764 46.8493 16.1586 46.7529 16.2347V16.2347L46.7202 16.2591C46.6301 16.1995 46.546 16.1314 46.469 16.0558C46.1954 15.7853 45.9258 15.5128 45.6522 15.2423C45.4316 15.0206 45.2131 14.799 44.9905 14.5793L44.2553 13.8472C43.4936 13.0887 42.7319 12.3281 41.962 11.5776L41.9334 11.5553C41.74 11.3123 41.4938 11.1161 41.2133 10.9815C40.9328 10.847 40.6253 10.7775 40.314 10.7784H40.2915C39.9689 10.7834 39.6517 10.862 39.3644 11.0082C39.28 11.052 39.1988 11.1016 39.1214 11.1567L39.1071 11.1689C38.9315 11.296 38.7669 11.4375 38.6149 11.5919C38.0554 12.145 37.3386 12.867 36.6116 13.6011L34.161 16.0415C34.0848 16.1186 34.0036 16.1906 33.918 16.2571C33.8324 16.1973 33.7531 16.1292 33.6811 16.0537C33.4074 15.7833 33.1379 15.5107 32.8642 15.2403L32.2026 14.5773L31.4674 13.8452C30.7057 13.0866 29.944 12.326 29.172 11.5756C28.8203 11.2025 28.3655 10.9414 27.8651 10.8252C27.8263 10.8252 27.7854 10.8252 27.7466 10.811C27.675 10.7983 27.6027 10.7894 27.5301 10.7845C27.5241 10.7835 27.5179 10.7835 27.5118 10.7845H27.475C27.4505 10.7845 27.426 10.7845 27.3995 10.7845C27.3668 10.7824 27.3341 10.7824 27.3014 10.7845H27.2871H27.2361C27.1798 10.7902 27.1239 10.799 27.0686 10.811C27.0298 10.811 26.9931 10.8354 26.9543 10.8455C26.5759 10.9635 26.2327 11.1731 25.9557 11.4556C25.5758 11.8278 25.1388 12.2691 24.6793 12.7226C23.7467 13.6635 22.8039 14.6017 21.8509 15.5372L21.1913 16.192C21.1661 16.2152 21.1395 16.237 21.1117 16.2571L21.0811 16.2347C21.0253 16.1963 20.9727 16.1535 20.9238 16.1066C20.834 16.0253 20.7461 15.9358 20.6604 15.8483L19.2574 14.4471C18.2908 13.4791 17.3221 12.5145 16.3514 11.5532C15.798 11.0082 15.2099 10.754 14.6115 10.7723C14.5782 10.7702 14.5448 10.7702 14.5115 10.7723H14.4992H14.4482C14.3919 10.778 14.336 10.7868 14.2807 10.7988C14.2419 10.7988 14.2051 10.8232 14.1663 10.8333C13.7875 10.9517 13.4438 11.1613 13.1657 11.4434C12.7879 11.8156 12.3488 12.2569 11.8914 12.7104C10.9506 13.6459 10.0092 14.5814 9.06711 15.5168L7.73767 16.8408C7.61458 16.9596 7.50058 17.0874 7.39664 17.2231L6.89835 17.7213C6.51138 18.078 6.27482 18.5677 6.23647 19.0914C6.19812 19.6152 6.36085 20.1338 6.69177 20.5427C7.02268 20.9515 7.4971 21.22 8.01916 21.2938C8.54121 21.3677 9.07195 21.2415 9.50413 20.9406L9.51638 20.9284C9.69306 20.8011 9.8584 20.6589 10.0106 20.5034C11.2318 19.3198 13.182 17.3329 14.391 16.1269C14.4775 16.0392 14.5688 15.9564 14.6646 15.8788L14.7034 15.8626C14.794 15.9216 14.8781 15.9897 14.9546 16.0659C15.2283 16.3344 15.4978 16.6069 15.7715 16.8794C15.992 17.1011 16.2105 17.3227 16.4331 17.5444L17.1683 18.2765C17.93 19.0351 18.6917 19.7936 19.4616 20.5441L19.4902 20.5685C19.6846 20.8103 19.9315 21.0051 20.2123 21.1382C20.4932 21.2713 20.8007 21.3394 21.1117 21.3372H21.1341C21.4547 21.333 21.7699 21.255 22.0552 21.1094C22.1396 21.0657 22.2208 21.0161 22.2982 20.961L22.3104 20.9488C22.4871 20.8215 22.6524 20.6793 22.8046 20.5237C23.3621 19.9706 24.0789 19.2486 24.8059 18.5165L27.2565 16.0761C27.3328 15.9997 27.4139 15.9284 27.4995 15.8626C27.5847 15.9229 27.664 15.991 27.7364 16.0659C28.0101 16.3344 28.2796 16.6069 28.5533 16.8794C28.7738 17.1011 28.9923 17.3227 29.2149 17.5444L29.9501 18.2765C30.7118 19.0351 31.4735 19.7936 32.2434 20.5441C32.5961 20.9174 33.0514 21.1791 33.5524 21.2965C33.5912 21.2965 33.6321 21.2965 33.6709 21.3107C33.7425 21.323 33.8148 21.3312 33.8873 21.3352H33.8996H33.9384C33.9629 21.3352 33.9874 21.3352 34.0119 21.3352H34.112H34.1263H34.1773C34.2336 21.3292 34.2895 21.3203 34.3448 21.3087C34.3836 21.3087 34.4204 21.2843 34.4592 21.2741C34.837 21.1549 35.1798 20.9455 35.4578 20.664C35.8356 20.2919 36.2746 19.8506 36.73 19.3991C37.6735 18.4636 38.6163 17.5275 39.5584 16.5906L40.218 15.9337C40.2466 15.9093 40.2752 15.8849 40.2956 15.8707C40.3069 15.8767 40.3179 15.8835 40.3283 15.891V15.891C40.3837 15.9292 40.4362 15.9714 40.4855 16.0171C40.5754 16.1005 40.6632 16.188 40.749 16.2754L42.1519 17.6786C43.1185 18.6453 44.0872 19.6093 45.0579 20.5705C45.6093 21.1155 46.1994 21.3718 46.7978 21.3535H46.8958H46.9101H46.9612C47.0174 21.3478 47.0733 21.339 47.1286 21.327C47.1674 21.327 47.2042 21.3026 47.243 21.2924C47.621 21.1737 47.964 20.9642 48.2416 20.6823C48.6214 20.3102 49.0585 19.8689 49.5138 19.4174C50.4573 18.4819 51.4001 17.5458 52.3422 16.6089L53.6737 15.2525C53.7962 15.1324 53.9102 15.004 54.0147 14.8681L54.513 14.3719C54.7502 14.1533 54.9332 13.8829 55.0476 13.5819C55.162 13.281 55.2047 12.9576 55.1722 12.6374C55.1397 12.3172 55.033 12.0089 54.8605 11.7368C54.688 11.4647 54.4544 11.2361 54.1781 11.0692V11.0713Z" fill="white"/>
<path d="M54.1781 38.8044C53.8742 38.9878 53.5279 39.0901 53.1727 39.1015C52.8175 39.1129 52.4654 39.033 52.1502 38.8695C52.0658 38.8257 51.9846 38.7761 51.9072 38.721L51.895 38.7088C51.7183 38.5815 51.553 38.4393 51.4008 38.2838C50.1877 37.0819 48.2334 35.0929 47.0265 33.887C46.94 33.7993 46.8486 33.7164 46.7529 33.6389L46.7202 33.6145C46.6296 33.6735 46.5455 33.7416 46.469 33.8178C46.1953 34.0883 45.9258 34.3608 45.6521 34.6313C45.4316 34.853 45.2131 35.0767 44.9905 35.2963L44.2553 36.0284C43.4936 36.787 42.7319 37.5476 41.962 38.298L41.9334 38.3204C41.739 38.5622 41.4921 38.757 41.2113 38.8901C40.9304 39.0232 40.6229 39.0913 40.3119 39.0891H40.2895C39.9668 39.0841 39.6497 39.0055 39.3623 38.8593C39.2779 38.8155 39.1967 38.7659 39.1193 38.7108L39.105 38.6986C38.9294 38.5708 38.7648 38.4286 38.6129 38.2736C38.0533 37.7204 37.3365 36.9985 36.6095 36.2643L34.1589 33.8239C34.0827 33.7469 34.0016 33.6749 33.9159 33.6084C33.8303 33.6681 33.751 33.7363 33.679 33.8117C33.4054 34.0822 33.1358 34.3547 32.8622 34.6252L32.2005 35.2902L31.4653 36.0223C30.7036 36.7809 29.9419 37.5415 29.17 38.2919C28.8177 38.6643 28.3632 38.9253 27.863 39.0423C27.8242 39.0423 27.7834 39.0423 27.7446 39.0566C27.671 39.0566 27.5996 39.081 27.5281 39.083H27.5097H27.473C27.4484 39.083 27.4239 39.083 27.3974 39.083H27.2994H27.2851H27.234C27.1777 39.0773 27.1218 39.0685 27.0666 39.0566C27.0278 39.0566 26.991 39.0321 26.9522 39.022C26.5741 38.9032 26.2312 38.6937 25.9536 38.4119C25.5738 38.0397 25.1367 37.5984 24.6773 37.1449L21.8509 34.3385L21.1913 33.6816L21.1117 33.6185L21.081 33.6389C21.0256 33.6771 20.9731 33.7192 20.9238 33.765C20.8339 33.8483 20.7461 33.9378 20.6604 34.0253L19.2574 35.4265C18.2915 36.3925 17.3255 37.3605 16.3514 38.3183C15.798 38.8654 15.2099 39.1196 14.6115 39.1013C14.5768 39.1013 14.5441 39.1013 14.5114 39.1013H14.4992H14.4481C14.3919 39.0956 14.336 39.0868 14.2807 39.0749C14.2419 39.0749 14.2051 39.0505 14.1663 39.0403C13.7878 38.9211 13.4443 38.7117 13.1657 38.4302C12.7879 38.058 12.3488 37.6167 11.8914 37.1632L9.06709 34.3568L7.73765 33.0328C7.61457 32.9133 7.50058 32.7848 7.39661 32.6485L6.90446 32.1319C6.51749 31.7752 6.28092 31.2856 6.24257 30.7618C6.20423 30.2381 6.36695 29.7194 6.69787 29.3106C7.02878 28.9018 7.50321 28.6333 8.02526 28.5594C8.54731 28.4856 9.07806 28.6118 9.51023 28.9127L9.52249 28.9249C9.69916 29.0521 9.8645 29.1944 10.0167 29.3499C11.2318 30.5538 13.182 32.5387 14.391 33.7589C14.4775 33.8466 14.5688 33.9294 14.6646 34.007V34.007L14.6973 34.0314C14.7878 33.9724 14.872 33.9042 14.9485 33.828C15.2221 33.5575 15.4917 33.285 15.7653 33.0145C15.9859 32.7949 16.2044 32.5712 16.427 32.3516L17.1622 31.6195C17.9239 30.8609 18.6856 30.1003 19.4555 29.3499L19.4841 29.3275C19.6785 29.0857 19.9254 28.8909 20.2062 28.7578C20.487 28.6246 20.7945 28.5566 21.1055 28.5588H21.128C21.4506 28.5638 21.7678 28.6424 22.0551 28.7886C22.1395 28.8323 22.2207 28.882 22.2982 28.9371L22.3104 28.9493C22.4871 29.0766 22.6524 29.2188 22.8046 29.3743C23.3621 29.9274 24.0789 30.6474 24.8059 31.3815L27.2565 33.8219C27.3327 33.899 27.4139 33.971 27.4995 34.0375C27.5846 33.9772 27.664 33.9091 27.7364 33.8341C28.01 33.5636 28.2796 33.2911 28.5532 33.0206C28.7738 32.801 28.9923 32.5773 29.2149 32.3577L29.9501 31.6256C30.7118 30.867 31.4735 30.1064 32.2434 29.356C32.5968 28.9839 33.0518 28.723 33.5524 28.6056C33.5912 28.6056 33.6321 28.6056 33.6709 28.5913C33.7425 28.5784 33.8147 28.5696 33.8873 28.5649H33.8996H33.9384H34.0119C34.0466 28.5649 34.0813 28.5649 34.112 28.5649H34.1263H34.1773C34.2335 28.5709 34.2894 28.5797 34.3448 28.5913C34.3836 28.5913 34.4203 28.6157 34.4591 28.6259C34.837 28.7451 35.1798 28.9546 35.4577 29.236C35.8355 29.6082 36.2746 30.0495 36.73 30.5009C37.6735 31.4364 38.6163 32.3726 39.5584 33.3094L40.218 33.9663L40.2956 34.0293L40.3283 34.009C40.3836 33.9708 40.4362 33.9287 40.4855 33.8829C40.5754 33.7995 40.6632 33.7101 40.7489 33.6226L42.1519 32.2214C43.1178 31.2554 44.0838 30.2874 45.0579 29.3296C45.6092 28.7825 46.1994 28.5283 46.7978 28.5466H46.8958H46.9101H46.9611C47.0174 28.5523 47.0733 28.5611 47.1286 28.573C47.1674 28.573 47.2042 28.5974 47.243 28.6076C47.621 28.7264 47.964 28.9359 48.2416 29.2177C48.6214 29.5899 49.0584 30.0312 49.5138 30.4826C50.4573 31.4181 51.4001 32.3543 52.3422 33.2911L53.6716 34.615C53.7941 34.7351 53.9081 34.8635 54.0127 34.9994L54.511 35.4956C54.7482 35.7142 54.9312 35.9846 55.0456 36.2856C55.16 36.5866 55.2026 36.9099 55.1701 37.2301C55.1377 37.5503 55.031 37.8586 54.8585 38.1307C54.686 38.4028 54.4524 38.6314 54.1761 38.7983L54.1781 38.8044Z" fill="white"/>
<path d="M14.6647 27.0173C15.8185 27.0173 16.7538 26.0859 16.7538 24.9369C16.7538 23.7879 15.8185 22.8564 14.6647 22.8564C13.5109 22.8564 12.5756 23.7879 12.5756 24.9369C12.5756 26.0859 13.5109 27.0173 14.6647 27.0173Z" fill="white"/>
<path d="M27.5056 27.0173C28.6594 27.0173 29.5947 26.0859 29.5947 24.9369C29.5947 23.7879 28.6594 22.8564 27.5056 22.8564C26.3518 22.8564 25.4165 23.7879 25.4165 24.9369C25.4165 26.0859 26.3518 27.0173 27.5056 27.0173Z" fill="white"/>
<path d="M40.3303 27.0173C41.4841 27.0173 42.4194 26.0859 42.4194 24.9369C42.4194 23.7879 41.4841 22.8564 40.3303 22.8564C39.1765 22.8564 38.2412 23.7879 38.2412 24.9369C38.2412 26.0859 39.1765 27.0173 40.3303 27.0173Z" fill="white"/>
<path d="M53.155 27.0173C54.3088 27.0173 55.2441 26.0859 55.2441 24.9369C55.2441 23.7879 54.3088 22.8564 53.155 22.8564C52.0012 22.8564 51.0659 23.7879 51.0659 24.9369C51.0659 26.0859 52.0012 27.0173 53.155 27.0173Z" fill="white"/>
<path d="M109.332 26.9013C110.629 26.3645 112.396 26.0879 114.556 26.0879C115.761 26.083 116.964 26.0118 118.161 25.8743C121.363 25.5144 123.497 24.4508 124.696 22.6347C125.357 21.5869 125.726 20.3825 125.765 19.1455C125.804 17.9085 125.512 16.6834 124.918 15.5962C124.352 14.5607 123.563 13.6621 122.608 12.9646C121.596 12.2379 120.463 11.6935 119.261 11.356C115.859 10.3575 112.206 10.6625 109.255 12.1959C106.153 13.8005 103.79 16.91 102.773 20.7231C101.568 25.2459 102.495 30.5884 105.138 34.3303C107.27 37.3483 110.878 39.0809 115.042 39.0809C116.99 39.1078 118.918 38.6823 120.672 37.8384C121.984 37.1951 123.179 36.3387 124.207 35.3044C124.371 35.1377 124.504 34.9427 124.597 34.7289C124.78 34.3925 124.871 34.0147 124.862 33.6325C124.854 33.2504 124.746 32.877 124.549 32.5489C124.352 32.2209 124.073 31.9494 123.738 31.7612C123.404 31.5729 123.027 31.4743 122.643 31.475C122.196 31.4741 121.76 31.6097 121.393 31.8635C121.342 31.8993 121.294 31.9387 121.248 31.9814L121.161 32.0546C121.123 32.0838 121.088 32.115 121.054 32.1482L121.011 32.1848C120.536 32.6907 120.004 33.1404 119.425 33.525C118.793 33.9446 118.115 34.2893 117.403 34.552C115.775 35.1192 113.996 35.0824 112.394 34.4483C111.52 34.1164 110.705 33.649 109.978 33.0633C109.296 32.5194 108.716 31.8607 108.262 31.1171C107.869 30.482 107.658 29.7522 107.65 29.0062C107.648 28.0646 108.199 27.3731 109.332 26.9013ZM115.304 21.7297C114.581 21.7297 113.743 21.7623 112.812 21.8294C111.88 21.8959 110.953 22.0318 110.041 22.2361C109.142 22.4362 108.267 22.7321 107.431 23.1187C107.199 23.2262 106.973 23.3457 106.753 23.4767C106.823 23.2062 106.89 22.8076 106.974 22.2565C107.017 21.9616 107.055 21.7074 107.086 21.5955C107.288 20.8546 107.579 20.141 107.954 19.4703C108.676 18.149 109.727 17.0343 111.005 16.2327C112.214 15.4905 113.948 15.0125 115.667 15.0125C117.681 15.0125 119.674 15.6715 120.773 17.3391C121.316 18.1647 121.518 19.5151 120.817 20.3896C120.068 21.325 118.587 21.5508 117.538 21.6403C116.794 21.6972 116.043 21.7297 115.304 21.7297Z" fill="white"/>
<path d="M98.8399 10.9025C98.3069 10.7166 97.7217 10.749 97.2127 10.9927C96.7038 11.2364 96.3129 11.6714 96.1259 12.202L89.685 30.3402L83.826 12.322C83.7882 12.216 83.7431 12.1128 83.6913 12.0129L83.6749 11.9803C83.6525 11.9376 83.628 11.8969 83.5994 11.8522C83.3514 11.4127 82.9526 11.0769 82.4762 10.9066C82.2119 10.8131 81.9317 10.7725 81.6517 10.7871C81.3716 10.8016 81.0972 10.8711 80.8442 10.9914C80.5911 11.1118 80.3644 11.2806 80.177 11.4884C79.9896 11.6961 79.8451 11.9386 79.752 12.202L73.3131 30.3362L67.4133 12.2528C67.2378 11.7175 66.856 11.2736 66.3518 11.0186C65.8476 10.7636 65.2624 10.7186 64.7248 10.8933C64.1873 11.0681 63.7415 11.4483 63.4854 11.9504C63.2294 12.4525 63.1842 13.0353 63.3597 13.5706L71.1954 37.6228C71.3308 38.0454 71.596 38.4149 71.9536 38.6795C72.3112 38.944 72.7431 39.0901 73.1885 39.0972H73.2232C73.6645 39.0954 74.0944 38.9577 74.4539 38.7027C74.8133 38.4478 75.0847 38.0883 75.2307 37.6736L81.6859 19.511L87.5754 37.6106C87.7108 38.0328 87.9757 38.4022 88.3328 38.6667C88.69 38.9312 89.1215 39.0775 89.5665 39.085H89.6012C90.0427 39.0831 90.4728 38.9452 90.8326 38.6904C91.1923 38.4355 91.4641 38.0761 91.6107 37.6614L100.143 13.6256C100.332 13.0924 100.301 12.5062 100.057 11.9957C99.8125 11.4852 99.3749 11.0921 98.8399 10.9025V10.9025Z" fill="white"/>
<path d="M160.699 10.7783C160.117 10.7815 159.561 11.0141 159.151 11.425C158.742 11.8359 158.512 12.3917 158.513 12.9706V36.8987C158.513 37.4758 158.744 38.0293 159.153 38.4373C159.563 38.8454 160.119 39.0747 160.699 39.0747C161.278 39.0747 161.834 38.8454 162.244 38.4373C162.653 38.0293 162.884 37.4758 162.884 36.8987V12.9706C162.885 12.3917 162.655 11.8359 162.246 11.425C161.836 11.0141 161.28 10.7815 160.699 10.7783V10.7783Z" fill="white"/>
<path d="M141.59 10.7785C135.382 10.9819 130.332 16.365 130.332 22.7771V36.8623C130.323 37.1591 130.374 37.4548 130.482 37.7317C130.589 38.0087 130.752 38.2612 130.96 38.4744C131.167 38.6876 131.416 38.857 131.691 38.9728C131.965 39.0885 132.261 39.1482 132.559 39.1482C132.857 39.1482 133.152 39.0885 133.427 38.9728C133.702 38.857 133.95 38.6876 134.158 38.4744C134.366 38.2612 134.528 38.0087 134.636 37.7317C134.744 37.4548 134.795 37.1591 134.786 36.8623V22.6266C134.786 18.6854 137.871 15.342 141.664 15.1753C142.639 15.128 143.613 15.2809 144.527 15.6244C145.44 15.968 146.273 16.4949 146.973 17.1723C147.681 17.8472 148.243 18.6585 148.626 19.5567C149.008 20.4548 149.203 21.4212 149.199 22.3968V36.8623C149.199 37.4502 149.434 38.014 149.851 38.4297C150.269 38.8454 150.835 39.079 151.425 39.079C152.015 39.079 152.582 38.8454 152.999 38.4297C153.417 38.014 153.651 37.4502 153.651 36.8623V22.4721C153.658 20.9047 153.346 19.3521 152.736 17.9075C152.125 16.4628 151.228 15.1558 150.098 14.0649C148.979 12.9688 147.648 12.1118 146.185 11.5467C144.722 10.9816 143.158 10.7202 141.59 10.7785V10.7785Z" fill="white"/>
</g>
<path d="M183.494 0L183.494 51" stroke="white" stroke-width="0.7" fill="white"/>
<defs>
<clipPath id="clip0">
<rect width="172.125" height="48.875" fill="white"/>
</clipPath>
</defs>
</svg>
