<svg id="erskOQzNVuI1" xmlns="http://www.w3.org/2000/svg" xmlns:xlink="http://www.w3.org/1999/xlink" viewBox="0 0 1121 443" shape-rendering="geometricPrecision" text-rendering="geometricPrecision" width="1121" height="443"><style><![CDATA[#erskOQzNVuI80_to {animation: erskOQzNVuI80_to__to 3000ms linear infinite normal forwards}@keyframes erskOQzNVuI80_to__to { 0% {transform: translate(937px,81px);animation-timing-function: cubic-bezier(0.420000,0,0.580000,1)} 50% {transform: translate(927px,81px);animation-timing-function: cubic-bezier(0.420000,0,0.580000,1)} 100% {transform: translate(937px,81px)}} #erskOQzNVuI84_to {animation: erskOQzNVuI84_to__to 3000ms linear infinite normal forwards}@keyframes erskOQzNVuI84_to__to { 0% {transform: translate(730.657989px,29.500000px);animation-timing-function: cubic-bezier(0.420000,0,0.580000,1)} 50% {transform: translate(740.657989px,29.500000px);animation-timing-function: cubic-bezier(0.420000,0,0.580000,1)} 100% {transform: translate(730.657989px,29.500000px)}}]]></style><g id="erskOQzNVuI2" clip-path="url(#erskOQzNVuI88)"><g id="erskOQzNVuI3"><path id="erskOQzNVuI4" d="M517.500000,332.500000C392.500000,344,343.500000,349,252.500000,344.500000L251.570000,344.454000C190.738000,341.446000,159.699000,339.912000,100.500000,322.500000C63.489600,311.615000,7.123160,292.136000,0,252L0,369.500000L0,443L62,443L373,443L747,443L1058,443L1121,443L1121,305.692000L1058,300.692000C996,294.692000,871,283.692000,747,294.692000C622,305.692000,642.500000,321,517.500000,332.500000Z" fill="rgb(244,246,248)" stroke="none" stroke-width="1"/><path id="erskOQzNVuI5" d="M928.450000,275.309000L873.376000,273.306000C872.202000,273.766000,871.192000,274.564000,870.476000,275.599000C869.760000,276.634000,869.370000,277.859000,869.356000,279.116000C869.024000,285.286000,872.692000,286.899000,872.692000,286.899000L927.535000,291.988000L928.450000,275.309000Z" fill="rgb(255,255,255)" stroke="none" stroke-width="1"/><path id="erskOQzNVuI6" d="M927.535000,292.459000C927.657000,292.458000,927.774000,292.416000,927.867000,292.338000C927.967000,292.247000,928.028000,292.122000,928.038000,291.988000L928.932000,275.339000C928.936000,275.273000,928.926000,275.207000,928.904000,275.146000C928.881000,275.084000,928.847000,275.027000,928.802000,274.978000C928.710000,274.879000,928.585000,274.818000,928.450000,274.808000L873.376000,272.805000L873.205000,272.805000C871.934000,273.296000,870.839000,274.153000,870.057000,275.265000C869.275000,276.378000,868.842000,277.697000,868.813000,279.056000C868.472000,285.507000,872.281000,287.260000,872.441000,287.330000C872.495000,287.339000,872.549000,287.339000,872.602000,287.330000L927.535000,292.459000ZM927.907000,275.800000L927.063000,291.417000L872.793000,286.408000C872.321000,286.168000,869.547000,284.485000,869.778000,279.146000C869.787000,277.999000,870.136000,276.882000,870.782000,275.933000C871.428000,274.985000,872.341000,274.248000,873.406000,273.816000L927.907000,275.800000Z" fill="rgb(78,86,102)" stroke="none" stroke-width="1"/><path id="erskOQzNVuI7" d="M884.441000,287.470000C886.079000,287.470000,887.727000,287.470000,889.365000,287.470000C894.696000,287.461000,900.024000,287.739000,905.325000,288.301000C910.350000,288.952000,916.591000,290.175000,920.581000,293.490000C922.422000,295.270000,923.725000,297.530000,924.339000,300.012000C924.500000,300.593000,925.485000,306.753000,924.691000,306.783000C927.133000,306.683000,928.631000,309.368000,929.364000,311.682000C932.711000,322.140000,932.249000,332.157000,928.661000,342.385000C927.786000,344.869000,926.751000,345.911000,924.219000,346.051000C922.016000,346.312000,919.845000,346.788000,917.736000,347.474000C911.837000,348.936000,905.676000,348.926000,899.646000,348.906000C895.563000,348.975000,891.479000,348.808000,887.416000,348.405000C879.888000,347.504000,871.024000,345.671000,865.306000,340.291000C859.808000,335.072000,861.828000,327.699000,861.858000,321.078000C861.858000,312.012000,862.150000,304.970000,867.215000,296.936000C869.898000,292.669000,873.617000,289.303000,878.632000,288.091000C880.540000,287.674000,882.488000,287.466000,884.441000,287.470000Z" fill="rgb(78,86,102)" stroke="none" stroke-width="1"/><path id="erskOQzNVuI8" d="M901.566000,349.467000C906.983000,349.467000,912.521000,349.337000,917.857000,348.005000L919.646000,347.524000C921.137000,347.047000,922.678000,346.737000,924.239000,346.603000C927.254000,346.432000,928.259000,345,929.133000,342.596000C932.872000,331.937000,933.153000,321.790000,929.847000,311.542000C928.842000,308.537000,927.304000,306.683000,925.445000,306.343000C925.706000,304.460000,924.832000,299.932000,924.822000,299.892000C924.430000,298.509000,923.264000,295.093000,920.902000,293.120000C916.772000,289.684000,910.450000,288.482000,905.395000,287.811000C900.944000,287.311000,896.468000,287.053000,891.988000,287.040000L889.345000,286.979000L888.873000,286.979000C887.406000,286.979000,885.858000,286.909000,884.401000,286.979000C882.412000,286.994000,880.431000,287.223000,878.491000,287.661000C873.788000,288.803000,869.838000,291.848000,866.763000,296.736000C861.738000,304.660000,861.376000,311.542000,861.336000,321.138000C861.336000,322.501000,861.235000,323.933000,861.145000,325.316000C860.783000,330.775000,860.411000,336.415000,864.944000,340.712000C870.974000,346.432000,880.602000,348.155000,887.315000,348.957000C891.392000,349.366000,895.489000,349.536000,899.586000,349.467000L901.566000,349.467000ZM924.812000,307.325000C927.173000,307.325000,928.450000,310.500000,928.892000,311.882000C932.088000,321.900000,931.907000,331.817000,928.188000,342.265000C927.334000,344.699000,926.400000,345.481000,924.168000,345.601000C922.532000,345.756000,920.917000,346.092000,919.355000,346.603000C918.782000,346.763000,918.199000,346.923000,917.596000,347.073000C911.727000,348.536000,905.536000,348.516000,899.596000,348.506000C895.533000,348.565000,891.470000,348.395000,887.426000,347.995000C880.863000,347.214000,871.466000,345.541000,865.637000,339.981000C861.446000,335.974000,861.798000,330.595000,862.140000,325.366000C862.230000,323.973000,862.331000,322.531000,862.331000,321.138000C862.381000,311.712000,862.763000,304.950000,867.617000,297.247000C870.542000,292.599000,874.280000,289.694000,878.672000,288.622000C880.545000,288.195000,882.459000,287.974000,884.381000,287.961000C885.848000,287.961000,887.396000,287.961000,888.803000,288.011000L889.345000,288.011000L891.968000,288.071000C896.411000,288.081000,900.850000,288.335000,905.264000,288.833000C909.797000,289.434000,916.319000,290.606000,920.259000,293.921000C922.410000,295.704000,923.495000,298.930000,923.857000,300.192000C924.078000,300.964000,924.701000,305.531000,924.440000,306.393000C924.364000,306.439000,924.301000,306.504000,924.257000,306.581000C924.213000,306.658000,924.189000,306.745000,924.189000,306.834000C924.188000,306.900000,924.202000,306.966000,924.229000,307.027000C924.255000,307.089000,924.295000,307.144000,924.344000,307.189000C924.393000,307.234000,924.451000,307.268000,924.514000,307.290000C924.577000,307.312000,924.645000,307.320000,924.711000,307.315000L924.812000,307.325000Z" fill="rgb(78,86,102)" stroke="none" stroke-width="1"/><path id="erskOQzNVuI9" d="M916.299000,274.659000C910.156000,273.329000,903.914000,272.495000,897.636000,272.164000C893.727000,271.964000,883.938000,271.463000,880.551000,273.547000C876.803000,275.831000,879.868000,283.764000,879.878000,287.881000C879.878000,293.712000,883.365000,295.164000,888.682000,296.737000C892.526000,297.851000,896.544000,298.238000,900.531000,297.879000C903.757000,297.578000,910.822000,295.805000,911.586000,292.029000C911.675000,291.127000,911.593000,290.216000,911.345000,289.344000C910.782000,286.539000,912.390000,277.483000,916.299000,274.659000Z" fill="rgb(78,86,102)" stroke="none" stroke-width="1"/><path id="erskOQzNVuI10" d="M897.656000,298.499000C898.661000,298.499000,899.596000,298.499000,900.551000,298.369000C903.264000,298.128000,911.184000,296.445000,912.048000,292.128000C912.172000,291.291000,912.117000,290.438000,911.887000,289.624000L911.817000,289.253000C911.304000,286.618000,912.892000,277.883000,916.490000,275.139000C916.580000,275.105000,916.655000,275.041000,916.701000,274.958000C916.779000,274.867000,916.822000,274.752000,916.822000,274.633000C916.822000,274.513000,916.779000,274.398000,916.701000,274.307000C916.648000,274.254000,916.583000,274.213000,916.512000,274.189000C916.440000,274.165000,916.364000,274.157000,916.289000,274.167000L915.395000,273.987000C909.574000,272.723000,903.657000,271.946000,897.707000,271.663000C893.556000,271.452000,883.858000,270.951000,880.310000,273.115000C877.365000,274.918000,878.159000,279.536000,878.863000,283.613000C879.148000,285.020000,879.326000,286.447000,879.396000,287.881000C879.396000,294.031000,883.194000,295.634000,888.551000,297.217000C891.511000,298.069000,894.576000,298.500000,897.656000,298.499000ZM915.184000,274.958000C911.676000,278.474000,910.299000,286.638000,910.832000,289.423000L910.912000,289.814000C911.103000,290.501000,911.158000,291.219000,911.073000,291.928000C910.380000,295.333000,903.495000,297.096000,900.460000,297.367000C896.539000,297.722000,892.585000,297.345000,888.802000,296.255000C883.546000,294.692000,880.350000,293.360000,880.350000,287.871000C880.285000,286.380000,880.103000,284.896000,879.808000,283.433000C879.164000,279.666000,878.431000,275.419000,880.813000,273.956000C884.099000,271.953000,893.878000,272.464000,897.626000,272.654000C903.519000,272.937000,909.378000,273.708000,915.143000,274.958000L915.184000,274.958000Z" fill="rgb(78,86,102)" stroke="none" stroke-width="1"/><path id="erskOQzNVuI11" d="M927.556000,291.950000C924.464000,291.784000,922.158000,287.923000,922.406000,283.327000C922.654000,278.731000,925.362000,275.139000,928.455000,275.305000C931.548000,275.471000,933.854000,279.332000,933.605000,283.928000C933.357000,288.524000,930.649000,292.116000,927.556000,291.950000Z" fill="rgb(255,255,255)" stroke="none" stroke-width="1"/><path id="erskOQzNVuI12" d="M927.766000,292.469000C928.622000,292.427000,929.455000,292.185000,930.199000,291.762000C930.943000,291.339000,931.576000,290.748000,932.048000,290.035000C933.317000,288.260000,934.034000,286.152000,934.108000,283.974000C934.369000,279.106000,931.847000,274.959000,928.480000,274.829000C927.581000,274.816000,926.695000,275.032000,925.903000,275.457000C925.112000,275.881000,924.442000,276.499000,923.957000,277.253000C922.708000,279.038000,922.010000,281.148000,921.947000,283.323000C921.686000,288.182000,924.209000,292.289000,927.575000,292.469000L927.766000,292.469000ZM928.249000,275.810000L928.430000,275.810000C931.234000,275.961000,933.334000,279.597000,933.103000,283.914000C933.040000,285.896000,932.394000,287.816000,931.244000,289.434000C930.848000,290.044000,930.307000,290.547000,929.669000,290.896000C929.030000,291.246000,928.314000,291.432000,927.585000,291.437000C924.771000,291.287000,922.671000,287.661000,922.902000,283.343000C922.965000,281.361000,923.611000,279.442000,924.761000,277.824000C925.143000,277.239000,925.658000,276.752000,926.264000,276.402000C926.870000,276.052000,927.550000,275.850000,928.249000,275.810000Z" fill="rgb(78,86,102)" stroke="none" stroke-width="1"/><path id="erskOQzNVuI13" d="M917.877000,314.186000C917.998000,314.186000,918.116000,314.144000,918.209000,314.067000C918.303000,313.990000,918.366000,313.884000,918.390000,313.765000C919.395000,308.316000,922.410000,307.504000,922.540000,307.474000C922.673000,307.439000,922.787000,307.353000,922.856000,307.235000C922.926000,307.117000,922.946000,306.976000,922.912000,306.843000C922.897000,306.778000,922.869000,306.717000,922.830000,306.663000C922.790000,306.610000,922.741000,306.564000,922.684000,306.530000C922.627000,306.495000,922.563000,306.472000,922.497000,306.463000C922.431000,306.453000,922.364000,306.456000,922.299000,306.473000C922.138000,306.473000,918.530000,307.424000,917.365000,313.575000C917.352000,313.641000,917.352000,313.710000,917.366000,313.776000C917.379000,313.842000,917.406000,313.905000,917.444000,313.961000C917.483000,314.017000,917.532000,314.065000,917.589000,314.102000C917.646000,314.139000,917.710000,314.164000,917.777000,314.176000L917.877000,314.186000Z" fill="rgb(255,255,255)" stroke="none" stroke-width="1"/><path id="erskOQzNVuI14" d="M907.817000,312.654000C907.919000,312.653000,908.018000,312.622000,908.102000,312.565000C908.186000,312.508000,908.251000,312.428000,908.289000,312.333000C908.289000,312.243000,911.787000,303.638000,904.089000,297.969000C899.164000,294.332000,889.446000,293.962000,882.511000,295.144000C878.260000,295.875000,875.265000,297.147000,874.280000,298.570000C872.574000,301.335000,871.561000,304.468000,871.325000,307.705000C871.323000,307.841000,871.372000,307.973000,871.464000,308.074000C871.555000,308.174000,871.682000,308.236000,871.818000,308.246000C871.886000,308.252000,871.955000,308.243000,872.020000,308.221000C872.085000,308.199000,872.145000,308.164000,872.196000,308.118000C872.247000,308.072000,872.288000,308.016000,872.316000,307.954000C872.344000,307.891000,872.359000,307.824000,872.361000,307.755000C872.604000,304.710000,873.558000,301.764000,875.144000,299.151000C875.938000,297.969000,878.833000,296.827000,882.682000,296.145000C889.415000,294.993000,898.762000,295.324000,903.475000,298.780000C910.510000,303.979000,907.365000,311.802000,907.335000,311.923000C907.284000,312.049000,907.286000,312.190000,907.338000,312.315000C907.391000,312.441000,907.491000,312.541000,907.616000,312.594000C907.677000,312.629000,907.746000,312.650000,907.817000,312.654000Z" fill="rgb(255,255,255)" stroke="none" stroke-width="1"/><path id="erskOQzNVuI15" d="M784.021000,279.036000C784.021000,279.036000,777.187000,309.609000,770.031000,309.389000C762.876000,309.168000,747.801000,280.038000,747.801000,280.038000L756.303000,275.470000L765.348000,283.414000L772.283000,267.486000L784.021000,279.036000Z" fill="rgb(255,255,255)" stroke="none" stroke-width="1"/><path id="erskOQzNVuI16" d="M770.112000,309.889000C773.298000,309.889000,776.684000,304.700000,780.162000,294.452000C782.745000,286.899000,784.473000,279.226000,784.493000,279.146000C784.511000,279.062000,784.507000,278.975000,784.482000,278.893000C784.458000,278.810000,784.413000,278.736000,784.353000,278.675000L772.604000,267.125000C772.544000,267.070000,772.472000,267.030000,772.393000,267.007000C772.315000,266.985000,772.232000,266.980000,772.152000,266.995000C772.072000,267.010000,771.998000,267.044000,771.934000,267.095000C771.871000,267.145000,771.822000,267.211000,771.790000,267.285000L765.127000,282.582000L756.615000,275.099000C756.538000,275.030000,756.442000,274.986000,756.339000,274.973000C756.237000,274.961000,756.133000,274.980000,756.042000,275.028000L747.539000,279.596000C747.482000,279.627000,747.430000,279.668000,747.389000,279.719000C747.347000,279.769000,747.316000,279.827000,747.298000,279.890000C747.279000,279.952000,747.273000,280.018000,747.280000,280.083000C747.287000,280.148000,747.307000,280.210000,747.338000,280.268000C747.952000,281.470000,762.635000,309.658000,770.001000,309.889000L770.112000,309.889000ZM783.468000,279.196000C781.539000,287.740000,775.569000,308.887000,770.112000,308.887000L770.051000,308.887000C764.524000,308.707000,752.826000,288.562000,748.474000,280.247000L756.233000,276.080000L765.006000,283.784000C765.065000,283.838000,765.136000,283.876000,765.213000,283.895000C765.291000,283.915000,765.372000,283.914000,765.449000,283.894000C765.526000,283.876000,765.598000,283.840000,765.659000,283.790000C765.720000,283.739000,765.768000,283.676000,765.800000,283.603000L772.433000,268.357000L783.468000,279.196000Z" fill="rgb(78,86,102)" stroke="none" stroke-width="1"/><path id="erskOQzNVuI17" d="M844.251000,267.115000C844.251000,267.115000,860.692000,300.172000,859.014000,309.238000C857.336000,318.304000,828.040000,303.007000,828.040000,303.007000L825.025000,295.474000L833.196000,289.774000L830.814000,271.523000L844.251000,267.115000Z" fill="rgb(255,255,255)" stroke="none" stroke-width="1"/><path id="erskOQzNVuI18" d="M854.241000,312.593000C855.348000,312.637000,856.450000,312.432000,857.467000,311.992000C857.995000,311.746000,858.455000,311.375000,858.805000,310.910000C859.156000,310.445000,859.386000,309.902000,859.477000,309.328000C861.175000,300.212000,845.346000,268.257000,844.673000,266.894000C844.619000,266.785000,844.527000,266.699000,844.415000,266.651000C844.302000,266.604000,844.176000,266.597000,844.060000,266.634000L830.643000,271.021000C830.533000,271.058000,830.439000,271.132000,830.378000,271.231000C830.317000,271.330000,830.294000,271.448000,830.311000,271.562000L832.653000,289.513000L824.724000,295.033000C824.632000,295.097000,824.564000,295.190000,824.531000,295.297000C824.498000,295.405000,824.502000,295.520000,824.543000,295.624000L827.558000,303.167000C827.601000,303.276000,827.683000,303.366000,827.789000,303.417000C828.603000,303.848000,845.447000,312.593000,854.241000,312.593000ZM843.990000,267.726000C845.829000,271.462000,860.070000,300.883000,858.512000,309.147000C858.448000,309.569000,858.280000,309.967000,858.022000,310.307000C857.764000,310.646000,857.424000,310.916000,857.034000,311.091000C851.004000,314.036000,830.482000,303.678000,828.422000,302.616000L825.658000,295.604000L833.507000,290.135000C833.581000,290.082000,833.640000,290.010000,833.677000,289.928000C833.714000,289.845000,833.728000,289.754000,833.718000,289.664000L831.387000,271.823000L843.990000,267.726000Z" fill="rgb(78,86,102)" stroke="none" stroke-width="1"/><path id="erskOQzNVuI19" d="M833.216000,280.969000L849.768000,270.561000C843.145000,259.201000,839.376000,248.803000,834.794000,246.439000C828.854000,242.342000,807.890000,245.107000,795.287000,245.738000C791.641000,245.213000,787.921000,245.844000,784.654000,247.541000C771.499000,254.233000,766.021000,275.209000,766.021000,275.209000L780.272000,281.971000C780.272000,281.971000,779.539000,285.978000,774.494000,307.765000C774.494000,307.765000,809.045000,317.783000,837.095000,327.800000C837.085000,327.810000,833.206000,284.745000,833.216000,280.969000Z" fill="rgb(196,234,245)" stroke="none" stroke-width="1"/><path id="erskOQzNVuI20" d="M804.875000,310.961000C805.005000,310.961000,805.129000,310.911000,805.223000,310.821000C805.317000,310.732000,805.372000,310.609000,805.377000,310.480000L807.096000,254.233000C807.098000,254.167000,807.088000,254.101000,807.065000,254.040000C807.043000,253.978000,807.008000,253.921000,806.963000,253.873000C806.918000,253.824000,806.864000,253.785000,806.804000,253.758000C806.744000,253.730000,806.679000,253.714000,806.613000,253.712000C806.483000,253.712000,806.359000,253.762000,806.265000,253.851000C806.171000,253.941000,806.116000,254.063000,806.111000,254.193000L804.392000,310.450000C804.391000,310.516000,804.403000,310.581000,804.427000,310.642000C804.451000,310.704000,804.487000,310.760000,804.532000,310.807000C804.578000,310.855000,804.633000,310.893000,804.693000,310.919000C804.754000,310.945000,804.819000,310.960000,804.885000,310.961000L804.875000,310.961000Z" fill="rgb(78,86,102)" stroke="none" stroke-width="1"/><path id="erskOQzNVuI21" d="M830.513000,219.572000C830.513000,219.572000,833.648000,213.021000,832.452000,208.864000C831.256000,204.707000,815.719000,196.843000,810.222000,197.424000C804.724000,198.005000,796.885000,211.689000,796.885000,211.689000C796.885000,211.689000,823.940000,212.340000,830.513000,219.572000Z" fill="rgb(255,255,255)" stroke="none" stroke-width="1"/><path id="erskOQzNVuI22" d="M830.513000,220.094000L830.593000,220.094000C830.676000,220.082000,830.755000,220.050000,830.823000,220.001000C830.892000,219.953000,830.947000,219.888000,830.985000,219.813000C831.116000,219.533000,834.181000,213.032000,832.945000,208.734000C831.709000,204.437000,815.980000,196.253000,810.161000,196.904000C804.342000,197.555000,796.795000,210.858000,796.473000,211.429000C796.429000,211.507000,796.406000,211.595000,796.406000,211.684000C796.406000,211.774000,796.429000,211.862000,796.473000,211.940000C796.517000,212.018000,796.582000,212.084000,796.659000,212.129000C796.737000,212.175000,796.825000,212.199000,796.915000,212.200000C797.177000,212.200000,823.779000,212.942000,830.131000,219.924000C830.179000,219.977000,830.238000,220.019000,830.304000,220.049000C830.369000,220.078000,830.441000,220.093000,830.513000,220.094000ZM810.885000,197.906000C816.714000,197.906000,830.874000,205.248000,831.990000,209.005000C832.904000,212.170000,831.126000,216.928000,830.382000,218.671000C823.638000,212.511000,802.513000,211.369000,797.860000,211.199000C799.559000,208.364000,805.900000,198.416000,810.322000,197.936000C810.509000,197.916000,810.697000,197.906000,810.885000,197.906000Z" fill="rgb(78,86,102)" stroke="none" stroke-width="1"/><path id="erskOQzNVuI23" d="M806.790000,231.956000C794.227000,225.267000,787.013000,214.303000,790.677000,207.466000C794.341000,200.630000,807.495000,200.510000,820.058000,207.199000C832.620000,213.887000,839.834000,224.852000,836.170000,231.688000C832.506000,238.525000,819.352000,238.645000,806.790000,231.956000Z" fill="rgb(78,86,102)" stroke="none" stroke-width="1"/><path id="erskOQzNVuI24" d="M799.387000,213.212000C799.609000,212.851000,799.840000,212.501000,800.091000,212.150000C802.905000,208.223000,810.372000,209.516000,814.292000,210.648000C818.008000,211.571000,821.426000,213.426000,824.221000,216.037000C826.372000,218.221000,828.372000,221.767000,827.970000,224.952000C827.568000,228.138000,825.558000,231.864000,823.950000,234.549000C823.067000,236.211000,821.782000,237.626000,820.211000,238.666000C818.549000,239.494000,816.713000,239.916000,814.854000,239.898000C810.885000,240.108000,806.754000,239.728000,803.297000,237.774000C799.840000,235.821000,796.604000,231.674000,796.332000,227.477000C796.021000,222.638000,796.795000,217.449000,799.387000,213.212000Z" fill="rgb(255,255,255)" stroke="none" stroke-width="1"/><path id="erskOQzNVuI25" d="M812.965000,240.499000C813.588000,240.499000,814.221000,240.499000,814.884000,240.499000C816.820000,240.498000,818.727000,240.042000,820.452000,239.167000C822.101000,238.079000,823.452000,236.599000,824.382000,234.860000C826.794000,230.853000,828.171000,227.587000,828.492000,225.073000C828.934000,221.537000,826.663000,217.830000,824.593000,215.726000C821.742000,213.039000,818.242000,211.134000,814.432000,210.197000C811.799000,209.446000,802.945000,207.322000,799.669000,211.900000C799.409000,212.255000,799.168000,212.623000,798.945000,213.002000C795.930000,218.010000,795.558000,223.680000,795.820000,227.597000C796.081000,231.514000,799.046000,236.052000,803.036000,238.306000C806.095000,239.892000,809.519000,240.648000,812.965000,240.499000ZM806.935000,210.017000C809.390000,210.076000,811.826000,210.457000,814.181000,211.149000C817.817000,212.032000,821.160000,213.844000,823.879000,216.408000C825.889000,218.491000,827.899000,221.927000,827.487000,224.892000C827.196000,227.266000,825.859000,230.422000,823.517000,234.279000C822.675000,235.866000,821.453000,237.221000,819.960000,238.225000C818.373000,239.011000,816.626000,239.419000,814.854000,239.417000C810.151000,239.678000,806.473000,238.997000,803.578000,237.414000C799.880000,235.310000,797.126000,231.253000,796.885000,227.527000C796.644000,223.800000,796.955000,218.281000,799.900000,213.503000C800.111000,213.152000,800.342000,212.811000,800.583000,212.501000C801.850000,210.578000,804.362000,210.017000,806.935000,210.017000Z" fill="rgb(78,86,102)" stroke="none" stroke-width="1"/><path id="erskOQzNVuI26" d="M801.418000,239.688000L800.252000,249.254000C800.252000,249.254000,802.875000,255.265000,809.156000,254.123000C811.012000,253.752000,812.762000,252.973000,814.278000,251.843000C815.794000,250.713000,817.038000,249.261000,817.920000,247.591000L818.704000,230.131000C818.704000,230.131000,814.211000,227.457000,816.050000,217.560000C810.865000,219.487000,805.256000,219.988000,799.810000,219.012000C799.810000,219.012000,796.463000,229.681000,796.976000,234.519000C797.488000,239.357000,801.418000,239.688000,801.418000,239.688000Z" fill="rgb(255,255,255)" stroke="none" stroke-width="1"/><path id="erskOQzNVuI27" d="M807.568000,254.793000C808.135000,254.792000,808.700000,254.738000,809.257000,254.633000C811.197000,254.255000,813.026000,253.445000,814.607000,252.264000C816.189000,251.082000,817.483000,249.560000,818.392000,247.811000C818.406000,247.748000,818.406000,247.683000,818.392000,247.621000L819.166000,230.150000C819.172000,230.057000,819.151000,229.963000,819.107000,229.880000C819.063000,229.797000,818.996000,229.727000,818.915000,229.680000C818.915000,229.680000,814.774000,227.015000,816.513000,217.659000C816.531000,217.566000,816.522000,217.470000,816.489000,217.381000C816.455000,217.293000,816.397000,217.216000,816.322000,217.158000C816.250000,217.098000,816.163000,217.060000,816.071000,217.047000C815.978000,217.035000,815.884000,217.049000,815.799000,217.088000C810.719000,218.956000,805.232000,219.444000,799.900000,218.500000C799.775000,218.476000,799.646000,218.499000,799.537000,218.566000C799.429000,218.633000,799.351000,218.738000,799.317000,218.861000C799.177000,219.302000,795.941000,229.690000,796.463000,234.568000C796.905000,238.665000,799.669000,239.797000,800.845000,240.098000L799.739000,249.193000C799.714000,249.278000,799.714000,249.369000,799.739000,249.454000C799.800000,249.514000,802.151000,254.793000,807.568000,254.793000ZM817.407000,247.460000C816.550000,249.029000,815.360000,250.393000,813.919000,251.455000C812.478000,252.518000,810.822000,253.253000,809.066000,253.611000C803.729000,254.613000,801.187000,249.975000,800.785000,249.163000L801.910000,239.747000C801.926000,239.607000,801.886000,239.467000,801.800000,239.356000C801.707000,239.250000,801.578000,239.182000,801.438000,239.166000C801.297000,239.166000,797.941000,238.785000,797.478000,234.458000C797.036000,230.331000,799.488000,221.636000,800.152000,219.602000C805.249000,220.424000,810.471000,219.998000,815.367000,218.360000C814.101000,226.534000,817.196000,229.640000,818.151000,230.381000L817.407000,247.460000Z" fill="rgb(78,86,102)" stroke="none" stroke-width="1"/><path id="erskOQzNVuI28" d="M815.075000,229.650000C815.328000,228.809000,815.846000,228.071000,816.553000,227.547000C817.233000,227.088000,817.988000,226.749000,818.784000,226.545000C819.206000,226.385000,819.661000,226.327000,820.110000,226.375000C820.419000,226.440000,820.712000,226.562000,820.975000,226.735000C821.632000,227.093000,822.136000,227.677000,822.392000,228.378000C822.537000,228.960000,822.537000,229.569000,822.392000,230.151000C822.287000,230.792000,822.094000,231.416000,821.819000,232.004000C821.535000,232.589000,821.138000,233.112000,820.649000,233.543000C820.161000,233.973000,819.591000,234.302000,818.974000,234.511000C818.357000,234.720000,817.704000,234.804000,817.053000,234.759000C816.403000,234.714000,815.768000,234.540000,815.186000,234.248000" fill="rgb(255,255,255)" stroke="none" stroke-width="1"/><path id="erskOQzNVuI29" d="M817.397000,235.310000C817.989000,235.309000,818.576000,235.210000,819.136000,235.019000C819.818000,234.788000,820.448000,234.425000,820.990000,233.951000C821.531000,233.476000,821.974000,232.900000,822.291000,232.255000C822.579000,231.615000,822.785000,230.942000,822.904000,230.251000C823.062000,229.592000,823.062000,228.906000,822.904000,228.248000C822.603000,227.431000,822.019000,226.748000,821.256000,226.324000C820.936000,226.113000,820.578000,225.967000,820.201000,225.894000C819.677000,225.834000,819.147000,225.899000,818.653000,226.084000C817.799000,226.295000,816.990000,226.654000,816.261000,227.146000C815.463000,227.733000,814.878000,228.563000,814.593000,229.510000C814.573000,229.574000,814.566000,229.642000,814.572000,229.709000C814.578000,229.776000,814.598000,229.842000,814.630000,229.901000C814.661000,229.961000,814.705000,230.014000,814.757000,230.057000C814.809000,230.099000,814.870000,230.131000,814.935000,230.151000C815,230.171000,815.069000,230.177000,815.137000,230.171000C815.205000,230.164000,815.270000,230.143000,815.330000,230.111000C815.390000,230.078000,815.443000,230.034000,815.486000,229.980000C815.528000,229.927000,815.559000,229.866000,815.578000,229.800000C815.805000,229.071000,816.259000,228.432000,816.874000,227.977000C817.511000,227.565000,818.210000,227.258000,818.945000,227.066000C819.279000,226.927000,819.638000,226.862000,820,226.875000C820.245000,226.926000,820.477000,227.024000,820.683000,227.166000C821.228000,227.464000,821.651000,227.942000,821.879000,228.518000C822.005000,229.018000,822.005000,229.541000,821.879000,230.041000C821.784000,230.639000,821.608000,231.222000,821.357000,231.774000C821.100000,232.295000,820.742000,232.761000,820.304000,233.144000C819.866000,233.527000,819.357000,233.820000,818.805000,234.006000C818.253000,234.192000,817.669000,234.268000,817.088000,234.229000C816.507000,234.189000,815.939000,234.036000,815.417000,233.777000C815.356000,233.747000,815.290000,233.729000,815.223000,233.724000C815.155000,233.719000,815.087000,233.728000,815.022000,233.749000C814.958000,233.771000,814.899000,233.804000,814.847000,233.849000C814.796000,233.893000,814.754000,233.947000,814.724000,234.008000C814.693000,234.068000,814.675000,234.134000,814.670000,234.201000C814.666000,234.269000,814.674000,234.337000,814.696000,234.401000C814.717000,234.465000,814.751000,234.524000,814.795000,234.576000C814.840000,234.627000,814.894000,234.669000,814.955000,234.699000C815.710000,235.090000,816.546000,235.300000,817.397000,235.310000Z" fill="rgb(78,86,102)" stroke="none" stroke-width="1"/><path id="erskOQzNVuI30" d="M801.056000,244.446000C802.196000,244.633000,803.364000,244.574000,804.479000,244.272000C805.594000,243.969000,806.631000,243.430000,807.518000,242.692000C810.382000,240.198000,810.222000,238.686000,810.222000,238.686000C810.222000,238.686000,805.689000,240.899000,801.659000,239.898000L801.056000,244.446000Z" fill="rgb(78,86,102)" stroke="none" stroke-width="1"/><path id="erskOQzNVuI31" d="M802.342000,245.056000C804.361000,245.076000,806.318000,244.364000,807.850000,243.053000C810.865000,240.458000,810.734000,238.776000,810.714000,238.585000C810.707000,238.506000,810.680000,238.430000,810.636000,238.363000C810.592000,238.297000,810.533000,238.242000,810.463000,238.205000C810.391000,238.168000,810.312000,238.148000,810.231000,238.148000C810.151000,238.148000,810.072000,238.168000,810,238.205000C810,238.205000,805.588000,240.308000,801.779000,239.357000C801.711000,239.338000,801.640000,239.335000,801.571000,239.347000C801.501000,239.359000,801.435000,239.386000,801.377000,239.427000C801.319000,239.467000,801.271000,239.519000,801.234000,239.580000C801.198000,239.640000,801.175000,239.707000,801.166000,239.777000L800.563000,244.375000C800.551000,244.489000,800.578000,244.604000,800.640000,244.701000C800.702000,244.798000,800.796000,244.870000,800.905000,244.906000C801.378000,245.003000,801.859000,245.053000,802.342000,245.056000ZM809.498000,239.507000C808.934000,240.597000,808.147000,241.556000,807.186000,242.322000C806.418000,242.960000,805.530000,243.439000,804.574000,243.732000C803.618000,244.024000,802.614000,244.124000,801.619000,244.025000L802.081000,240.448000C804.593000,240.788000,807.151000,240.463000,809.498000,239.507000Z" fill="rgb(78,86,102)" stroke="none" stroke-width="1"/><path id="erskOQzNVuI32" d="M806.393000,224.762000C806.393000,224.762000,802.744000,229.320000,803.448000,230.221000C804.151000,231.123000,806.352000,230.752000,806.352000,230.752000" fill="rgb(255,255,255)" stroke="none" stroke-width="1"/><path id="erskOQzNVuI33" d="M805.347000,231.333000C805.711000,231.330000,806.073000,231.303000,806.433000,231.253000C806.566000,231.232000,806.685000,231.159000,806.765000,231.050000C806.844000,230.941000,806.876000,230.805000,806.855000,230.672000C806.834000,230.539000,806.760000,230.420000,806.651000,230.342000C806.542000,230.263000,806.405000,230.230000,806.272000,230.252000C805.639000,230.352000,804.262000,230.412000,803.840000,229.911000C803.729000,229.460000,805.096000,227.176000,806.795000,225.063000C806.836000,225.011000,806.866000,224.951000,806.884000,224.887000C806.902000,224.824000,806.907000,224.757000,806.899000,224.692000C806.891000,224.626000,806.870000,224.563000,806.837000,224.505000C806.805000,224.448000,806.761000,224.397000,806.709000,224.356000C806.657000,224.316000,806.597000,224.285000,806.534000,224.268000C806.470000,224.250000,806.403000,224.245000,806.337000,224.253000C806.272000,224.261000,806.208000,224.281000,806.150000,224.314000C806.092000,224.346000,806.042000,224.390000,806.001000,224.441000C804.222000,226.655000,802.272000,229.520000,803.046000,230.522000C803.348000,230.816000,803.710000,231.040000,804.107000,231.180000C804.505000,231.321000,804.928000,231.373000,805.347000,231.333000Z" fill="rgb(78,86,102)" stroke="none" stroke-width="1"/><path id="erskOQzNVuI34" d="M804.282000,234.168000C804.282000,234.168000,807.789000,235.640000,809.065000,232.234000L804.282000,234.168000Z" fill="rgb(255,255,255)" stroke="none" stroke-width="1"/><path id="erskOQzNVuI35" d="M805.594000,233.212000C806.366000,233.018000,807.181000,233.084000,807.912000,233.398000C808.642000,233.713000,809.248000,234.259000,809.636000,234.953000C809.673000,235.007000,809.698000,235.068000,809.711000,235.133000C809.723000,235.197000,809.723000,235.263000,809.709000,235.327000C809.696000,235.392000,809.669000,235.453000,809.632000,235.507000C809.594000,235.560000,809.546000,235.606000,809.491000,235.642000C809.435000,235.678000,809.373000,235.704000,809.308000,235.717000C809.243000,235.730000,809.176000,235.730000,809.110000,235.717000C809.045000,235.703000,808.983000,235.677000,808.928000,235.640000C808.873000,235.603000,808.826000,235.555000,808.790000,235.499000C808.601000,235.162000,808.342000,234.868000,808.032000,234.637000C807.721000,234.405000,807.366000,234.241000,806.987000,234.155000C806.081000,234.053000,805.168000,234.274000,804.408000,234.779000C804.356000,234.817000,804.296000,234.845000,804.232000,234.860000C804.168000,234.876000,804.102000,234.878000,804.037000,234.868000C803.973000,234.857000,803.911000,234.834000,803.855000,234.799000C803.800000,234.765000,803.752000,234.719000,803.714000,234.666000C803.675000,234.613000,803.647000,234.552000,803.631000,234.488000C803.616000,234.424000,803.613000,234.357000,803.623000,234.292000C803.634000,234.227000,803.657000,234.164000,803.692000,234.108000C803.726000,234.052000,803.772000,234.003000,803.826000,233.964000C804.365000,233.610000,804.964000,233.355000,805.594000,233.212000Z" fill="rgb(78,86,102)" stroke="none" stroke-width="1"/><path id="erskOQzNVuI36" d="M810.409000,226.152000C809.967000,226.112000,809.654000,225.575000,809.711000,224.952000C809.767000,224.330000,810.171000,223.857000,810.613000,223.897000C811.056000,223.937000,811.368000,224.473000,811.312000,225.096000C811.256000,225.719000,810.852000,226.191000,810.409000,226.152000Z" fill="rgb(78,86,102)" stroke="none" stroke-width="1"/><path id="erskOQzNVuI37" d="M802.515000,225.449000C802.073000,225.410000,801.760000,224.873000,801.817000,224.250000C801.873000,223.627000,802.277000,223.155000,802.719000,223.195000C803.162000,223.234000,803.474000,223.771000,803.418000,224.394000C803.362000,225.017000,802.958000,225.489000,802.515000,225.449000Z" fill="rgb(78,86,102)" stroke="none" stroke-width="1"/><path id="erskOQzNVuI38" d="M784.071000,323.482000C784.203000,323.477000,784.327000,323.421000,784.417000,323.325000C784.507000,323.230000,784.556000,323.103000,784.554000,322.971000C784.554000,322.891000,784.312000,314.737000,784.554000,311.041000C784.562000,310.910000,784.518000,310.780000,784.432000,310.681000C784.345000,310.582000,784.223000,310.520000,784.091000,310.510000C783.959000,310.507000,783.831000,310.554000,783.732000,310.641000C783.633000,310.728000,783.571000,310.850000,783.559000,310.981000C783.318000,314.717000,783.559000,322.921000,783.559000,323.002000C783.564000,323.133000,783.621000,323.256000,783.716000,323.346000C783.812000,323.436000,783.940000,323.485000,784.071000,323.482000Z" fill="rgb(255,255,255)" stroke="none" stroke-width="1"/><path id="erskOQzNVuI39" d="M778.624000,290.104000C778.738000,290.107000,778.849000,290.071000,778.939000,290.001000C779.029000,289.932000,779.091000,289.834000,779.117000,289.724000L786.082000,259.722000C786.096000,259.657000,786.098000,259.590000,786.087000,259.525000C786.076000,259.460000,786.052000,259.398000,786.016000,259.342000C785.981000,259.286000,785.934000,259.238000,785.880000,259.200000C785.826000,259.162000,785.764000,259.135000,785.700000,259.121000C785.571000,259.093000,785.436000,259.116000,785.324000,259.185000C785.211000,259.254000,785.130000,259.364000,785.097000,259.491000L778.132000,289.493000C778.117000,289.558000,778.115000,289.624000,778.127000,289.690000C778.138000,289.755000,778.162000,289.817000,778.197000,289.873000C778.233000,289.929000,778.279000,289.977000,778.333000,290.015000C778.388000,290.053000,778.449000,290.080000,778.514000,290.094000L778.624000,290.104000Z" fill="rgb(78,86,102)" stroke="none" stroke-width="1"/><path id="erskOQzNVuI40" d="M833.638000,288.072000L833.698000,288.072000C833.830000,288.057000,833.950000,287.990000,834.033000,287.887000C834.116000,287.784000,834.154000,287.652000,834.140000,287.521000L830.442000,254.924000C830.427000,254.792000,830.360000,254.670000,830.256000,254.586000C830.151000,254.503000,830.017000,254.464000,829.884000,254.479000C829.751000,254.493000,829.629000,254.560000,829.545000,254.664000C829.461000,254.769000,829.422000,254.902000,829.437000,255.035000L833.135000,287.601000C833.145000,287.728000,833.202000,287.846000,833.295000,287.933000C833.388000,288.020000,833.510000,288.070000,833.638000,288.072000Z" fill="rgb(78,86,102)" stroke="none" stroke-width="1"/><path id="erskOQzNVuI41" d="M820.814000,243.765000C820.814000,243.765000,832.773000,243.765000,836.020000,246.269000L836.020000,249.755000C836.020000,249.755000,824.482000,246.139000,820.814000,247.050000L820.814000,243.765000Z" fill="rgb(78,86,102)" stroke="none" stroke-width="1"/><path id="erskOQzNVuI42" d="M836.020000,250.256000C836.125000,250.257000,836.228000,250.221000,836.311000,250.156000C836.375000,250.110000,836.426000,250.050000,836.461000,249.980000C836.496000,249.910000,836.514000,249.833000,836.512000,249.755000L836.512000,246.269000C836.511000,246.194000,836.493000,246.120000,836.460000,246.052000C836.427000,245.985000,836.380000,245.925000,836.321000,245.878000C832.985000,243.294000,821.306000,243.264000,820.814000,243.264000C820.681000,243.264000,820.553000,243.316000,820.459000,243.410000C820.364000,243.504000,820.312000,243.632000,820.312000,243.765000L820.312000,247.050000C820.311000,247.127000,820.328000,247.203000,820.361000,247.272000C820.394000,247.342000,820.442000,247.403000,820.502000,247.451000C820.564000,247.495000,820.634000,247.526000,820.709000,247.542000C820.783000,247.557000,820.860000,247.557000,820.935000,247.541000C824.422000,246.660000,835.748000,250.196000,835.869000,250.236000L836.020000,250.256000ZM835.517000,246.529000L835.517000,249.084000C833.135000,248.373000,825.005000,246.079000,821.306000,246.459000L821.306000,244.265000C823.538000,244.305000,832.583000,244.566000,835.517000,246.529000Z" fill="rgb(78,86,102)" stroke="none" stroke-width="1"/><path id="erskOQzNVuI43" d="M797.217000,244.286000L797.890000,246.760000C797.890000,246.760000,786.564000,247.611000,782.112000,250.506000L781.227000,247.391000C781.227000,247.391000,790.061000,243.184000,797.217000,244.286000Z" fill="rgb(78,86,102)" stroke="none" stroke-width="1"/><path id="erskOQzNVuI44" d="M782.112000,251.007000C782.208000,251.006000,782.302000,250.978000,782.383000,250.927000C786.674000,248.133000,797.810000,247.271000,797.930000,247.261000C798.004000,247.254000,798.075000,247.232000,798.139000,247.195000C798.203000,247.159000,798.259000,247.110000,798.302000,247.051000C798.344000,246.990000,798.372000,246.921000,798.384000,246.848000C798.396000,246.775000,798.392000,246.701000,798.373000,246.630000L797.699000,244.156000C797.674000,244.062000,797.623000,243.978000,797.552000,243.912000C797.481000,243.847000,797.393000,243.803000,797.297000,243.785000C790.061000,242.673000,781.378000,246.790000,781.016000,246.940000C780.909000,246.992000,780.824000,247.080000,780.774000,247.187000C780.725000,247.295000,780.714000,247.417000,780.745000,247.532000L781.629000,250.647000C781.650000,250.722000,781.688000,250.791000,781.740000,250.848000C781.793000,250.906000,781.858000,250.950000,781.931000,250.977000C781.989000,250.997000,782.050000,251.007000,782.112000,251.007000ZM797.247000,246.319000C794.926000,246.530000,786.614000,247.421000,782.413000,249.745000L781.830000,247.672000C783.559000,246.910000,790.795000,243.945000,796.825000,244.727000L797.247000,246.319000Z" fill="rgb(78,86,102)" stroke="none" stroke-width="1"/><path id="erskOQzNVuI45" d="M658.376000,354.696000C658.888000,354.696000,659.381000,354.696000,659.913000,354.696000C663.140000,354.546000,666.948000,353.314000,667.742000,350.208000C668.104000,350.619000,668.486000,351.010000,668.868000,351.400000L767.740000,270.110000C768.160000,269.764000,768.425000,269.267000,768.477000,268.727000C768.528000,268.187000,768.363000,267.648000,768.016000,267.230000C767.670000,266.811000,767.171000,266.547000,766.629000,266.496000C766.087000,266.444000,765.547000,266.609000,765.127000,266.954000L658.376000,354.696000Z" fill="rgb(255,255,255)" stroke="none" stroke-width="1"/><path id="erskOQzNVuI46" d="M658.798000,355.197000L659.934000,355.197000C663.060000,355.047000,666.657000,353.905000,667.974000,351.190000L668.547000,351.791000C668.642000,351.873000,668.763000,351.918000,668.889000,351.918000C669.014000,351.918000,669.135000,351.873000,669.230000,351.791000L768.152000,270.521000C768.671000,270.086000,768.998000,269.465000,769.062000,268.793000C769.126000,268.120000,768.922000,267.449000,768.494000,266.925000C768.282000,266.668000,768.021000,266.455000,767.726000,266.298000C767.431000,266.142000,767.108000,266.045000,766.776000,266.013000C766.098000,265.950000,765.423000,266.155000,764.896000,266.584000L658.095000,354.326000C658.019000,354.393000,657.965000,354.481000,657.940000,354.579000C657.914000,354.677000,657.918000,354.780000,657.952000,354.875000C657.985000,354.971000,658.046000,355.054000,658.127000,355.115000C658.208000,355.176000,658.305000,355.212000,658.406000,355.217000L658.798000,355.197000ZM667.743000,349.688000L667.632000,349.688000C667.543000,349.707000,667.461000,349.752000,667.395000,349.815000C667.329000,349.879000,667.283000,349.960000,667.260000,350.048000C666.497000,352.863000,662.959000,354.055000,659.894000,354.166000L659.793000,354.166000L765.499000,267.345000C765.657000,267.213000,765.839000,267.114000,766.036000,267.053000C766.233000,266.993000,766.440000,266.973000,766.645000,266.995000C766.841000,267.015000,767.031000,267.074000,767.203000,267.169000C767.376000,267.264000,767.528000,267.392000,767.650000,267.546000C767.781000,267.701000,767.880000,267.881000,767.941000,268.075000C768.003000,268.268000,768.024000,268.472000,768.006000,268.675000C767.987000,268.877000,767.928000,269.073000,767.832000,269.253000C767.737000,269.432000,767.607000,269.591000,767.449000,269.719000L668.889000,350.700000C668.614000,350.426000,668.353000,350.145000,668.105000,349.858000C668.059000,349.807000,668.003000,349.766000,667.941000,349.737000C667.879000,349.708000,667.811000,349.691000,667.743000,349.688000Z" fill="rgb(78,86,102)" stroke="none" stroke-width="1"/><path id="erskOQzNVuI47" d="M746.715000,274.357000C747.343000,274.137000,748.015000,274.068000,748.675000,274.157000C749.138000,274.268000,749.577000,274.461000,749.971000,274.728000C750.967000,275.344000,751.837000,276.143000,752.534000,277.082000C751.960000,277.269000,751.442000,277.596000,751.027000,278.034000C751.708000,278.800000,752.097000,279.782000,752.124000,280.806000C752.152000,281.830000,751.817000,282.831000,751.177000,283.633000C750.335000,284.499000,749.303000,285.157000,748.162000,285.557000C747.316000,285.970000,746.399000,286.222000,745.459000,286.298000C744.562000,286.293000,743.682000,286.049000,742.912000,285.591000C742.141000,285.133000,741.508000,284.478000,741.077000,283.693000C738.334000,278.965000,742.344000,275.629000,746.715000,274.357000Z" fill="rgb(255,255,255)" stroke="none" stroke-width="1"/><path id="erskOQzNVuI48" d="M745.329000,286.799000L745.490000,286.799000C746.491000,286.719000,747.469000,286.454000,748.374000,286.017000C749.581000,285.592000,750.672000,284.893000,751.560000,283.974000C752.228000,283.146000,752.605000,282.123000,752.634000,281.061000C752.663000,279.999000,752.342000,278.957000,751.721000,278.094000C752.025000,277.867000,752.364000,277.691000,752.726000,277.573000C752.800000,277.548000,752.868000,277.506000,752.924000,277.450000C752.980000,277.394000,753.022000,277.327000,753.047000,277.252000C753.069000,277.176000,753.073000,277.096000,753.059000,277.018000C753.045000,276.940000,753.014000,276.866000,752.967000,276.802000C752.234000,275.815000,751.320000,274.975000,750.273000,274.327000C749.824000,274.026000,749.323000,273.809000,748.796000,273.686000C748.059000,273.577000,747.307000,273.649000,746.605000,273.897000C743.329000,274.898000,740.947000,276.631000,740.083000,278.795000C739.752000,279.638000,739.627000,280.547000,739.718000,281.447000C739.808000,282.348000,740.113000,283.214000,740.605000,283.974000C741.078000,284.814000,741.762000,285.517000,742.590000,286.012000C743.419000,286.507000,744.363000,286.779000,745.329000,286.799000ZM751.731000,276.882000C751.333000,277.088000,750.973000,277.359000,750.665000,277.683000C750.576000,277.776000,750.527000,277.900000,750.527000,278.029000C750.527000,278.157000,750.576000,278.281000,750.665000,278.374000C751.265000,279.051000,751.607000,279.916000,751.633000,280.818000C751.659000,281.721000,751.366000,282.603000,750.806000,283.313000C750.014000,284.110000,749.052000,284.719000,747.992000,285.096000C747.198000,285.481000,746.339000,285.719000,745.459000,285.797000C744.655000,285.781000,743.869000,285.555000,743.180000,285.142000C742.490000,284.729000,741.921000,284.143000,741.530000,283.443000C741.109000,282.819000,740.841000,282.105000,740.747000,281.358000C740.653000,280.612000,740.735000,279.854000,740.987000,279.146000C741.731000,277.302000,743.932000,275.690000,746.866000,274.838000C747.416000,274.639000,748.005000,274.574000,748.585000,274.648000C748.989000,274.751000,749.372000,274.920000,749.721000,275.149000C750.471000,275.627000,751.148000,276.211000,751.731000,276.882000Z" fill="rgb(78,86,102)" stroke="none" stroke-width="1"/><path id="erskOQzNVuI49" d="M912.531000,355.228000L932.801000,356.640000L991.312000,385.680000L955.987000,404.403000L912.531000,368.080000L912.531000,355.228000Z" fill="rgb(255,255,255)" stroke="none" stroke-width="1"/><path id="erskOQzNVuI50" d="M955.977000,404.914000C956.061000,404.914000,956.144000,404.893000,956.218000,404.854000L991.544000,386.151000C991.626000,386.109000,991.695000,386.044000,991.743000,385.964000C991.791000,385.885000,991.816000,385.793000,991.815000,385.700000C991.814000,385.608000,991.788000,385.518000,991.738000,385.440000C991.688000,385.362000,991.617000,385.299000,991.534000,385.260000L933.022000,356.209000C932.964000,356.178000,932.898000,356.160000,932.831000,356.159000L912.561000,354.747000C912.493000,354.743000,912.425000,354.753000,912.362000,354.775000C912.298000,354.797000,912.239000,354.832000,912.189000,354.877000C912.137000,354.922000,912.095000,354.977000,912.068000,355.039000C912.040000,355.102000,912.026000,355.170000,912.028000,355.238000L912.028000,368.120000C912.027000,368.192000,912.041000,368.264000,912.071000,368.329000C912.100000,368.395000,912.144000,368.454000,912.199000,368.501000L955.675000,404.793000C955.760000,404.865000,955.866000,404.907000,955.977000,404.914000ZM990.217000,385.700000L956.047000,403.812000L913.033000,367.840000L913.033000,355.759000L932.671000,357.101000L990.217000,385.700000Z" fill="rgb(78,86,102)" stroke="none" stroke-width="1"/><path id="erskOQzNVuI51" d="M702.858000,262.206000C702.858000,262.206000,770.816000,299.270000,815.779000,308.346000C879.727000,321.268000,949.444000,317.261000,949.444000,317.261000L931.063000,349.206000C901.262000,354.709000,871.072000,357.864000,840.774000,358.643000C807.136000,359.424000,759.369000,358.713000,759.369000,358.713000C759.369000,358.713000,721.802000,337.316000,708.385000,301.614000C694.968000,265.912000,702.858000,262.206000,702.858000,262.206000Z" fill="rgb(255,255,255)" stroke="none" stroke-width="1"/><path id="erskOQzNVuI52" d="M802.543000,359.515000C815.277000,359.515000,828.975000,359.425000,840.844000,359.145000C871.168000,358.341000,901.382000,355.182000,931.214000,349.698000C931.284000,349.683000,931.350000,349.653000,931.407000,349.610000C931.465000,349.566000,931.512000,349.511000,931.545000,349.448000L949.937000,317.513000C949.981000,317.435000,950.004000,317.347000,950.004000,317.257000C950.004000,317.168000,949.981000,317.080000,949.937000,317.002000C949.891000,316.922000,949.823000,316.857000,949.741000,316.814000C949.659000,316.771000,949.567000,316.753000,949.474000,316.761000C948.781000,316.761000,879.044000,320.618000,815.890000,307.856000C771.509000,298.840000,703.782000,262.137000,703.109000,261.776000C703.037000,261.742000,702.958000,261.724000,702.878000,261.724000C702.798000,261.724000,702.719000,261.742000,702.646000,261.776000C702.315000,261.947000,694.606000,266.174000,707.983000,301.846000C721.309000,337.267000,758.816000,358.944000,759.238000,359.165000C759.313000,359.203000,759.395000,359.224000,759.479000,359.225000C759.700000,359.225000,779.569000,359.515000,802.543000,359.515000ZM930.792000,348.757000C901.086000,354.182000,871.003000,357.307000,840.814000,358.103000C808.433000,358.854000,762.424000,358.223000,759.570000,358.183000C757.308000,356.851000,721.752000,335.574000,708.918000,301.445000C697.209000,270.321000,701.883000,263.740000,702.888000,262.768000C707.762000,265.392000,772.625000,300.092000,815.669000,308.798000C874.964000,320.818000,940.108000,318.174000,948.590000,317.813000L930.792000,348.757000Z" fill="rgb(78,86,102)" stroke="none" stroke-width="1"/><path id="erskOQzNVuI53" d="M685.189000,267.115000C683.006000,268.901000,681.304000,271.201000,680.237000,273.807000C679.171000,276.413000,678.772000,279.243000,679.079000,282.041000C679.079000,282.041000,692.777000,311.782000,705.320000,329.443000C719.028000,348.766000,728.646000,354.376000,733.791000,356.490000C736.898000,357.764000,740.196000,358.516000,743.550000,358.714000C743.550000,358.714000,688.546000,296.085000,685.189000,267.115000Z" fill="rgb(255,255,255)" stroke="none" stroke-width="1"/><path id="erskOQzNVuI54" d="M743.550000,359.214000C743.645000,359.214000,743.739000,359.188000,743.820000,359.139000C743.902000,359.089000,743.968000,359.018000,744.012000,358.934000C744.051000,358.844000,744.064000,358.744000,744.050000,358.647000C744.036000,358.550000,743.995000,358.458000,743.932000,358.383000C743.379000,357.762000,688.988000,295.544000,685.692000,267.055000C685.683000,266.967000,685.651000,266.883000,685.598000,266.813000C685.544000,266.742000,685.473000,266.687000,685.390000,266.654000C685.311000,266.620000,685.224000,266.606000,685.138000,266.615000C685.051000,266.624000,684.969000,266.655000,684.898000,266.705000C682.655000,268.553000,680.905000,270.924000,679.802000,273.608000C678.699000,276.292000,678.278000,279.206000,678.576000,282.091000C678.583000,282.147000,678.600000,282.202000,678.627000,282.251000C678.757000,282.552000,692.476000,312.233000,704.907000,329.734000C715.158000,344.178000,724.817000,353.334000,733.600000,356.951000C736.763000,358.255000,740.123000,359.021000,743.540000,359.214000L743.550000,359.214000ZM684.818000,268.057000C686.606000,280.198000,696.878000,299.030000,715.229000,324.044000C727.289000,340.492000,739.228000,354.456000,742.364000,358.103000C739.482000,357.801000,736.657000,357.096000,733.972000,356.009000C725.369000,352.463000,715.882000,343.427000,705.711000,329.132000C693.651000,312.103000,680.345000,283.584000,679.581000,281.891000C679.326000,279.343000,679.666000,276.771000,680.575000,274.377000C681.483000,271.982000,682.935000,269.829000,684.818000,268.087000L684.818000,268.057000Z" fill="rgb(78,86,102)" stroke="none" stroke-width="1"/><path id="erskOQzNVuI55" d="M696.667000,257.929000L702.857000,262.166000C702.857000,262.166000,711.380000,292.218000,719.179000,306.673000C734.836000,335.793000,759.429000,358.673000,759.429000,358.673000L755.409000,360.456000C755.409000,360.456000,720.505000,329.743000,708.445000,308.346000C696.385000,286.949000,696.667000,257.929000,696.667000,257.929000Z" fill="rgb(255,255,255)" stroke="none" stroke-width="1"/><path id="erskOQzNVuI56" d="M755.409000,360.997000C755.475000,361.010000,755.543000,361.010000,755.610000,360.997000L759.630000,359.214000C759.706000,359.182000,759.773000,359.131000,759.824000,359.066000C759.875000,359.002000,759.909000,358.925000,759.921000,358.843000C759.936000,358.761000,759.929000,358.677000,759.903000,358.599000C759.877000,358.520000,759.831000,358.449000,759.771000,358.392000C759.529000,358.162000,735.058000,335.222000,719.621000,306.513000C711.943000,292.228000,703.420000,262.436000,703.340000,262.116000C703.311000,262,703.239000,261.900000,703.139000,261.835000L696.958000,257.598000C696.878000,257.554000,696.788000,257.531000,696.697000,257.531000C696.605000,257.531000,696.515000,257.554000,696.435000,257.598000C696.356000,257.642000,696.289000,257.705000,696.241000,257.783000C696.193000,257.860000,696.167000,257.948000,696.164000,258.039000C696.164000,258.329000,696.003000,287.390000,708.013000,308.656000C720.023000,329.923000,754.725000,360.636000,755.067000,360.947000C755.173000,361,755.292000,361.018000,755.409000,360.997000ZM758.544000,358.563000L755.529000,359.915000C752.414000,357.140000,720.284000,328.250000,708.918000,308.095000C698.264000,289.223000,697.290000,264.099000,697.209000,258.930000L702.415000,262.517000C703.129000,265.001000,711.299000,293.140000,718.726000,306.943000C732.957000,333.409000,754.816000,354.986000,758.544000,358.563000Z" fill="rgb(78,86,102)" stroke="none" stroke-width="1"/><path id="erskOQzNVuI57" d="M755.409000,360.496000C755.409000,360.496000,733.419000,340.461000,718.284000,312.132000C705.118000,287.500000,696.666000,257.969000,696.666000,257.969000L679.079000,259.752000C679.079000,259.752000,689.812000,296.606000,708.003000,322.460000C726.193000,348.315000,743.178000,359.945000,743.178000,359.945000L755.409000,360.496000Z" fill="rgb(255,255,255)" stroke="none" stroke-width="1"/><path id="erskOQzNVuI58" d="M755.409000,360.997000C755.510000,360.995000,755.608000,360.964000,755.691000,360.906000C755.773000,360.849000,755.837000,360.768000,755.873000,360.673000C755.908000,360.579000,755.915000,360.477000,755.891000,360.379000C755.868000,360.281000,755.815000,360.193000,755.741000,360.125000C755.520000,359.935000,733.631000,339.800000,718.727000,311.902000C705.742000,287.600000,697.240000,258.129000,697.149000,257.808000C697.119000,257.694000,697.048000,257.595000,696.950000,257.529000C696.852000,257.463000,696.734000,257.434000,696.617000,257.448000L679.029000,259.231000C678.955000,259.235000,678.884000,259.258000,678.821000,259.296000C678.758000,259.334000,678.705000,259.388000,678.667000,259.451000C678.624000,259.509000,678.595000,259.577000,678.583000,259.648000C678.571000,259.719000,678.575000,259.793000,678.597000,259.862000C678.707000,260.232000,689.561000,297.096000,707.591000,322.720000C725.621000,348.345000,742.766000,360.205000,742.937000,360.326000C743.015000,360.378000,743.105000,360.409000,743.198000,360.416000L755.379000,360.967000L755.409000,360.997000ZM696.305000,258.509000C697.370000,262.146000,705.631000,289.563000,717.842000,312.373000C731.028000,337.065000,749.650000,355.657000,754.082000,359.935000L743.389000,359.444000C741.862000,358.372000,725.550000,346.542000,708.405000,322.170000C691.712000,298.439000,681.190000,264.981000,679.733000,260.192000L696.305000,258.509000Z" fill="rgb(78,86,102)" stroke="none" stroke-width="1"/><path id="erskOQzNVuI59" d="M896.873000,325.546000C912.371000,325.636000,927.865000,324.948000,943.294000,323.483000C943.425000,323.468000,943.546000,323.401000,943.629000,323.298000C943.711000,323.195000,943.750000,323.063000,943.736000,322.932000C943.731000,322.866000,943.713000,322.801000,943.682000,322.743000C943.651000,322.684000,943.608000,322.633000,943.556000,322.591000C943.504000,322.550000,943.444000,322.519000,943.380000,322.502000C943.316000,322.485000,943.249000,322.481000,943.183000,322.491000C942.852000,322.491000,909.114000,326.248000,864.160000,323.583000C822.694000,321.139000,762.926000,312.564000,713.712000,285.868000C713.654000,285.827000,713.588000,285.799000,713.519000,285.785000C713.449000,285.771000,713.378000,285.772000,713.309000,285.788000C713.240000,285.804000,713.175000,285.834000,713.118000,285.876000C713.062000,285.919000,713.015000,285.973000,712.981000,286.034000C712.947000,286.096000,712.926000,286.164000,712.920000,286.235000C712.914000,286.305000,712.923000,286.376000,712.947000,286.442000C712.970000,286.509000,713.007000,286.570000,713.056000,286.621000C713.105000,286.672000,713.164000,286.712000,713.229000,286.739000C762.615000,313.576000,822.543000,322.130000,864.120000,324.585000C875.949000,325.286000,887.004000,325.546000,896.873000,325.546000Z" fill="rgb(208,211,217)" stroke="none" stroke-width="1"/><path id="erskOQzNVuI60" d="M875.144000,336.485000C895.386000,336.553000,915.617000,335.570000,935.756000,333.540000C935.822000,333.532000,935.886000,333.512000,935.944000,333.479000C936.001000,333.447000,936.052000,333.403000,936.094000,333.351000C936.135000,333.299000,936.165000,333.239000,936.183000,333.175000C936.201000,333.112000,936.206000,333.045000,936.198000,332.979000C936.190000,332.913000,936.169000,332.850000,936.137000,332.792000C936.104000,332.734000,936.060000,332.684000,936.008000,332.643000C935.956000,332.602000,935.896000,332.571000,935.832000,332.554000C935.768000,332.536000,935.701000,332.531000,935.635000,332.538000C911.574000,334.936000,887.390000,335.882000,863.215000,335.373000C825.437000,334.642000,771.358000,329.934000,728.233000,311.642000C728.173000,311.616000,728.109000,311.602000,728.043000,311.601000C727.978000,311.600000,727.913000,311.611000,727.852000,311.636000C727.791000,311.660000,727.736000,311.696000,727.689000,311.742000C727.642000,311.788000,727.605000,311.842000,727.580000,311.903000C727.554000,311.963000,727.539000,312.028000,727.538000,312.094000C727.537000,312.160000,727.549000,312.226000,727.573000,312.288000C727.597000,312.349000,727.633000,312.405000,727.679000,312.452000C727.726000,312.500000,727.781000,312.538000,727.841000,312.564000C771.117000,330.916000,825.326000,335.604000,863.205000,336.375000C867.295000,336.455000,871.255000,336.485000,875.144000,336.485000Z" fill="rgb(208,211,217)" stroke="none" stroke-width="1"/><path id="erskOQzNVuI61" d="M845.125000,348.536000C873.996000,348.596000,902.830000,346.493000,931.385000,342.245000C931.450000,342.234000,931.513000,342.211000,931.569000,342.176000C931.625000,342.140000,931.674000,342.094000,931.712000,342.040000C931.750000,341.986000,931.778000,341.925000,931.792000,341.861000C931.807000,341.796000,931.808000,341.729000,931.797000,341.664000C931.787000,341.599000,931.764000,341.537000,931.730000,341.481000C931.696000,341.425000,931.650000,341.377000,931.597000,341.338000C931.544000,341.300000,931.483000,341.273000,931.419000,341.258000C931.355000,341.244000,931.288000,341.242000,931.224000,341.254000C930.219000,341.424000,830.834000,357.962000,745.047000,336.696000C744.983000,336.679000,744.917000,336.675000,744.851000,336.685000C744.786000,336.694000,744.723000,336.716000,744.666000,336.749000C744.609000,336.783000,744.559000,336.827000,744.519000,336.880000C744.480000,336.933000,744.451000,336.993000,744.434000,337.056000C744.418000,337.121000,744.415000,337.188000,744.424000,337.254000C744.434000,337.320000,744.457000,337.383000,744.492000,337.440000C744.526000,337.497000,744.572000,337.546000,744.626000,337.585000C744.680000,337.624000,744.741000,337.652000,744.806000,337.667000C778.444000,345.992000,814.121000,348.536000,845.125000,348.536000Z" fill="rgb(208,211,217)" stroke="none" stroke-width="1"/><path id="erskOQzNVuI62" d="M687.250000,294.432000C687.325000,294.433000,687.400000,294.416000,687.468000,294.383000C687.536000,294.350000,687.595000,294.302000,687.642000,294.242000L689.903000,291.427000C689.944000,291.376000,689.975000,291.317000,689.994000,291.254000C690.013000,291.190000,690.019000,291.124000,690.012000,291.058000C690.005000,290.993000,689.985000,290.929000,689.953000,290.871000C689.922000,290.813000,689.879000,290.762000,689.827000,290.721000C689.776000,290.679000,689.717000,290.649000,689.653000,290.630000C689.590000,290.611000,689.523000,290.605000,689.458000,290.612000C689.392000,290.619000,689.328000,290.639000,689.270000,290.671000C689.212000,290.702000,689.160000,290.745000,689.119000,290.796000L686.858000,293.621000C686.775000,293.725000,686.738000,293.857000,686.753000,293.988000C686.768000,294.119000,686.835000,294.239000,686.938000,294.322000C687.027000,294.392000,687.136000,294.431000,687.250000,294.432000Z" fill="rgb(208,211,217)" stroke="none" stroke-width="1"/><path id="erskOQzNVuI63" d="M699.601000,318.594000C699.673000,318.593000,699.744000,318.578000,699.810000,318.549000C699.875000,318.519000,699.934000,318.477000,699.983000,318.424000L701.993000,316.170000C702.040000,316.124000,702.077000,316.069000,702.102000,316.009000C702.128000,315.949000,702.141000,315.884000,702.141000,315.819000C702.141000,315.754000,702.128000,315.689000,702.102000,315.629000C702.077000,315.569000,702.040000,315.514000,701.993000,315.468000C701.946000,315.422000,701.891000,315.384000,701.829000,315.359000C701.768000,315.333000,701.702000,315.320000,701.636000,315.320000C701.570000,315.320000,701.504000,315.333000,701.443000,315.359000C701.382000,315.384000,701.326000,315.422000,701.279000,315.468000L699.269000,317.732000C699.222000,317.778000,699.185000,317.833000,699.160000,317.893000C699.135000,317.953000,699.121000,318.018000,699.121000,318.083000C699.121000,318.148000,699.135000,318.213000,699.160000,318.273000C699.185000,318.333000,699.222000,318.388000,699.269000,318.434000C699.311000,318.482000,699.361000,318.521000,699.418000,318.548000C699.475000,318.576000,699.538000,318.591000,699.601000,318.594000Z" fill="rgb(208,211,217)" stroke="none" stroke-width="1"/><path id="erskOQzNVuI64" d="M715.359000,338.488000C716.033000,338.496000,716.706000,338.442000,717.369000,338.328000C717.434000,338.315000,717.496000,338.289000,717.550000,338.252000C717.605000,338.215000,717.652000,338.168000,717.688000,338.113000C717.725000,338.058000,717.750000,337.997000,717.762000,337.932000C717.775000,337.868000,717.775000,337.801000,717.761000,337.737000C717.751000,337.672000,717.727000,337.610000,717.691000,337.555000C717.656000,337.500000,717.609000,337.452000,717.555000,337.416000C717.500000,337.379000,717.438000,337.354000,717.374000,337.342000C717.309000,337.330000,717.243000,337.331000,717.178000,337.346000C715.986000,337.530000,714.773000,337.530000,713.580000,337.346000C713.515000,337.335000,713.447000,337.338000,713.382000,337.353000C713.317000,337.369000,713.256000,337.397000,713.202000,337.436000C713.147000,337.475000,713.102000,337.524000,713.067000,337.581000C713.032000,337.638000,713.008000,337.701000,712.998000,337.767000C712.987000,337.832000,712.990000,337.900000,713.005000,337.964000C713.021000,338.029000,713.049000,338.090000,713.088000,338.144000C713.127000,338.198000,713.177000,338.244000,713.234000,338.279000C713.290000,338.314000,713.354000,338.337000,713.420000,338.348000C714.061000,338.447000,714.710000,338.494000,715.359000,338.488000Z" fill="rgb(208,211,217)" stroke="none" stroke-width="1"/><path id="erskOQzNVuI65" d="M949.494000,317.262000L954.560000,317.262000L935.867000,349.027000L931.113000,349.207000L949.494000,317.262000Z" fill="rgb(255,255,255)" stroke="none" stroke-width="1"/><path id="erskOQzNVuI66" d="M931.113000,349.708000L935.867000,349.527000C935.951000,349.524000,936.033000,349.500000,936.106000,349.456000C936.178000,349.412000,936.237000,349.350000,936.279000,349.277000L954.972000,317.512000C955.016000,317.436000,955.039000,317.350000,955.039000,317.262000C955.039000,317.174000,955.016000,317.087000,954.972000,317.011000C954.928000,316.935000,954.865000,316.873000,954.789000,316.829000C954.713000,316.785000,954.627000,316.761000,954.540000,316.761000L949.515000,316.761000C949.427000,316.761000,949.341000,316.785000,949.265000,316.829000C949.189000,316.873000,949.126000,316.935000,949.082000,317.011000L930.691000,348.956000C930.644000,349.031000,930.619000,349.118000,930.619000,349.207000C930.619000,349.295000,930.644000,349.382000,930.691000,349.457000C930.734000,349.532000,930.795000,349.594000,930.869000,349.637000C930.943000,349.681000,931.027000,349.705000,931.113000,349.708000ZM935.575000,348.536000L931.997000,348.666000L949.786000,317.762000L953.665000,317.762000L935.575000,348.536000Z" fill="rgb(78,86,102)" stroke="none" stroke-width="1"/><path id="erskOQzNVuI67" d="M786.105000,273.613000L786.111000,273.604000C786.724000,272.656000,787.993000,272.382000,788.945000,272.994000L945.844000,373.779000C946.795000,374.391000,947.070000,375.655000,946.456000,376.604000L946.451000,376.613000C945.837000,377.561000,944.569000,377.835000,943.617000,377.223000L786.718000,276.438000C785.766000,275.826000,785.492000,274.562000,786.105000,273.613000Z" fill="rgb(255,255,255)" stroke="none" stroke-width="1"/><path id="erskOQzNVuI68" d="M944.700000,378.057000C944.883000,378.057000,945.065000,378.036000,945.243000,377.997000C945.908000,377.853000,946.490000,377.453000,946.861000,376.885000C947.042000,376.602000,947.166000,376.287000,947.225000,375.957000C947.283000,375.627000,947.276000,375.289000,947.203000,374.961000C947.134000,374.633000,947,374.323000,946.808000,374.047000C946.616000,373.772000,946.371000,373.538000,946.087000,373.359000L789.207000,272.574000C788.926000,272.392000,788.612000,272.268000,788.282000,272.207000C787.953000,272.147000,787.615000,272.153000,787.287000,272.224000C786.794000,272.332000,786.343000,272.583000,785.992000,272.946000C785.641000,273.309000,785.406000,273.767000,785.316000,274.263000C785.226000,274.758000,785.285000,275.270000,785.485000,275.732000C785.686000,276.195000,786.019000,276.588000,786.443000,276.862000L943.324000,377.646000C943.733000,377.914000,944.211000,378.056000,944.700000,378.057000ZM787.840000,273.165000C788.136000,273.168000,788.426000,273.255000,788.674000,273.416000L945.545000,374.200000C945.720000,374.312000,945.872000,374.459000,945.989000,374.631000C946.107000,374.803000,946.188000,374.998000,946.228000,375.202000C946.313000,375.606000,946.233000,376.028000,946.007000,376.374000C945.897000,376.544000,945.754000,376.691000,945.587000,376.807000C945.420000,376.922000,945.231000,377.004000,945.032000,377.047000C944.834000,377.089000,944.628000,377.093000,944.428000,377.056000C944.228000,377.020000,944.037000,376.945000,943.866000,376.835000L786.986000,276.050000C786.811000,275.937000,786.660000,275.790000,786.543000,275.618000C786.425000,275.446000,786.344000,275.253000,786.302000,275.049000C786.261000,274.850000,786.259000,274.645000,786.297000,274.446000C786.335000,274.246000,786.412000,274.056000,786.523000,273.887000C786.634000,273.710000,786.781000,273.559000,786.954000,273.444000C787.127000,273.328000,787.323000,273.250000,787.528000,273.215000C787.630000,273.186000,787.734000,273.169000,787.840000,273.165000Z" fill="rgb(78,86,102)" stroke="none" stroke-width="1"/><path id="erskOQzNVuI69" d="M847.678000,295.123000C847.678000,295.123000,826.211000,287.249000,822.342000,286.107000C818.472000,284.965000,809.769000,284.104000,807.809000,286.999000C805.850000,289.894000,806.553000,294.011000,807.809000,295.013000C809.066000,296.014000,815.849000,300.953000,817.116000,298.879000C818.127000,296.914000,818.978000,294.871000,819.658000,292.769000L823.347000,295.143000L843.537000,308.115000" fill="rgb(255,255,255)" stroke="none" stroke-width="1"/><path id="erskOQzNVuI70" d="M843.537000,308.577000C843.647000,308.579000,843.753000,308.545000,843.842000,308.481000C843.930000,308.417000,843.995000,308.326000,844.027000,308.222000C844.059000,308.118000,844.056000,308.006000,844.018000,307.904000C843.980000,307.802000,843.910000,307.714000,843.819000,307.655000L819.930000,292.309000C819.861000,292.277000,819.785000,292.260000,819.709000,292.260000C819.632000,292.260000,819.557000,292.277000,819.488000,292.309000C819.415000,292.334000,819.350000,292.374000,819.296000,292.428000C819.242000,292.482000,819.201000,292.547000,819.176000,292.619000C818.508000,294.686000,817.674000,296.696000,816.684000,298.630000C816.643000,298.699000,816.586000,298.758000,816.518000,298.802000C816.450000,298.845000,816.372000,298.872000,816.292000,298.880000C814.503000,299.171000,809.739000,295.965000,808.131000,294.633000C807.066000,293.751000,806.453000,289.875000,808.232000,287.280000C810.011000,284.686000,818.362000,285.417000,822.191000,286.589000C826.020000,287.761000,847.316000,295.604000,847.507000,295.604000C847.632000,295.650000,847.770000,295.643000,847.891000,295.587000C848.012000,295.531000,848.105000,295.429000,848.150000,295.304000C848.174000,295.242000,848.185000,295.176000,848.183000,295.110000C848.180000,295.044000,848.165000,294.979000,848.137000,294.919000C848.108000,294.859000,848.068000,294.806000,848.019000,294.762000C847.969000,294.718000,847.912000,294.684000,847.849000,294.663000C847.638000,294.583000,826.332000,286.769000,822.483000,285.587000C819.116000,284.585000,809.669000,283.363000,807.408000,286.679000C805.327000,289.684000,805.980000,294.102000,807.498000,295.364000C807.558000,295.364000,813.799000,300.303000,816.473000,299.822000C816.697000,299.788000,816.911000,299.706000,817.100000,299.582000C817.290000,299.457000,817.449000,299.293000,817.568000,299.101000C818.510000,297.305000,819.303000,295.435000,819.940000,293.511000L843.276000,308.537000C843.359000,308.571000,843.448000,308.584000,843.537000,308.577000Z" fill="rgb(78,86,102)" stroke="none" stroke-width="1"/><path id="erskOQzNVuI71" d="M770.705000,369.252000C776.735000,369.252000,784.105000,367.756000,792.815000,364.764000C799.973000,362.249000,806.931000,359.199000,813.628000,355.639000C815.729000,356.721000,829.959000,363.833000,839.758000,363.162000C843.979000,362.871000,856.491000,357.392000,859.737000,353.525000C870.739000,359.257000,882.734000,362.850000,895.083000,364.113000C895.149000,364.120000,895.215000,364.114000,895.278000,364.095000C895.341000,364.076000,895.400000,364.044000,895.450000,364.002000C895.501000,363.960000,895.543000,363.909000,895.573000,363.850000C895.603000,363.792000,895.621000,363.728000,895.626000,363.663000C895.640000,363.531000,895.602000,363.400000,895.519000,363.296000C895.436000,363.193000,895.316000,363.127000,895.184000,363.112000C882.807000,361.867000,870.786000,358.258000,859.778000,352.483000C859.669000,352.428000,859.544000,352.413000,859.426000,352.443000C859.307000,352.472000,859.204000,352.544000,859.134000,352.644000C856.743000,356.029000,844.130000,361.890000,839.637000,362.200000C829.587000,362.901000,814,354.757000,813.839000,354.667000C813.764000,354.630000,813.682000,354.611000,813.598000,354.611000C813.514000,354.611000,813.432000,354.630000,813.357000,354.667000C806.633000,358.255000,799.645000,361.326000,792.453000,363.853000C782.031000,367.449000,767.850000,370.685000,759.408000,365.646000C759.352000,365.610000,759.289000,365.586000,759.223000,365.575000C759.157000,365.564000,759.090000,365.567000,759.025000,365.583000C758.960000,365.599000,758.899000,365.628000,758.846000,365.668000C758.792000,365.708000,758.748000,365.758000,758.715000,365.816000C758.680000,365.873000,758.657000,365.936000,758.647000,366.001000C758.637000,366.066000,758.640000,366.133000,758.656000,366.197000C758.672000,366.262000,758.700000,366.322000,758.740000,366.375000C758.779000,366.429000,758.829000,366.474000,758.886000,366.508000C762.505000,368.468000,766.589000,369.417000,770.705000,369.252000Z" fill="rgb(208,211,217)" stroke="none" stroke-width="1"/><path id="erskOQzNVuI72" d="M713.922000,361.839000C713.988000,361.851000,714.056000,361.850000,714.122000,361.835000C714.187000,361.821000,714.249000,361.794000,714.304000,361.756000C714.359000,361.718000,714.406000,361.669000,714.442000,361.613000C714.479000,361.557000,714.503000,361.494000,714.515000,361.428000C714.527000,361.363000,714.526000,361.295000,714.512000,361.230000C714.497000,361.165000,714.470000,361.103000,714.432000,361.048000C714.394000,360.993000,714.345000,360.946000,714.289000,360.910000C714.232000,360.874000,714.169000,360.849000,714.103000,360.837000L701.410000,355.929000C700.377000,355.320000,699.180000,355.047000,697.984000,355.148000C696.788000,355.248000,695.653000,355.717000,694.737000,356.490000L694.255000,356.790000C683.360000,363.382000,673.150000,354.957000,669.230000,351.030000C668.848000,350.650000,668.476000,350.259000,668.125000,349.858000C668.064000,349.791000,667.986000,349.741000,667.900000,349.713000C667.813000,349.685000,667.721000,349.680000,667.632000,349.698000C667.543000,349.718000,667.460000,349.762000,667.395000,349.826000C667.329000,349.889000,667.282000,349.970000,667.260000,350.059000C666.496000,352.874000,662.959000,354.066000,659.894000,354.176000C659.391000,354.176000,658.889000,354.176000,658.386000,354.176000C652.149000,354.078000,646.129000,351.882000,641.301000,347.945000C641.198000,347.877000,641.074000,347.849000,640.952000,347.866000C640.830000,347.884000,640.718000,347.945000,640.639000,348.040000C640.559000,348.134000,640.517000,348.254000,640.521000,348.377000C640.524000,348.500000,640.573000,348.617000,640.658000,348.706000C645.638000,352.830000,651.892000,355.115000,658.366000,355.178000C658.889000,355.178000,659.371000,355.178000,659.934000,355.178000C663.059000,355.027000,666.657000,353.885000,667.974000,351.171000L668.547000,351.772000C677.139000,360.437000,686.717000,362.590000,694.817000,357.682000L695.310000,357.381000C696.095000,356.696000,697.080000,356.280000,698.120000,356.194000C699.160000,356.107000,700.200000,356.355000,701.089000,356.901000L713.782000,361.839000C713.828000,361.847000,713.876000,361.847000,713.922000,361.839000Z" fill="rgb(208,211,217)" stroke="none" stroke-width="1"/><path id="erskOQzNVuI73" d="M766.424000,382.775000C769.837000,382.779000,773.240000,382.413000,776.574000,381.683000C776.640000,381.669000,776.703000,381.642000,776.758000,381.603000C776.813000,381.565000,776.861000,381.516000,776.897000,381.459000C776.933000,381.402000,776.958000,381.339000,776.970000,381.272000C776.982000,381.206000,776.981000,381.138000,776.966000,381.072000C776.951000,381.007000,776.924000,380.944000,776.885000,380.889000C776.847000,380.834000,776.798000,380.787000,776.741000,380.751000C776.684000,380.714000,776.620000,380.690000,776.554000,380.678000C776.487000,380.666000,776.419000,380.667000,776.353000,380.682000C770.067000,382.033000,763.571000,382.105000,757.256000,380.895000C750.941000,379.685000,744.936000,377.217000,739.600000,373.640000C738.918000,373.058000,738.055000,372.729000,737.158000,372.708000C736.401000,372.830000,735.700000,373.179000,735.148000,373.710000L735.037000,373.800000C730.012000,377.807000,722.817000,379.019000,712.927000,377.516000C708.234000,376.797000,703.606000,375.702000,699.089000,374.241000C698.962000,374.200000,698.824000,374.210000,698.705000,374.270000C698.587000,374.330000,698.497000,374.435000,698.455000,374.561000C698.414000,374.687000,698.425000,374.825000,698.485000,374.943000C698.546000,375.061000,698.650000,375.151000,698.777000,375.192000C703.347000,376.668000,708.028000,377.774000,712.777000,378.498000C722.967000,380.061000,730.455000,378.768000,735.671000,374.581000L735.791000,374.491000C736.188000,374.086000,736.694000,373.804000,737.248000,373.680000C737.910000,373.734000,738.537000,373.997000,739.037000,374.431000C747.125000,379.876000,756.664000,382.782000,766.424000,382.775000Z" fill="rgb(208,211,217)" stroke="none" stroke-width="1"/><path id="erskOQzNVuI74" d="M847.838000,384.337000C851.147000,384.336000,854.449000,384.048000,857.708000,383.476000C863.738000,382.414000,867.918000,380.391000,870.551000,377.305000C879.586000,382.404000,890.070000,384.350000,900.340000,382.835000C900.406000,382.826000,900.469000,382.805000,900.526000,382.771000C900.584000,382.737000,900.634000,382.693000,900.673000,382.639000C900.712000,382.586000,900.741000,382.525000,900.756000,382.461000C900.771000,382.396000,900.773000,382.329000,900.762000,382.264000C900.752000,382.199000,900.729000,382.136000,900.695000,382.080000C900.661000,382.023000,900.616000,381.974000,900.563000,381.935000C900.510000,381.896000,900.449000,381.868000,900.385000,381.852000C900.321000,381.836000,900.254000,381.833000,900.189000,381.843000C889.999000,383.350000,879.597000,381.369000,870.682000,376.223000C870.578000,376.164000,870.456000,376.143000,870.338000,376.165000C870.220000,376.187000,870.114000,376.250000,870.039000,376.344000C867.587000,379.419000,863.496000,381.432000,857.537000,382.484000C848.587000,384.063000,839.387000,383.440000,830.733000,380.671000C830.671000,380.649000,830.604000,380.640000,830.538000,380.645000C830.472000,380.649000,830.407000,380.667000,830.348000,380.697000C830.289000,380.727000,830.237000,380.768000,830.194000,380.819000C830.151000,380.870000,830.120000,380.928000,830.100000,380.992000C830.059000,381.118000,830.070000,381.255000,830.130000,381.373000C830.190000,381.492000,830.295000,381.581000,830.422000,381.623000C836.051000,383.424000,841.927000,384.339000,847.838000,384.337000Z" fill="rgb(208,211,217)" stroke="none" stroke-width="1"/><path id="erskOQzNVuI75" d="M805.790000,386.071000C807.140000,386.071000,808.486000,385.937000,809.810000,385.670000C809.941000,385.641000,810.056000,385.562000,810.129000,385.449000C810.202000,385.337000,810.228000,385.200000,810.202000,385.069000C810.173000,384.941000,810.094000,384.829000,809.983000,384.757000C809.872000,384.686000,809.738000,384.661000,809.609000,384.688000C806.460000,385.286000,803.213000,385.124000,800.139000,384.216000C797.066000,383.308000,794.255000,381.680000,791.941000,379.469000C791.896000,379.421000,791.841000,379.383000,791.781000,379.357000C791.720000,379.331000,791.655000,379.317000,791.589000,379.317000C791.523000,379.317000,791.458000,379.331000,791.397000,379.357000C791.337000,379.383000,791.282000,379.421000,791.237000,379.469000C791.190000,379.516000,791.153000,379.571000,791.127000,379.632000C791.102000,379.693000,791.089000,379.759000,791.089000,379.825000C791.089000,379.891000,791.102000,379.956000,791.127000,380.017000C791.153000,380.078000,791.190000,380.134000,791.237000,380.180000C795.131000,383.962000,800.353000,386.076000,805.790000,386.071000Z" fill="rgb(208,211,217)" stroke="none" stroke-width="1"/><path id="erskOQzNVuI76" d="M971.916000,354.866000C972.588000,354.867000,973.259000,354.827000,973.926000,354.746000C973.992000,354.738000,974.056000,354.718000,974.114000,354.686000C974.172000,354.653000,974.224000,354.610000,974.265000,354.558000C974.306000,354.505000,974.336000,354.446000,974.354000,354.382000C974.372000,354.318000,974.376000,354.251000,974.368000,354.185000C974.361000,354.119000,974.340000,354.056000,974.308000,353.998000C974.275000,353.941000,974.231000,353.890000,974.179000,353.850000C974.126000,353.810000,974.066000,353.781000,974.002000,353.764000C973.938000,353.748000,973.871000,353.744000,973.805000,353.754000C971.435000,354.017000,969.035000,353.770000,966.769000,353.028000C964.503000,352.287000,962.423000,351.069000,960.670000,349.457000C960.265000,348.979000,959.708000,348.654000,959.092000,348.535000C958.448000,348.532000,957.823000,348.752000,957.323000,349.156000C955.030000,350.620000,952.463000,351.605000,949.777000,352.055000C947.092000,352.504000,944.343000,352.407000,941.695000,351.771000C941.631000,351.754000,941.565000,351.750000,941.499000,351.760000C941.434000,351.769000,941.371000,351.791000,941.314000,351.824000C941.257000,351.858000,941.207000,351.902000,941.167000,351.955000C941.128000,352.008000,941.099000,352.068000,941.082000,352.131000C941.052000,352.261000,941.074000,352.398000,941.143000,352.513000C941.213000,352.627000,941.324000,352.709000,941.454000,352.742000C944.232000,353.413000,947.117000,353.516000,949.936000,353.046000C952.754000,352.576000,955.448000,351.543000,957.856000,350.008000C958.178000,349.739000,958.574000,349.571000,958.992000,349.527000C959.380000,349.639000,959.728000,349.857000,959.997000,350.158000C963.237000,353.161000,967.491000,354.842000,971.916000,354.866000Z" fill="rgb(208,211,217)" stroke="none" stroke-width="1"/><path id="erskOQzNVuI77" d="M737.289000,394.705000C739.658000,394.712000,742.020000,394.436000,744.324000,393.884000C744.454000,393.851000,744.565000,393.768000,744.635000,393.654000C744.704000,393.540000,744.726000,393.403000,744.696000,393.273000C744.680000,393.209000,744.652000,393.149000,744.614000,393.097000C744.575000,393.044000,744.526000,393,744.470000,392.966000C744.414000,392.933000,744.352000,392.910000,744.287000,392.901000C744.222000,392.892000,744.156000,392.896000,744.093000,392.912000C740.211000,393.822000,736.185000,393.947000,732.254000,393.277000C728.323000,392.608000,724.567000,391.159000,721.209000,389.015000C721.124000,388.960000,721.025000,388.931000,720.923000,388.933000C720.822000,388.934000,720.724000,388.967000,720.641000,389.025000C720.558000,389.084000,720.495000,389.166000,720.460000,389.260000C720.425000,389.355000,720.420000,389.458000,720.445000,389.556000C720.475000,389.655000,720.481000,389.759000,720.462000,389.860000C720.443000,389.962000,720.399000,390.057000,720.334000,390.137000C719.719000,390.715000,718.908000,391.041000,718.063000,391.049000C711.652000,391.477000,705.212000,391.093000,698.898000,389.907000C698.833000,389.894000,698.766000,389.894000,698.701000,389.907000C698.637000,389.921000,698.575000,389.947000,698.521000,389.984000C698.467000,390.021000,698.420000,390.069000,698.385000,390.125000C698.349000,390.180000,698.326000,390.243000,698.315000,390.308000C698.300000,390.372000,698.299000,390.438000,698.311000,390.502000C698.323000,390.567000,698.348000,390.628000,698.385000,390.682000C698.422000,390.737000,698.469000,390.783000,698.524000,390.819000C698.580000,390.854000,698.642000,390.878000,698.707000,390.889000C705.104000,392.091000,711.628000,392.481000,718.123000,392.051000C718.689000,392.040000,719.246000,391.918000,719.764000,391.691000C720.281000,391.464000,720.749000,391.137000,721.138000,390.728000C721.229000,390.596000,721.306000,390.455000,721.369000,390.308000C726.176000,393.189000,731.680000,394.709000,737.289000,394.705000Z" fill="rgb(208,211,217)" stroke="none" stroke-width="1"/><path id="erskOQzNVuI78" d="M954.560000,398.412000C954.637000,398.415000,954.713000,398.398000,954.781000,398.362000L983.815000,384.288000C983.876000,384.260000,983.930000,384.220000,983.975000,384.171000C984.019000,384.122000,984.053000,384.064000,984.075000,384.002000C984.096000,383.939000,984.105000,383.872000,984.100000,383.806000C984.095000,383.740000,984.077000,383.676000,984.047000,383.617000C984.020000,383.557000,983.981000,383.503000,983.932000,383.459000C983.884000,383.414000,983.827000,383.380000,983.765000,383.359000C983.703000,383.337000,983.637000,383.329000,983.571000,383.333000C983.506000,383.338000,983.442000,383.356000,983.383000,383.386000L954.329000,397.411000C954.269000,397.439000,954.216000,397.480000,954.172000,397.529000C954.128000,397.578000,954.095000,397.636000,954.073000,397.698000C954.052000,397.761000,954.043000,397.827000,954.047000,397.892000C954.051000,397.958000,954.068000,398.023000,954.098000,398.082000C954.129000,398.179000,954.191000,398.263000,954.275000,398.322000C954.358000,398.382000,954.458000,398.413000,954.560000,398.412000Z" fill="rgb(208,211,217)" stroke="none" stroke-width="1"/><path id="erskOQzNVuI79" d="M933.756000,397.240000C934.470000,397.240000,935.173000,397.240000,935.887000,397.240000C936.020000,397.240000,936.148000,397.187000,936.242000,397.093000C936.336000,396.999000,936.389000,396.872000,936.389000,396.739000C936.389000,396.606000,936.336000,396.479000,936.242000,396.385000C936.148000,396.291000,936.020000,396.238000,935.887000,396.238000C926.751000,396.556000,917.669000,394.737000,909.365000,390.929000C908.609000,390.510000,907.774000,390.254000,906.913000,390.178000C906.293000,390.203000,905.680000,390.318000,905.093000,390.518000C897.178000,392.859000,888.787000,393.094000,880.752000,391.199000C880.688000,391.183000,880.620000,391.180000,880.554000,391.190000C880.488000,391.199000,880.425000,391.222000,880.368000,391.257000C880.311000,391.291000,880.261000,391.337000,880.222000,391.390000C880.183000,391.444000,880.155000,391.505000,880.139000,391.570000C880.112000,391.699000,880.135000,391.833000,880.204000,391.945000C880.274000,392.057000,880.383000,392.138000,880.511000,392.171000C888.693000,394.105000,897.240000,393.874000,905.305000,391.500000C905.816000,391.319000,906.351000,391.211000,906.892000,391.179000C907.597000,391.251000,908.281000,391.462000,908.902000,391.801000C916.697000,395.378000,925.175000,397.234000,933.756000,397.240000Z" fill="rgb(208,211,217)" stroke="none" stroke-width="1"/><g id="erskOQzNVuI80_to" transform="translate(937,81)"><g id="erskOQzNVuI80" transform="translate(-937,-81)"><circle id="erskOQzNVuI81" r="30" transform="matrix(-1 0 0 1 977 89)" fill="rgb(244,246,248)" stroke="none" stroke-width="1"/><circle id="erskOQzNVuI82" r="30" transform="matrix(-1 0 0 1 897 89)" fill="rgb(244,246,248)" stroke="none" stroke-width="1"/><circle id="erskOQzNVuI83" r="38" transform="matrix(-1 0 0 1 938 81)" fill="rgb(244,246,248)" stroke="none" stroke-width="1"/></g></g><g id="erskOQzNVuI84_to" transform="translate(730.657989,29.500000)"><g id="erskOQzNVuI84" transform="translate(-730.657989,-29.500000)"><circle id="erskOQzNVuI85" r="23.289500" transform="matrix(-1 0 0 1 761.71100000000001 35.71040000000000)" fill="rgb(244,246,248)" stroke="none" stroke-width="1"/><circle id="erskOQzNVuI86" r="23.289500" transform="matrix(-1 0 0 1 699.60500000000002 35.71040000000000)" fill="rgb(244,246,248)" stroke="none" stroke-width="1"/><circle id="erskOQzNVuI87" r="29.500000" transform="matrix(-1 0 0 1 731.43399999999997 29.50000000000000)" fill="rgb(244,246,248)" stroke="none" stroke-width="1"/></g></g></g><clipPath id="erskOQzNVuI88"><rect id="erskOQzNVuI89" width="1121" height="443" rx="0" ry="0" transform="matrix(-1 0 0 1 1121 0)" fill="rgb(255,255,255)" stroke="none" stroke-width="1"/></clipPath></g></svg>